<?xml version="1.0" standalone="no"?>
<!DOCTYPE svg PUBLIC "-//W3C//DTD SVG 20010904//EN"
 "http://www.w3.org/TR/2001/REC-SVG-20010904/DTD/svg10.dtd">
<svg version="1.0" xmlns="http://www.w3.org/2000/svg"
 width="1500.000000pt" height="1000.000000pt" viewBox="0 0 1500.000000 1000.000000"
 preserveAspectRatio="xMidYMid meet">
<metadata>
Created by potrace 1.15, written by Peter Selinger 2001-2017
</metadata>
<g transform="translate(0.000000,1000.000000) scale(0.100000,-0.100000)"
fill="#000000" stroke="none">
<path d="M14600 9863 c0 -10 15 -35 33 -56 29 -33 38 -38 92 -43 66 -7 86 5
98 56 10 41 -45 83 -59 45 -4 -8 -17 -15 -30 -15 -13 0 -24 -4 -24 -9 0 -5
-13 -12 -30 -16 -40 -9 -43 -8 -46 11 -6 42 -34 64 -34 27z"/>
<path d="M11727 9442 c-11 -12 -17 -36 -17 -69 0 -52 -32 -154 -58 -185 -19
-22 -12 -62 12 -66 17 -4 18 1 13 38 -5 41 -5 41 23 35 16 -3 31 -2 35 4 11
18 30 12 71 -20 23 -18 38 -39 38 -50 -2 -25 12 -24 26 0 14 27 14 27 -19 41
-36 15 -57 63 -35 81 24 20 16 29 -26 29 -33 0 -42 4 -52 25 -13 30 2 92 21
87 7 -1 19 2 27 9 11 9 11 15 -4 35 -21 28 -34 30 -55 6z"/>
<path d="M7046 9421 c-4 -5 -4 -16 -1 -23 7 -19 -20 -42 -36 -32 -7 4 -42 8
-78 9 -36 1 -78 5 -94 10 -22 6 -26 4 -22 -8 4 -8 -1 -22 -10 -31 -15 -15 -13
-19 32 -61 30 -28 53 -42 63 -38 20 8 106 22 153 25 35 3 40 7 53 43 17 49 18
87 2 103 -14 14 -54 16 -62 3z"/>
<path d="M13726 9374 c-21 -21 -21 -24 15 -72 17 -23 27 -42 22 -42 -11 -1 44
-25 81 -36 27 -8 30 -13 29 -49 -1 -22 -5 -49 -9 -59 -6 -16 -4 -18 12 -11 24
10 42 11 76 2 23 -6 27 -3 37 24 7 19 16 29 27 27 23 -4 28 67 8 110 -12 25
-21 32 -44 32 -19 0 -31 -6 -35 -19 -8 -25 -39 -32 -62 -15 -10 7 -26 14 -35
14 -25 0 -58 36 -58 61 0 20 -24 48 -42 49 -4 0 -14 -7 -22 -16z"/>
<path d="M13155 9337 c-8 -12 -13 -36 -11 -52 2 -17 4 -37 5 -46 2 -28 58 -30
87 -2 14 13 32 23 40 23 31 0 -2 89 -34 91 -9 1 -29 3 -45 5 -19 2 -31 -3 -42
-19z"/>
<path d="M6583 9320 c-39 -16 -63 -44 -63 -74 0 -16 -8 -38 -17 -48 -23 -26
-6 -52 36 -55 28 -1 31 2 31 27 0 17 8 34 19 42 10 7 21 27 25 44 5 21 15 34
29 38 22 6 22 7 3 21 -22 17 -32 18 -63 5z"/>
<path d="M5856 9225 c-3 -8 -16 -15 -30 -15 -33 0 -42 -17 -21 -40 10 -11 15
-28 13 -38 -3 -11 2 -23 11 -29 13 -8 16 -25 15 -82 -1 -72 9 -95 19 -42 4 17
37 60 85 110 65 67 85 81 110 81 32 0 75 31 53 38 -6 2 -18 -1 -26 -8 -8 -6
-29 -10 -48 -9 -19 2 -41 -2 -48 -8 -24 -19 -55 -24 -83 -13 -25 9 -26 11 -11
33 8 13 12 27 8 30 -12 12 -41 7 -47 -8z"/>
<path d="M6932 9181 c-34 -46 -14 -81 45 -81 23 0 33 -6 38 -20 3 -11 4 -23 2
-27 -3 -5 11 -9 31 -11 20 -1 41 -7 46 -12 5 -5 16 -5 26 0 11 6 24 4 38 -6
28 -19 27 -27 -2 -61 -20 -24 -26 -25 -40 -14 -14 11 -16 11 -16 -2 0 -8 7
-17 15 -21 32 -12 10 -66 -27 -66 -36 0 -16 -26 38 -49 37 -16 64 -36 80 -60
14 -20 36 -51 49 -70 31 -42 32 -65 3 -85 -18 -13 -19 -16 -5 -16 9 0 17 5 17
10 0 7 6 7 18 2 28 -15 81 -22 87 -12 3 5 -4 11 -15 15 -11 4 -28 19 -38 33
-9 15 -21 30 -26 34 -5 3 -10 27 -11 52 0 39 -6 51 -39 85 -37 38 -45 70 -18
79 7 2 15 -8 18 -26 5 -24 12 -31 38 -35 17 -3 44 1 60 9 16 8 38 14 48 14 17
0 19 5 13 33 -4 17 -12 38 -17 45 -16 18 -46 14 -58 -8 -14 -27 -34 -25 -50 4
-16 31 -6 74 17 72 12 -1 18 8 20 31 3 39 -11 46 -101 48 -58 1 -72 5 -87 23
-9 12 -15 30 -12 41 7 26 -65 85 -84 69 -10 -8 -20 -8 -39 1 -35 15 -37 15
-62 -18z"/>
<path d="M4120 9129 c0 -4 -6 -14 -13 -21 -18 -18 -47 -94 -40 -102 4 -3 26
-6 50 -6 47 0 47 1 1 -51 -10 -10 -16 -19 -13 -19 5 0 -21 -58 -30 -68 -2 -2
-21 7 -43 19 l-41 24 -21 -28 c-16 -20 -30 -27 -58 -27 -22 -1 -47 -9 -61 -20
-22 -19 -23 -21 -7 -45 19 -29 35 -31 74 -11 15 8 54 19 86 25 59 11 96 33 96
56 0 13 73 45 102 45 8 0 23 -11 32 -25 9 -13 33 -29 53 -34 74 -21 99 -7 41
21 -45 21 -110 149 -114 222 l-2 51 -46 1 c-25 0 -46 -3 -46 -7z"/>
<path d="M7989 9063 c-24 -4 -27 -9 -32 -56 -4 -44 -1 -58 22 -94 30 -47 60
-60 105 -42 40 16 46 26 46 71 0 42 -24 66 -89 88 -36 12 -39 14 -23 26 17 14
16 14 -29 7z"/>
<path d="M12916 8984 c-6 -23 -11 -26 -36 -21 -27 6 -28 5 -21 -21 4 -15 5
-38 1 -52 -4 -14 -5 -53 -2 -88 4 -53 9 -67 33 -90 16 -15 29 -33 29 -40 0
-20 23 -9 37 18 8 17 9 29 1 43 -7 14 -7 31 2 59 6 22 9 43 6 46 -3 3 1 13 10
23 15 17 15 21 -6 63 -12 25 -18 51 -14 57 6 10 -11 28 -27 29 -4 0 -10 -12
-13 -26z"/>
<path d="M11810 8953 c0 -5 7 -17 16 -28 12 -16 17 -17 23 -7 6 10 10 8 14 -8
4 -15 11 -21 20 -17 16 6 29 -35 20 -60 -9 -23 -33 -14 -33 13 0 14 -4 23 -10
19 -5 -3 -10 -19 -10 -35 0 -29 -22 -50 -53 -50 -8 0 -24 22 -36 49 -11 28
-26 53 -31 56 -17 11 -40 -15 -40 -45 0 -25 -3 -27 -47 -29 -54 -2 -61 -6 -65
-41 -2 -19 2 -26 20 -28 12 -2 22 2 22 8 0 8 9 10 26 6 20 -5 27 -3 30 12 4
14 13 17 41 14 22 -3 38 0 43 8 5 8 10 2 14 -18 8 -36 26 -53 89 -86 47 -25
77 -25 77 0 0 27 22 60 51 77 30 17 32 16 75 -9 44 -26 54 -21 34 17 -6 11
-21 19 -36 19 -57 0 -81 40 -54 90 9 16 5 22 -19 35 -17 8 -44 15 -61 15 -16
0 -30 5 -30 11 0 6 -9 9 -20 6 -11 -3 -23 -1 -26 4 -6 11 -44 12 -44 2z"/>
<path d="M13873 8925 c-35 -25 -75 -210 -52 -246 7 -11 9 -10 9 4 0 49 87 157
126 157 31 0 30 8 -6 58 -33 46 -44 50 -77 27z"/>
<path d="M5037 8894 c-3 -3 -4 -22 -1 -42 2 -21 1 -31 -2 -24 -5 10 -10 10
-25 -4 -33 -30 -24 -51 31 -69 27 -9 52 -21 55 -26 11 -17 25 -9 51 31 34 51
27 84 -20 104 -18 8 -37 19 -40 25 -8 12 -39 15 -49 5z"/>
<path d="M3078 7627 c-46 -21 -59 -39 -38 -52 12 -8 13 -25 1 -25 -5 0 -11 10
-15 23 -6 20 -12 16 -76 -53 -93 -99 -99 -110 -62 -110 82 0 82 -121 0 -149
-25 -9 -28 -13 -18 -25 6 -8 27 -20 46 -26 39 -13 43 -25 14 -40 -11 -6 -20
-21 -20 -33 0 -25 50 -82 79 -92 28 -9 80 21 94 53 6 15 22 44 35 64 22 34 28
37 68 36 25 0 48 3 52 6 4 4 7 30 8 57 1 27 8 56 14 65 7 8 13 27 14 42 1 23
6 28 41 34 22 4 68 7 103 7 34 1 62 5 62 9 0 14 -36 43 -66 53 -24 7 -21 8 19
4 51 -5 66 11 20 21 -16 3 -38 11 -51 17 -18 8 -34 7 -75 -7 -37 -13 -72 -17
-120 -14 -36 3 -68 1 -69 -4 -2 -4 -25 -10 -53 -14 -27 -3 -59 -9 -70 -14 -11
-5 -32 -10 -47 -13 -25 -4 -25 -2 -15 21 10 21 16 23 47 18 23 -4 30 -2 20 4
-12 7 -11 10 5 16 11 4 23 12 26 17 4 5 15 5 27 -2 15 -8 23 -7 32 4 8 9 9 15
2 15 -6 0 -13 9 -16 20 -3 11 -9 29 -12 40 -4 15 -1 20 13 20 10 0 27 7 37 15
29 22 0 18 -56 -8z"/>
<path d="M3640 7393 c0 -6 20 -24 45 -39 57 -33 111 -102 129 -165 13 -41 13
-60 0 -141 -8 -51 -16 -108 -17 -125 -4 -50 -20 -60 -59 -39 -43 24 -82 18
-86 -11 -3 -20 1 -23 32 -23 35 0 43 -6 89 -61 7 -8 21 -44 31 -80 9 -35 20
-72 22 -81 10 -36 -25 -6 -47 39 l-22 45 -14 -33 c-7 -18 -35 -56 -61 -84 -73
-79 -155 -187 -167 -220 -21 -57 -35 -74 -74 -85 -21 -5 -52 -7 -70 -4 l-31 7
0 -59 c0 -41 -6 -69 -20 -92 -21 -34 -26 -57 -11 -47 6 3 18 -11 27 -31 9 -19
28 -42 40 -51 13 -8 24 -20 24 -26 0 -20 34 -86 47 -91 28 -11 -16 108 -46
124 -11 5 -33 30 -50 55 -24 36 -27 46 -16 52 8 5 20 26 27 47 20 59 33 54 47
-19 14 -71 20 -75 76 -47 31 15 34 20 29 45 -5 24 -3 28 13 25 12 -2 20 -15
24 -43 9 -59 43 -148 59 -153 9 -3 11 0 6 14 -16 39 -24 129 -13 149 9 18 13
15 34 -30 19 -39 23 -61 19 -98 -5 -45 -4 -47 15 -37 11 6 24 8 29 5 11 -7 32
38 50 105 7 25 16 53 21 62 5 10 9 37 9 60 0 45 14 115 24 125 8 8 56 -45 67
-75 16 -42 20 -18 8 54 -6 38 -13 143 -15 234 -3 147 -1 178 22 285 14 66 30
129 35 140 5 11 8 35 7 53 -1 24 -6 32 -20 32 -16 0 -18 9 -18 68 0 37 -4 82
-10 101 -15 54 -59 109 -96 123 -21 7 -33 17 -30 25 7 18 -8 24 -64 27 -35 1
-50 -2 -50 -11z"/>
<path d="M10884 7285 c-4 -8 -12 -15 -20 -15 -29 0 -13 -28 26 -45 28 -13 37
-22 30 -29 -15 -15 -12 -23 13 -30 12 -3 35 -17 51 -31 35 -30 32 -30 81 -5
66 34 96 27 158 -32 44 -43 57 -63 67 -105 6 -29 22 -63 35 -77 13 -14 25 -30
27 -37 8 -24 57 23 58 54 0 25 -3 27 -22 22 -13 -4 -27 -8 -32 -9 -18 -2 -66
111 -68 160 -1 37 -8 55 -25 72 -28 26 -21 24 -100 28 -34 1 -72 8 -85 15 -13
7 -32 12 -44 10 -11 -1 -45 14 -75 33 -60 40 -67 42 -75 21z"/>
<path d="M10700 7194 c-47 -30 -60 -46 -89 -107 -48 -101 -61 -158 -59 -262 0
-49 3 -75 5 -57 3 19 11 36 21 39 25 9 30 22 23 52 -10 34 13 152 36 188 9 15
37 52 61 81 41 48 48 52 88 52 51 0 55 9 15 33 -38 22 -37 23 -101 -19z"/>
<path d="M9541 7106 c-7 -9 -23 -14 -35 -12 -11 2 -29 -3 -38 -12 -20 -17 -24
-3 -6 19 7 7 4 6 -6 -3 -18 -15 -27 -52 -28 -106 0 -22 -1 -22 -19 -6 -10 9
-19 25 -19 35 0 12 -5 16 -14 13 -19 -7 -11 -31 23 -68 22 -25 23 -27 5 -18
-30 16 -86 81 -79 93 10 15 -11 10 -25 -6 -6 -8 -9 -23 -5 -36 5 -15 4 -19 -5
-14 -6 4 -10 18 -7 32 6 31 -15 25 -24 -8 -6 -21 -7 -21 -9 -4 -1 11 -2 23 -1
28 2 12 -16 8 -29 -8 -7 -8 -17 -12 -22 -9 -6 4 -21 -6 -35 -22 -24 -29 -24
-29 -18 -4 4 14 9 38 12 54 5 26 4 27 -15 17 -11 -6 -30 -24 -42 -41 -21 -30
-40 -39 -40 -19 0 5 5 7 10 4 6 -3 10 0 10 8 0 24 -37 8 -70 -30 -21 -24 -30
-29 -30 -17 0 16 -1 16 -18 1 -10 -10 -23 -17 -27 -17 -5 0 -20 -12 -32 -27
-13 -14 -23 -21 -23 -15 0 24 -20 11 -51 -34 -27 -40 -33 -44 -41 -29 -9 16
-11 15 -22 -5 -6 -13 -15 -23 -21 -23 -5 0 -15 -7 -22 -16 -7 -9 -12 -11 -13
-4 0 14 27 43 40 43 5 0 7 7 4 15 -9 24 -122 -81 -128 -118 -1 -7 -5 -18 -10
-25 -4 -7 -2 -19 5 -28 10 -12 9 -13 -5 -8 -9 3 -16 1 -16 -6 0 -6 -4 -9 -9
-6 -4 3 -6 18 -3 33 3 16 1 24 -4 20 -5 -5 -9 -12 -9 -16 0 -4 -8 -15 -18 -25
-9 -10 -15 -22 -12 -27 4 -5 2 -9 -2 -9 -5 0 -9 -8 -10 -17 -1 -10 -6 -37 -11
-60 -10 -47 -1 -77 16 -48 5 11 14 15 22 10 10 -6 10 -9 0 -15 -9 -6 -6 -10 9
-15 14 -4 31 -1 46 9 34 22 48 20 39 -6 l-6 -21 27 21 c38 30 42 28 38 -19 -3
-38 -2 -40 13 -28 15 13 17 11 12 -18 -2 -18 -1 -34 2 -35 6 -3 21 -208 22
-288 0 -14 9 -35 20 -47 l21 -23 -19 -126 -19 -126 -30 7 c-72 15 -122 14
-175 -4 -45 -15 -56 -16 -58 -5 -2 8 -8 14 -13 14 -6 0 -7 -4 -4 -10 3 -5 -1
-10 -9 -10 -27 0 4 39 39 49 33 11 196 8 214 -3 15 -10 35 37 27 67 -7 29 -45
44 -47 19 -1 -10 -1 -23 0 -30 2 -10 -4 -12 -21 -6 -26 8 -98 65 -98 77 0 5
-6 15 -14 23 -11 11 -21 12 -43 3 -15 -6 -30 -10 -32 -9 -2 1 -8 -4 -12 -12
-7 -11 -11 -10 -19 2 -13 19 -13 30 0 30 15 0 12 17 -5 24 -34 13 -76 -6 -95
-43 -16 -30 -19 -32 -20 -13 0 12 -4 22 -10 22 -13 0 -33 -39 -26 -55 2 -7 -4
-15 -17 -19 -12 -3 -18 -8 -15 -11 10 -10 -13 -66 -25 -62 -6 2 -28 -16 -49
-40 -35 -40 -38 -49 -39 -106 -1 -46 -3 -56 -9 -37 -4 14 -9 43 -9 65 l-2 40
-15 -27 c-8 -15 -24 -33 -37 -39 -21 -12 -21 -11 -7 6 14 17 13 18 -2 12 -10
-4 -18 -2 -18 4 0 6 9 9 19 6 16 -4 26 10 56 72 21 42 43 83 50 91 18 21 30
116 16 125 -6 3 -11 -1 -11 -9 0 -9 -4 -15 -8 -14 -4 2 -22 -13 -40 -32 -17
-19 -32 -29 -32 -22 0 6 5 12 10 12 6 0 10 9 10 21 0 13 4 18 12 13 7 -4 8 -3
4 4 -15 25 -54 0 -48 -30 1 -5 -3 -8 -8 -8 -15 0 -80 -61 -75 -71 6 -8 -42
-49 -57 -49 -5 0 -23 -13 -41 -30 -37 -35 -16 -43 26 -10 14 11 30 20 35 20 5
0 24 15 42 33 35 34 32 19 -4 -23 -20 -24 -20 -23 16 3 52 38 59 34 14 -8 -21
-19 -47 -35 -58 -35 -10 0 -29 -11 -42 -25 -13 -14 -27 -25 -31 -25 -22 0
-106 -66 -141 -110 -21 -27 -45 -49 -51 -50 -7 0 -13 -9 -13 -19 0 -11 -4 -22
-10 -26 -5 -3 -6 -13 -3 -21 3 -9 -3 -21 -14 -29 -36 -25 -20 -69 35 -101 32
-18 34 -18 63 -1 20 11 29 13 27 5 -3 -7 -21 -17 -41 -22 -34 -9 -36 -11 -33
-50 2 -25 -5 -56 -16 -78 -10 -21 -20 -45 -22 -55 -1 -10 -6 -26 -11 -36 -4
-10 -5 -21 -2 -24 4 -3 12 7 19 23 7 16 16 34 21 39 4 6 30 45 57 87 51 80 72
98 113 98 33 0 77 36 77 63 0 12 9 32 18 45 l18 24 12 -40 c7 -21 30 -60 53
-86 l41 -47 -25 -23 c-25 -23 -49 -89 -49 -134 0 -12 -4 -25 -9 -28 -17 -10
-9 -63 17 -121 39 -87 64 -153 59 -153 -2 0 -11 12 -19 28 -8 15 -28 43 -45
62 -17 19 -31 39 -31 44 0 6 7 1 15 -10 20 -26 19 -15 -4 31 -18 37 -19 38
-30 17 -9 -18 -9 -22 1 -20 8 2 12 -4 10 -15 -2 -10 11 -41 28 -70 l31 -52
-41 48 c-23 26 -45 45 -50 42 -7 -5 -45 31 -45 44 0 3 -4 5 -9 3 -5 -2 -6 6
-4 16 3 11 2 25 -2 32 -6 9 -16 0 -35 -29 -20 -33 -24 -46 -15 -56 9 -10 7
-16 -8 -24 -11 -6 -22 -7 -26 -3 -4 3 -11 0 -16 -8 -6 -9 -10 -10 -10 -3 0 6
10 19 22 27 12 9 19 18 16 22 -10 9 -117 -90 -112 -103 2 -7 0 -13 -4 -13 -5
0 -8 -11 -8 -25 0 -15 6 -25 14 -25 8 0 12 -6 9 -13 -3 -8 -1 -20 5 -28 8 -11
9 -10 4 4 -3 11 -2 16 4 12 6 -3 10 -13 10 -21 0 -24 48 -36 89 -23 20 6 41
16 47 21 8 5 14 3 17 -6 7 -18 -13 -26 -89 -33 -40 -4 -64 -2 -68 6 -4 6 -15
11 -25 11 -14 0 -16 -7 -14 -37 l3 -38 -13 40 c-10 31 -17 39 -33 37 -10 -2
-20 -8 -22 -13 -2 -5 -12 -9 -22 -9 -37 0 -29 -18 10 -25 46 -8 56 -18 35 -35
-8 -7 -15 -21 -15 -31 0 -15 -5 -16 -30 -9 -16 5 -30 7 -30 5 0 -2 9 -24 20
-50 22 -52 24 -65 11 -65 -5 0 -12 13 -16 30 -4 17 -11 30 -16 30 -6 0 -8 4
-4 9 3 6 -4 15 -15 21 -11 6 -20 7 -20 2 0 -5 -17 -9 -38 -9 -36 0 -132 -45
-132 -62 0 -4 -11 -13 -25 -19 -14 -6 -24 -15 -23 -19 3 -8 -42 -70 -79 -110
-13 -13 -23 -26 -23 -29 0 -4 -115 -162 -140 -191 -5 -7 -10 -19 -10 -28 0 -8
-4 -15 -10 -15 -5 0 -10 -7 -10 -15 0 -8 -4 -15 -8 -15 -4 0 -9 -14 -10 -32
-2 -18 -9 -39 -17 -48 -8 -9 -20 -39 -26 -68 -7 -28 -16 -49 -20 -47 -4 3 -10
-2 -13 -11 -3 -8 -2 -12 4 -9 6 3 10 2 10 -2 0 -15 -25 -63 -32 -63 -5 0 -8
-7 -8 -15 0 -8 -7 -15 -15 -15 -9 0 -12 -6 -9 -15 4 -8 1 -15 -5 -15 -6 0 -11
-8 -11 -18 0 -10 -14 -26 -31 -36 -26 -15 -30 -22 -25 -45 5 -19 4 -22 -4 -11
-7 11 -10 11 -10 2 0 -7 -9 -32 -20 -54 -11 -23 -20 -52 -20 -64 0 -13 -6 -27
-13 -31 -8 -4 -22 -21 -33 -38 -36 -57 -46 -65 -63 -52 -12 9 -13 9 -7 -1 15
-25 -85 -138 -145 -163 -16 -6 -29 -18 -29 -25 0 -8 -4 -14 -9 -14 -5 0 -11
-9 -14 -20 -7 -27 -48 -41 -100 -34 -34 5 -47 2 -70 -16 -15 -12 -25 -26 -21
-31 3 -5 10 -7 15 -4 5 4 9 1 9 -4 0 -6 -4 -11 -9 -11 -5 0 -8 -8 -6 -17 2
-10 4 -20 4 -23 1 -3 6 2 11 10 8 13 10 13 10 -2 0 -9 -9 -20 -20 -23 -11 -3
-20 -14 -20 -22 0 -9 -12 8 -27 38 -24 47 -33 55 -63 60 -20 3 -62 19 -94 37
-54 29 -60 30 -86 17 -15 -8 -39 -28 -53 -45 -14 -16 -29 -30 -34 -30 -16 0
-46 67 -59 133 -23 118 -72 175 -143 163 -34 -5 -41 -3 -55 19 -21 33 -31 32
-48 -5 -7 -16 -24 -34 -38 -39 -24 -9 -24 -9 -3 -10 27 -1 57 -44 50 -71 -3
-12 1 -23 10 -29 10 -5 14 -15 10 -25 -4 -10 -1 -16 8 -16 8 0 15 5 15 12 0 6
19 28 41 49 l41 38 39 -31 c21 -17 36 -35 33 -39 -3 -5 2 -19 10 -31 8 -13 18
-54 22 -93 9 -96 17 -114 46 -108 16 3 30 -3 43 -17 20 -22 20 -22 -7 -45 -15
-13 -30 -34 -33 -48 -6 -20 -2 -26 20 -31 21 -5 26 -12 22 -26 -4 -14 0 -20
12 -20 26 0 41 -21 41 -58 0 -42 -28 -92 -52 -92 -24 0 -30 -16 -12 -31 23
-19 57 -100 46 -111 -5 -5 -16 2 -26 18 -13 19 -21 23 -29 15 -6 -6 -28 -11
-50 -11 -29 0 -46 7 -68 30 l-30 29 -9 -24 c-5 -13 -23 -31 -40 -40 -23 -12
-29 -21 -25 -35 9 -28 -11 -33 -29 -8 -16 22 -16 21 -16 -20 0 -31 -4 -42 -15
-42 -8 0 -15 9 -15 20 0 10 -6 34 -14 52 -8 18 -17 46 -21 61 -3 15 -10 25
-15 22 -16 -10 -28 28 -21 67 4 23 16 44 34 58 29 23 28 40 -2 40 -10 0 -21 9
-24 20 -6 24 -43 27 -67 5 -12 -11 -24 -12 -45 -6 -25 8 -26 9 -7 10 21 1 33
21 12 21 -5 0 -10 8 -10 18 0 9 -7 30 -15 45 -11 21 -12 34 -4 48 5 11 14 17
18 14 10 -6 24 87 16 107 -6 16 21 17 57 3 31 -12 34 23 4 54 l-26 27 30 17
c16 10 32 17 35 17 3 -1 20 11 38 24 18 14 27 26 21 26 -6 0 -19 -9 -29 -20
-18 -19 -46 -28 -44 -12 1 4 1 17 0 30 l-1 23 -29 -20 c-16 -12 -32 -21 -35
-21 -3 0 -6 18 -6 40 0 41 -7 49 -28 28 -9 -9 -13 -7 -18 5 -4 11 4 31 22 54
16 20 32 42 36 47 5 7 11 7 20 -2 19 -19 35 -14 41 11 2 12 8 30 12 40 7 16 5
16 -18 6 -15 -7 -24 -17 -20 -23 3 -6 -4 -2 -16 9 -21 20 -21 22 -5 70 9 28
27 61 40 75 19 21 21 28 10 43 -7 9 -22 17 -34 17 -11 0 -22 6 -25 13 -3 8
-12 5 -30 -12 -15 -14 -23 -29 -20 -39 12 -29 -17 -2 -32 31 -11 23 -14 26
-11 9 4 -18 1 -22 -11 -18 -10 4 -13 2 -10 -8 3 -7 0 -19 -6 -25 -9 -9 -8 -14
3 -22 11 -8 12 -12 3 -16 -18 -7 -16 -23 1 -23 21 0 30 -20 16 -33 -10 -9 -11
-9 -6 1 10 17 -21 27 -39 12 -13 -11 -15 -7 -15 24 0 46 -15 46 -37 1 -9 -19
-19 -35 -23 -35 -3 0 -22 16 -41 35 l-36 34 3 -37 c2 -20 3 -45 3 -54 1 -10 8
-18 16 -18 19 0 20 -29 0 -36 -8 -3 -19 -21 -25 -40 -6 -19 -16 -34 -22 -34
-6 0 -6 6 2 15 10 12 9 16 -4 21 -23 9 -49 -3 -39 -18 4 -7 8 -23 8 -36 1 -22
1 -22 -19 -3 -19 19 -19 19 -53 -6 -40 -31 -47 -27 -31 15 9 22 18 30 33 29
30 -3 27 37 -4 41 -13 2 -21 0 -18 -6 4 -5 -1 -19 -9 -31 l-15 -21 -20 22
c-12 13 -18 17 -14 10 8 -16 16 -57 18 -94 2 -33 6 -34 58 -7 46 23 56 20 40
-9 -15 -28 -14 -32 9 -32 11 0 20 -6 20 -13 0 -22 -11 -27 -34 -15 -20 10 -20
10 -4 -8 17 -17 19 -17 47 4 17 12 33 22 36 22 12 0 4 -27 -12 -42 -10 -10
-27 -26 -37 -38 -19 -20 -19 -20 1 -20 12 0 29 12 40 29 l18 30 17 -57 c13
-45 14 -53 2 -38 -8 11 -14 28 -14 39 0 10 -4 15 -10 12 -5 -3 -10 -19 -10
-35 0 -15 -6 -31 -12 -33 -8 -3 -6 -6 5 -6 9 -1 17 -8 17 -16 0 -8 5 -15 11
-15 6 0 9 -6 6 -12 -2 -7 -13 -12 -23 -10 -18 2 -18 2 -1 -8 9 -6 17 -19 17
-30 0 -10 6 -21 13 -24 6 -3 2 -3 -10 0 -26 6 -28 -1 -10 -39 14 -31 42 -35
70 -9 19 17 20 16 8 -6 -7 -13 -10 -29 -8 -36 3 -8 -4 -11 -24 -8 -34 5 -36
-4 -9 -38 13 -16 18 -18 14 -7 -4 12 -2 17 7 15 7 -2 18 7 23 18 10 22 10 22
48 -9 37 -30 48 -47 28 -47 -5 0 -10 7 -10 15 0 20 -26 19 -34 -1 -9 -22 -8
-24 10 -17 12 4 14 0 8 -21 -5 -21 -3 -25 10 -20 12 5 15 2 10 -10 -3 -9 -1
-16 6 -16 6 0 18 -6 26 -14 12 -13 11 -15 -12 -13 -17 1 -29 -4 -31 -13 -4
-13 -3 -13 6 0 13 18 14 1 1 -20 -7 -12 -12 -11 -30 5 -12 11 -25 20 -28 20
-4 0 -6 5 -4 12 1 6 -2 14 -8 18 -6 4 -10 -6 -10 -24 0 -25 -3 -29 -24 -27
-14 1 -33 9 -42 17 -16 12 -17 12 -11 -4 4 -10 7 -21 7 -23 0 -2 14 -4 30 -4
17 0 30 -4 30 -10 0 -5 -9 -10 -20 -10 -12 0 -20 -7 -20 -17 0 -13 -7 -9 -26
15 -14 17 -34 32 -44 32 -20 0 -70 -54 -70 -76 0 -8 -8 -14 -18 -14 -11 0 -26
-8 -35 -18 -15 -17 -14 -19 22 -34 30 -13 40 -25 49 -57 7 -22 18 -46 26 -53
7 -7 18 -23 25 -36 6 -12 18 -22 27 -22 12 0 12 -4 4 -20 -14 -27 -65 -27 -88
0 -9 12 -49 54 -89 95 -51 53 -71 80 -67 93 4 9 -3 2 -15 -16 -12 -18 -21 -41
-21 -52 0 -27 -19 -35 -38 -16 -15 14 -14 17 6 36 30 29 28 41 -8 34 -19 -4
-30 -2 -30 5 0 6 9 11 20 11 13 0 20 6 19 18 0 11 -2 12 -6 4 -4 -10 -8 -9
-17 4 -11 14 -18 15 -44 6 -35 -12 -49 -5 -24 14 22 16 10 29 -15 15 -22 -12
-102 -47 -124 -54 -18 -6 -79 38 -79 58 0 7 -7 15 -15 19 -9 3 -15 0 -15 -9 0
-8 -4 -15 -10 -15 -5 0 -7 -7 -4 -15 4 -8 13 -15 21 -15 8 0 11 5 8 10 -3 6
-1 10 5 10 6 0 14 -8 17 -17 10 -26 31 -45 43 -38 5 3 10 1 10 -4 0 -6 3 -10
8 -10 26 4 33 -2 18 -17 -16 -15 -13 -39 4 -29 5 3 12 0 16 -6 4 -7 3 -9 -3
-6 -6 4 -13 1 -16 -7 -8 -20 19 -28 33 -11 6 8 17 12 24 9 7 -3 21 4 31 16 25
28 45 25 45 -5 0 -31 -60 -95 -89 -95 -11 0 -23 -5 -26 -10 -3 -5 -30 -10 -59
-10 -56 0 -111 30 -111 60 0 8 -6 14 -13 12 -17 -3 -11 29 8 45 13 10 10 12
-18 13 -30 0 -32 2 -26 25 5 20 2 25 -13 25 -11 0 -30 11 -44 26 -19 21 -20
24 -5 18 14 -5 17 -4 12 4 -5 8 0 12 13 12 12 0 20 3 20 8 -6 35 44 67 76 49
18 -10 19 -9 6 7 -12 15 -12 19 7 32 18 13 20 19 11 36 -9 16 -7 24 10 39 12
11 21 24 21 29 0 5 13 17 30 26 22 14 32 29 40 66 16 75 13 106 -10 118 -31
16 -46 61 -26 76 9 6 16 16 16 21 0 17 69 26 86 12 18 -15 20 -13 28 34 4 23
3 37 -2 33 -11 -7 -49 20 -41 29 4 3 30 2 58 -3 28 -5 54 -6 56 -2 3 5 -4 29
-15 54 -13 31 -25 46 -38 46 -20 0 -52 -29 -52 -48 0 -20 -28 -13 -35 8 -3 11
-16 25 -28 31 -17 10 -24 8 -40 -12 -11 -13 -27 -41 -36 -62 -15 -36 -18 -38
-52 -32 -21 4 -40 2 -43 -3 -3 -5 -18 -7 -32 -4 -19 3 -25 1 -20 -7 12 -19
-37 -31 -51 -12 -16 21 -16 31 1 31 8 0 18 5 22 11 8 13 -16 31 -33 25 -6 -3
-16 8 -23 23 -14 35 -56 57 -76 41 -10 -9 -10 -17 -2 -36 8 -17 8 -28 2 -32
-6 -4 -11 -25 -12 -47 -2 -30 0 -36 8 -25 8 13 11 11 16 -7 4 -13 13 -23 20
-23 8 0 14 -7 14 -16 0 -8 -4 -12 -10 -9 -6 3 -10 -1 -10 -10 0 -11 5 -15 14
-12 10 4 13 1 9 -9 -3 -7 0 -14 6 -14 6 0 11 5 11 10 0 6 4 10 10 10 11 0 9
-28 -4 -48 -11 -18 21 -52 48 -52 12 0 31 -3 44 -6 l23 -7 -27 -28 c-21 -22
-37 -29 -67 -29 -37 0 -97 26 -97 42 0 4 -9 5 -21 3 -18 -4 -20 0 -14 24 4 20
1 32 -11 42 -12 9 -15 10 -10 2 4 -7 3 -13 -3 -13 -5 0 -13 5 -16 11 -4 6 -23
9 -44 8 -20 -2 -46 3 -58 9 -29 16 -72 15 -124 -3 -52 -19 -87 -49 -105 -92
-8 -18 -19 -33 -24 -33 -35 0 -67 -201 -34 -214 8 -3 14 -11 14 -17 0 -7 -8
-6 -23 4 -22 16 -125 67 -135 67 -2 0 16 -18 42 -41 25 -22 46 -44 46 -49 0
-28 -187 -100 -201 -78 -9 15 -99 -60 -99 -82 0 -17 25 -21 48 -6 8 5 12 0 12
-17 0 -34 30 -67 63 -69 15 -1 27 -8 27 -15 0 -7 -7 -10 -17 -6 -11 4 -14 3
-9 -5 4 -7 2 -10 -6 -7 -7 2 -26 -7 -43 -21 -23 -20 -25 -23 -7 -14 13 6 36
13 51 15 l28 4 -23 -66 c-21 -61 -36 -82 -57 -83 -5 0 -6 4 -3 9 13 20 -27 98
-61 120 -19 12 -36 21 -38 19 -2 -2 -1 -16 2 -31 3 -16 8 -24 12 -19 12 20 41
-16 50 -63 5 -25 13 -51 19 -57 5 -5 8 -18 5 -28 -5 -17 -6 -17 -24 -2 -10 9
-19 22 -19 29 0 7 -7 13 -15 13 -9 0 -27 7 -40 16 -22 14 -27 14 -59 -1 -20
-10 -37 -22 -37 -29 -1 -6 -2 -18 -3 -26 0 -8 -8 -14 -16 -13 -9 2 -26 -18
-42 -47 -32 -56 -29 -63 9 -22 16 17 27 23 30 15 3 -7 15 -28 28 -48 14 -19
22 -42 19 -50 -4 -8 -1 -15 5 -15 6 0 11 -7 11 -15 0 -8 4 -15 9 -15 14 0 20
25 10 41 -14 22 -11 56 6 63 8 3 15 14 15 25 0 22 -33 34 -49 18 -7 -7 -14 -7
-20 -1 -6 5 4 24 25 48 l34 39 28 -29 c17 -19 35 -28 48 -26 19 3 22 -3 27
-49 8 -65 19 -77 46 -50 16 16 18 22 7 28 -27 15 -18 73 11 73 8 0 11 5 8 10
-4 6 -1 17 5 25 6 8 9 19 6 24 -4 6 1 19 11 30 16 19 19 19 41 5 35 -23 38
-10 7 30 -22 29 -26 41 -19 63 4 16 7 31 6 35 -3 14 27 16 39 2 10 -13 10 -17
-2 -25 -9 -6 -10 -9 -2 -9 7 0 21 -17 32 -38 12 -23 33 -44 55 -54 24 -12 34
-22 30 -33 -3 -8 -10 -12 -16 -9 -5 3 -17 -1 -26 -9 -9 -9 -30 -20 -45 -26
-57 -22 -82 -135 -38 -175 16 -15 23 -10 86 57 68 71 79 90 62 114 -6 9 1 9
30 1 21 -5 40 -12 42 -14 2 -1 -7 -20 -20 -41 -13 -21 -29 -47 -34 -58 -6 -11
-20 -20 -31 -20 -26 0 -54 -23 -54 -44 0 -14 2 -14 11 -1 9 12 10 12 5 -3 -3
-10 -6 -20 -6 -22 0 -2 -36 -11 -79 -21 -44 -10 -78 -21 -75 -25 2 -4 23 -10
45 -14 33 -6 47 -3 70 14 32 24 33 24 29 -49 0 -19 4 -57 10 -84 9 -43 8 -55
-11 -102 -13 -30 -20 -57 -16 -60 11 -11 35 16 42 47 9 38 22 37 30 -2 8 -33
102 -139 124 -139 19 0 -19 60 -46 73 -13 5 -30 21 -38 34 -16 24 -8 32 12 12
6 -6 17 -9 25 -6 8 3 3 9 -15 16 -15 6 -32 22 -37 36 -13 34 -13 34 11 28 19
-5 21 -3 14 28 -4 19 -14 43 -21 54 -17 24 -18 39 -1 29 8 -5 8 -3 -2 9 -7 9
-17 15 -20 12 -9 -5 -11 22 -5 54 5 24 6 24 35 -12 38 -46 53 -47 45 -4 -10
56 37 156 68 144 13 -5 14 -3 4 13 -7 10 -16 16 -20 14 -18 -11 -6 10 18 33
27 24 44 23 44 -4 0 -9 3 -13 7 -10 12 12 33 -15 33 -43 0 -16 7 -30 15 -34
22 -8 18 -26 -5 -26 -11 0 -20 -6 -20 -14 0 -22 21 -76 31 -76 4 0 2 18 -6 40
-15 42 -7 52 16 23 18 -21 77 -46 90 -37 13 8 -7 32 -45 55 -23 14 -29 25 -30
53 -1 28 4 37 24 47 l25 12 -37 15 c-49 19 -51 41 -11 111 2 2 10 -2 18 -9 11
-9 15 -26 14 -52 -2 -21 2 -43 9 -50 7 -7 12 -19 12 -27 0 -9 12 -46 26 -84
l26 -68 -25 -20 c-14 -10 -35 -44 -46 -75 -25 -66 -25 -68 -5 -60 13 5 15 2
10 -16 -3 -13 -6 -35 -6 -50 0 -38 -14 -35 -39 8 -12 20 -30 38 -41 41 -11 3
-20 14 -20 25 0 26 -19 60 -30 53 -5 -3 -11 4 -15 15 -8 25 -25 16 -25 -13 0
-26 56 -127 70 -127 6 0 16 -11 22 -25 7 -16 19 -25 35 -25 12 0 23 -1 23 -2
0 -2 -9 -27 -20 -57 -12 -29 -18 -56 -15 -60 7 -6 41 30 61 64 9 17 12 15 33
-18 12 -20 27 -37 32 -37 14 0 10 52 -6 80 -9 17 -10 29 -3 37 17 21 15 99 -5
121 -14 16 -16 24 -7 43 14 31 54 51 71 35 9 -8 10 -7 6 7 -4 10 -2 37 5 61 6
23 8 55 4 70 -6 24 -9 26 -22 15 -20 -16 -29 -3 -38 53 -7 41 15 87 42 88 7 0
24 7 38 16 29 20 43 11 26 -16 -20 -33 23 -25 60 10 17 17 36 30 42 31 6 0 21
2 33 3 26 3 27 2 12 -26 -6 -11 -7 -18 -2 -16 4 3 16 -3 25 -13 16 -17 15 -18
-13 -24 -16 -4 -29 -9 -29 -11 0 -13 22 -44 30 -44 14 0 12 28 -2 32 -7 3 4 5
25 6 20 1 37 -3 37 -9 0 -6 -4 -7 -10 -4 -17 11 -11 -68 8 -106 10 -19 19 -52
20 -73 2 -22 5 -43 8 -48 9 -14 32 -9 57 15 20 18 22 27 16 52 -5 17 -6 38 -3
48 7 21 -21 34 -40 17 -20 -15 -35 13 -33 63 1 37 12 39 19 3 1 -11 18 -26 35
-35 28 -14 33 -21 34 -56 1 -22 3 -32 6 -22 2 9 9 17 14 17 6 0 8 8 5 18 -4
10 0 26 7 36 11 15 15 13 45 -29 18 -25 33 -49 34 -53 5 -17 -14 -172 -21
-172 -4 0 -12 15 -19 34 -13 35 -44 69 -67 72 -15 2 -28 -23 -19 -37 3 -5 0
-9 -5 -9 -6 0 -1 -19 12 -42 15 -30 23 -38 25 -25 6 32 20 18 36 -36 14 -48
41 -87 60 -87 9 0 -4 71 -15 86 -5 6 -6 13 -3 16 3 3 13 45 23 94 l17 88 54
-67 c30 -36 56 -64 58 -62 6 5 -33 68 -81 132 l-38 51 15 53 c9 29 16 72 16
95 l0 43 38 -6 c20 -3 39 -8 42 -10 2 -2 7 -73 10 -158 3 -85 8 -157 11 -160
11 -10 18 220 9 260 -14 58 -13 61 20 75 34 14 102 88 94 102 -3 4 -2 17 1 29
6 18 14 12 68 -47 50 -54 62 -74 63 -102 1 -44 27 -65 72 -59 37 5 37 6 16
-35 -13 -25 -13 -35 -4 -59 11 -25 18 -29 49 -28 28 0 41 7 59 29 29 37 41 98
21 110 -9 6 -6 10 14 15 31 8 41 24 51 78 9 47 26 87 38 87 5 0 21 11 36 25
15 14 32 25 38 25 6 0 37 -23 69 -51 l58 -51 18 23 c11 15 14 26 7 30 -7 4 -5
10 5 15 13 7 14 20 8 74 -9 73 -6 90 16 90 16 0 15 -35 -2 -85 -7 -20 -6 -20
9 -1 9 11 16 30 16 42 0 13 5 26 10 29 6 3 10 -2 10 -12 0 -15 2 -15 15 4 8
11 26 23 40 25 22 5 27 1 32 -23 7 -36 23 -38 23 -3 0 21 3 24 13 15 13 -10
44 6 93 47 19 16 54 24 54 12 0 -6 -7 -13 -15 -16 -8 -4 -15 -11 -15 -16 0 -6
6 -6 14 1 9 7 17 8 20 2 3 -5 0 -12 -6 -15 -7 -4 1 -4 19 -1 18 2 35 0 38 -5
11 -17 25 -11 25 10 0 13 10 24 25 30 14 5 25 14 25 19 0 6 13 17 29 25 16 9
43 28 62 43 18 15 46 33 63 38 17 6 30 17 28 24 -2 9 4 12 16 9 11 -3 36 7 60
23 23 16 53 31 67 35 14 3 25 9 25 13 0 4 26 22 58 41 201 120 255 154 282
181 16 17 30 34 30 39 0 4 10 15 23 23 19 14 20 18 7 26 -9 6 -10 11 -3 11 12
0 93 78 93 90 0 3 10 17 22 30 13 14 18 25 11 27 -17 6 9 53 30 53 9 0 17 7
17 15 0 8 5 15 11 15 5 0 7 5 4 10 -5 8 -11 7 -21 -1 -8 -6 -17 -9 -21 -5 -3
3 -1 6 5 6 7 0 11 3 11 8 -4 21 2 42 12 42 5 0 8 -4 4 -9 -7 -12 25 -30 43
-24 6 3 12 11 12 18 0 7 14 16 31 20 18 4 35 16 41 30 6 13 26 31 44 40 18 9
54 40 80 70 56 64 79 77 72 40 -3 -14 1 -33 9 -42 13 -16 14 -15 8 11 -6 28
20 126 34 126 4 0 17 9 29 20 12 12 22 17 22 12 0 -5 -7 -15 -15 -22 -11 -9
-14 -29 -12 -71 2 -56 10 -73 20 -46 4 8 6 6 6 -4 1 -20 -34 -52 -51 -47 -7 3
-18 -8 -26 -25 -13 -31 -7 -52 7 -29 10 16 6 -76 -4 -100 -4 -10 0 -39 9 -65
9 -25 16 -58 16 -72 0 -20 2 -23 10 -11 5 8 11 12 14 9 9 -9 -17 -75 -40 -101
-32 -37 -37 -59 -18 -79 15 -17 15 -20 0 -43 -12 -20 -14 -31 -6 -52 6 -15 13
-24 16 -22 3 3 9 48 15 99 5 51 14 98 20 104 8 7 10 2 5 -20 -3 -16 -8 -63
-11 -102 -6 -87 -14 -125 -26 -117 -11 7 -49 -14 -49 -27 0 -6 5 -7 12 -3 8 5
9 2 5 -9 -3 -10 -2 -17 3 -17 5 0 9 -8 9 -17 0 -10 3 -31 6 -48 5 -29 5 -30
-6 -5 -10 21 -13 22 -16 7 -4 -14 -8 -16 -19 -6 -11 9 -14 8 -14 -4 0 -9 5
-19 10 -22 6 -3 10 -19 10 -35 0 -42 17 -45 24 -5 4 20 11 33 15 30 5 -3 11 2
15 10 6 17 15 19 36 5 12 -8 11 -12 -8 -30 -21 -20 -31 -47 -13 -36 5 4 11 1
13 -6 2 -6 14 5 27 25 12 20 25 37 27 37 3 0 2 -4 -1 -10 -13 -21 6 -9 42 27
30 30 38 35 41 21 2 -9 -2 -26 -8 -37 -6 -12 -8 -21 -6 -21 18 0 92 36 100 48
7 12 10 12 16 1 10 -15 50 -20 50 -6 0 6 17 7 40 3 37 -6 44 -3 78 29 l37 35
-35 -14 c-46 -18 -142 -27 -137 -12 9 28 81 52 167 55 10 1 15 11 15 31 0 34
-15 38 -55 15 -34 -20 -80 -19 -80 1 0 8 4 12 10 9 5 -3 19 -1 31 6 l22 11
-24 13 c-20 11 -30 11 -59 -2 -40 -18 -120 -33 -120 -23 0 6 51 31 90 44 8 2
-3 5 -24 5 -44 1 -106 20 -106 33 0 11 53 10 84 -2 32 -12 33 -4 4 27 -20 22
-21 23 -2 23 11 0 29 -15 41 -35 17 -25 34 -37 65 -45 24 -6 53 -15 66 -20 23
-10 23 -10 8 17 -8 16 -17 36 -20 46 -3 10 -15 17 -31 17 -15 0 -36 11 -50 26
-20 21 -22 30 -14 57 12 41 12 40 -6 33 -19 -7 -65 13 -65 30 0 9 10 10 38 4
34 -8 35 -7 18 6 -11 8 -31 14 -45 14 -14 0 -37 9 -50 19 -14 10 -30 17 -37
14 -8 -3 -10 4 -7 21 5 24 23 37 23 17 0 -10 50 -25 57 -17 3 2 -1 22 -8 43
-7 21 -12 46 -11 55 0 10 -9 24 -20 32 -13 10 -18 21 -14 32 11 27 53 -27 61
-78 11 -76 16 -98 24 -98 3 0 4 30 0 68 -3 38 -2 72 4 79 6 9 4 21 -7 38 -15
23 -15 25 4 35 31 17 24 35 -25 66 -35 22 -45 34 -44 53 l1 26 11 -28 c6 -15
16 -26 23 -23 6 2 16 1 20 -2 5 -4 1 0 -8 10 -10 9 -18 24 -18 35 1 16 3 16
19 -4 11 -13 27 -23 36 -23 24 0 14 34 -12 38 -21 3 -40 52 -20 52 6 0 3 8 -5
18 -17 19 -35 97 -20 88 5 -3 19 -33 31 -67 13 -33 32 -70 43 -81 l21 -21 -7
24 c-4 13 -14 51 -23 84 -8 33 -22 67 -29 76 -8 8 -14 24 -14 35 -1 26 -26 58
-39 49 -6 -3 -11 1 -11 9 0 24 34 19 61 -10 13 -14 32 -46 41 -72 l16 -47 1
38 c1 26 5 37 16 37 12 0 13 4 5 19 -16 31 -12 59 10 66 33 10 25 54 -16 96
-25 26 -35 43 -30 54 5 14 13 9 44 -29 42 -51 56 -44 23 14 -21 38 -18 59 6
39 10 -9 13 -8 13 5 0 10 6 24 14 32 13 12 19 9 47 -26 32 -40 49 -50 49 -29
0 13 -25 39 -39 39 -19 0 -21 18 -6 46 8 16 15 34 15 40 0 11 -54 65 -85 83
-18 11 -16 12 12 7 l32 -5 -14 34 c-8 19 -22 51 -30 70 -8 19 -11 35 -6 35 18
0 48 -50 55 -91 7 -45 15 -44 32 4 10 27 13 29 19 14 4 -10 1 -35 -8 -57 -16
-42 -6 -82 23 -88 17 -3 40 41 40 76 0 13 4 21 9 18 17 -11 18 -44 3 -77 -21
-46 -20 -53 3 -59 27 -8 25 -33 -3 -45 -21 -9 -39 -41 -29 -51 3 -3 22 2 43
11 30 12 39 13 47 3 5 -9 7 -4 3 14 -8 37 7 43 41 14 40 -34 64 -20 53 29 -9
40 6 48 20 11 7 -19 19 -26 55 -32 30 -4 51 -2 58 5 17 17 29 13 22 -9 -7 -23
10 -28 19 -5 8 21 33 19 39 -5 3 -10 0 -18 -5 -17 -6 1 -13 -4 -15 -11 -3 -8
1 -10 14 -5 16 6 16 5 4 -10 -12 -15 -11 -17 3 -17 9 0 16 5 16 10 0 22 44
-36 44 -58 1 -19 7 -25 27 -28 23 -2 26 1 21 19 -3 12 -18 37 -34 55 -15 18
-28 38 -27 45 0 7 6 3 12 -8 7 -11 24 -31 38 -45 15 -14 28 -34 30 -43 2 -10
9 -18 14 -18 14 0 45 -30 45 -43 0 -6 -5 -5 -12 2 -16 16 -28 15 -28 -3 0 -14
16 -20 52 -17 9 1 22 -5 28 -13 7 -9 8 -15 2 -15 -5 0 -12 -9 -15 -21 -4 -15
0 -23 14 -26 10 -3 19 -9 19 -14 0 -13 -27 -11 -50 3 -28 18 -34 5 -15 -32 10
-20 22 -30 31 -26 10 4 14 -3 14 -24 0 -17 5 -30 10 -30 6 0 10 9 10 21 0 11
4 17 10 14 5 -3 9 -21 7 -38 -2 -30 0 -32 31 -30 32 1 33 0 16 -18 -9 -10 -18
-34 -19 -53 -3 -27 1 -35 16 -39 22 -6 26 -27 6 -27 -14 0 -45 -28 -47 -43 0
-5 11 -18 25 -29 33 -26 45 -13 45 48 0 28 5 44 15 48 8 3 15 15 15 26 0 13 4
18 11 14 6 -3 9 -24 7 -45 -3 -36 -3 -37 15 -21 11 10 32 16 55 14 33 -2 34
-1 14 8 -13 6 -22 16 -19 22 2 7 -4 30 -15 51 -11 22 -17 41 -15 44 8 8 42
-31 45 -52 5 -29 12 -32 24 -12 7 14 13 15 23 7 9 -8 15 -8 20 0 3 5 0 10 -7
10 -10 1 -9 4 2 13 10 8 14 25 12 50 -2 22 1 37 8 37 6 0 10 -6 9 -12 -3 -27
2 -45 16 -64 15 -18 16 -18 14 6 -2 47 1 70 11 70 6 0 10 -7 10 -16 0 -8 4
-13 8 -10 10 6 8 44 -2 69 -7 13 -11 15 -22 6 -8 -6 -22 -8 -31 -4 -16 6 -15
8 7 17 l25 9 -24 18 c-18 14 -20 19 -9 24 8 3 21 1 29 -4 34 -21 52 -3 24 25
-22 21 -18 27 10 16 21 -8 25 -7 25 8 0 25 -16 46 -30 37 -8 -5 -7 0 2 14 17
28 23 27 38 -9 7 -17 25 -37 41 -45 15 -8 30 -23 32 -32 3 -12 5 -9 6 8 1 15
-9 35 -24 49 -14 13 -25 31 -25 39 1 10 12 2 33 -22 18 -20 41 -37 52 -37 17
0 17 2 5 10 -13 9 -13 11 0 20 13 9 13 12 -2 21 -10 5 -18 20 -18 32 l0 21 16
-22 c23 -33 37 -28 29 11 l-7 32 25 -29 c18 -23 28 -27 43 -21 37 16 64 17 58
1 -3 -8 -1 -17 5 -21 6 -3 11 -1 11 4 0 26 15 8 17 -20 1 -17 10 -37 20 -45
16 -12 16 -13 2 -14 -17 0 -34 26 -30 48 1 6 -3 12 -9 12 -15 0 -12 -32 5 -54
8 -10 12 -23 9 -28 -3 -5 0 -15 6 -23 7 -8 8 -15 3 -15 -12 0 -53 98 -53 127
0 11 -8 24 -17 28 -15 5 -16 4 -5 -6 14 -15 16 -33 2 -24 -12 7 -13 -7 -2 -20
5 -6 15 -26 22 -45 17 -46 39 -70 62 -70 14 0 18 8 18 31 0 26 2 29 14 20 11
-10 17 -8 25 6 6 10 11 14 11 9 0 -5 -7 -17 -15 -26 -13 -14 -14 -26 -7 -61
29 -136 -5 -375 -72 -504 -13 -26 -59 -79 -96 -110 -52 -44 -118 -136 -164
-230 -52 -104 -55 -115 -61 -205 -7 -126 13 -382 32 -393 8 -5 11 -16 8 -27
-18 -57 74 -437 171 -706 83 -231 81 -225 87 -269 l6 -40 -13 35 -13 35 -7
-40 c-4 -26 1 -69 14 -125 12 -47 25 -112 31 -144 5 -33 18 -98 29 -145 11
-47 31 -156 46 -241 29 -172 59 -299 74 -314 7 -7 10 -6 10 2 0 24 16 11 40
-32 20 -38 27 -43 42 -35 17 9 16 12 -11 40 -25 24 -44 65 -56 119 0 3 -9 20
-19 38 -16 31 -16 35 -1 52 13 15 21 16 49 6 19 -6 40 -16 47 -22 8 -5 26 -11
41 -12 19 -3 28 2 33 18 4 13 12 19 21 16 8 -3 14 -1 14 4 0 5 12 15 28 22 17
8 28 22 30 38 2 14 8 35 14 47 8 17 5 35 -16 90 -33 87 -33 114 0 45 14 -29
30 -50 35 -47 10 7 -56 145 -69 145 -19 0 -101 170 -116 241 -9 41 -24 103
-32 139 -15 66 -17 128 -15 710 1 118 -5 276 -12 350 -15 145 -7 198 11 78 17
-111 30 -394 31 -678 1 -294 11 -387 50 -508 27 -81 29 -84 30 -47 3 73 4 80
14 93 6 8 5 12 -4 12 -10 0 -10 3 -1 12 15 15 16 32 2 23 -5 -3 -10 -4 -10 0
0 3 10 10 23 15 22 9 22 9 -3 10 l-25 2 25 8 c16 5 19 8 8 9 -21 1 -38 53 -20
59 7 2 12 13 12 23 0 11 -5 17 -10 14 -17 -11 -11 21 8 41 15 16 16 23 6 42
-13 27 -7 102 10 115 8 6 8 10 -1 13 -11 5 -11 23 3 91 2 12 14 31 25 42 22
20 17 46 -6 37 -11 -4 -13 8 -9 57 3 34 9 63 13 65 4 1 7 29 5 62 -1 36 3 66
11 76 9 13 10 23 3 34 -11 18 -1 190 10 190 4 0 8 87 9 193 1 105 7 223 13
262 10 61 9 71 -5 81 -14 11 -14 13 -2 21 11 6 19 42 27 128 7 66 16 124 21
130 5 5 9 17 9 27 0 10 5 18 11 18 5 0 7 5 4 10 -3 6 -2 10 4 10 6 0 8 6 5 13
-2 7 2 33 9 58 12 38 12 51 2 70 -16 29 -50 131 -74 219 -10 36 -30 97 -44
136 -14 39 -35 111 -47 160 -12 49 -26 104 -30 121 -5 19 -4 31 1 27 14 -8 11
11 -12 78 -22 66 -40 143 -40 171 0 9 -4 17 -10 17 -5 0 -9 9 -9 20 0 12 -5
17 -14 14 -22 -8 -45 76 -56 206 -5 63 -10 129 -10 145 0 17 -6 39 -14 50 -13
18 -14 18 -8 -10 5 -28 4 -29 -13 -15 -17 14 -17 13 -10 -10 6 -20 5 -23 -6
-12 -16 15 -131 16 -145 2 -22 -22 -138 35 -213 104 l-45 41 42 -49 c23 -27
60 -62 82 -78 22 -17 40 -36 40 -44 0 -8 17 -38 38 -67 42 -57 65 -98 77 -137
4 -14 -11 2 -33 35 -22 33 -56 75 -77 92 -22 20 -34 37 -29 44 4 7 3 9 -4 5
-6 -3 -27 10 -47 30 -20 20 -38 34 -40 32 -1 -1 10 -43 26 -92 16 -50 27 -91
25 -93 -1 -2 -17 36 -35 85 -19 48 -38 92 -43 97 -10 10 -9 4 8 -70 4 -20 -18
22 -32 60 -6 17 -9 15 -14 -15 -7 -33 -7 -32 -9 15 -2 59 -10 97 -21 90 -4 -2
-5 -21 -3 -41 4 -39 -7 -54 -40 -54 -14 0 -16 4 -8 18 17 33 21 106 7 137
l-13 30 -8 -37 c-5 -29 -12 -38 -27 -38 -13 0 -18 5 -15 14 7 18 -11 36 -29
29 -11 -4 -14 2 -12 25 1 16 -3 36 -9 44 -19 23 -23 88 -8 126 8 21 19 63 24
96 6 32 25 83 42 113 17 30 28 57 24 61 -4 4 -10 1 -12 -6 -3 -6 -9 -10 -14
-6 -5 3 -9 -2 -9 -10 0 -17 -42 -32 -59 -21 -6 3 -11 14 -11 24 0 27 -10 31
-44 18 -41 -16 -100 -11 -92 9 3 9 -1 14 -13 14 -14 0 -22 12 -30 44 -16 66
-15 97 5 89 15 -5 15 -3 -1 20 -9 15 -21 27 -25 27 -5 0 -12 10 -16 23 -4 12
-11 25 -16 28 -6 4 -5 14 3 27 14 22 59 35 94 26 12 -3 26 -1 30 6 5 8 10 8
21 0 7 -7 19 -10 26 -8 7 3 19 -2 27 -9 10 -11 16 -11 21 -3 7 11 50 11 60 0
13 -15 78 -26 100 -18 32 12 111 19 132 12 10 -3 18 -12 18 -19 0 -9 6 -12 17
-8 10 4 14 2 10 -4 -4 -6 3 -14 16 -17 21 -7 21 -7 2 -16 -17 -7 -17 -9 -3 -9
9 -1 25 10 35 23 l18 23 30 -22 c31 -24 47 -28 105 -26 27 1 31 4 20 11 -13 8
-13 10 2 10 9 0 19 6 21 13 3 7 6 5 6 -5 1 -23 41 -24 41 -2 0 10 6 14 14 11
8 -3 51 7 97 23 61 22 92 28 123 24 l41 -6 3 -51 c2 -61 10 -87 24 -87 5 0 12
9 15 20 3 11 10 20 15 20 5 0 6 5 3 10 -3 6 -2 10 4 10 6 0 7 8 4 18 -7 18
173 -143 181 -162 3 -7 5 -6 5 2 1 18 59 15 123 -6 55 -18 56 -18 84 2 53 37
59 54 56 141 -4 82 13 158 52 234 13 25 166 447 166 458 0 2 -4 3 -10 3 -5 0
-10 -7 -10 -16 0 -8 -4 -12 -10 -9 -5 3 -10 0 -10 -8 0 -14 -49 -43 -80 -47
-32 -5 -50 1 -50 15 0 18 -20 20 -20 3 -1 -7 -7 -2 -14 11 -8 14 -15 19 -17
12 -8 -24 -54 11 -54 42 1 15 -3 27 -8 27 -4 0 -5 9 -2 21 6 18 4 20 -14 14
-14 -4 -23 -1 -27 8 -3 8 -14 17 -25 20 -10 3 -19 10 -19 15 0 6 9 8 20 5 11
-3 20 -1 21 3 0 5 3 20 5 34 7 34 -5 78 -15 61 -7 -10 -10 -10 -16 -1 -4 7 -1
16 6 21 11 7 11 9 1 9 -7 0 -11 4 -7 10 3 5 12 7 20 3 19 -7 8 27 -13 43 -8 6
-12 16 -8 22 3 6 1 14 -5 18 -7 4 -9 3 -5 -4 3 -6 2 -13 -4 -17 -11 -7 -13 9
-4 42 5 18 10 20 23 13 11 -5 23 -5 32 2 11 8 11 9 -3 4 -10 -3 -18 -1 -18 5
0 6 -7 18 -16 26 -11 12 -12 18 -4 23 7 4 11 13 8 21 -2 7 -12 -4 -21 -24 -10
-19 -23 -38 -30 -40 -9 -4 -9 -6 1 -6 7 -1 11 -5 7 -11 -7 -11 -51 31 -47 44
7 20 -10 67 -22 63 -9 -4 -11 3 -8 20 3 16 -1 31 -9 37 -14 11 -18 25 -21 79
-1 24 -3 26 -10 12 -5 -9 -7 -23 -4 -30 4 -12 2 -13 -13 -3 -15 9 -18 19 -14
47 7 46 10 49 27 25 13 -17 14 -17 9 9 -3 15 -9 25 -13 22 -5 -3 -11 4 -15 15
-11 34 -25 22 -25 -22 0 -61 -16 -82 -28 -37 -10 37 -5 62 10 53 10 -6 4 68
-8 99 -9 24 -30 21 -39 -5 -4 -14 -8 -18 -12 -10 -2 6 -9 12 -15 12 -13 0 -54
32 -57 45 -1 6 -8 16 -14 24 -10 11 -8 13 13 6 17 -5 11 2 -17 21 -24 16 -43
33 -43 39 0 7 -11 22 -25 35 -14 13 -25 30 -25 39 0 12 3 12 12 3 7 -7 21 -12
31 -12 18 0 17 3 -7 25 -15 14 -32 22 -38 19 -7 -5 -9 1 -5 17 9 34 -5 55 -22
35z m82 -786 c39 -31 50 -76 37 -157 -6 -37 -23 -94 -36 -126 -14 -32 -24 -63
-21 -70 6 -18 32 40 49 108 9 33 23 77 32 99 14 34 14 42 2 67 -16 31 -7 39
15 13 7 -8 25 -22 41 -30 18 -9 26 -20 22 -27 -4 -7 -3 -9 1 -4 5 4 19 -3 32
-15 13 -12 23 -18 23 -14 0 4 6 1 13 -6 7 -7 13 -23 13 -35 0 -25 -11 -30 -20
-10 -5 10 -7 10 -12 0 -8 -19 -24 -16 -24 4 0 15 -2 14 -19 -3 -10 -10 -17
-21 -15 -23 2 -2 -3 -13 -11 -25 -17 -23 -20 -71 -5 -61 6 3 10 -3 10 -14 0
-25 -20 -39 -21 -14 0 14 -2 13 -10 -5 -5 -13 -7 -28 -4 -32 3 -4 -4 -6 -15
-3 -25 7 -26 -12 -2 -26 23 -14 6 -14 -19 -1 -12 7 -19 7 -19 1 0 -6 9 -15 21
-21 26 -14 21 -21 -9 -13 -12 3 -22 12 -22 20 0 10 -5 13 -17 8 -32 -13 -48
-10 -47 8 2 14 -1 15 -12 7 -7 -7 -21 -10 -31 -8 -16 3 -16 5 3 23 43 43 48
54 33 72 -11 13 -11 17 -1 20 14 5 16 35 3 49 -10 11 -2 74 9 74 12 0 23 -38
15 -50 -3 -5 -2 -10 3 -10 14 0 32 57 32 101 0 41 -17 95 -27 86 -3 -4 -14 -2
-25 4 -14 7 -23 7 -34 -1 -8 -8 -27 -10 -49 -6 -33 7 -35 6 -35 -22 0 -16 12
-46 26 -67 18 -28 21 -36 9 -31 -48 18 -89 -34 -78 -101 l5 -28 -22 33 c-12
17 -26 32 -32 32 -5 0 -6 5 -2 11 4 8 9 7 15 -2 15 -24 10 -3 -12 46 -18 40
-19 51 -9 76 7 15 19 34 27 41 14 11 15 8 8 -22 l-7 -35 26 30 c14 17 28 37
31 46 7 21 79 52 131 58 6 0 23 -8 37 -19z m-1378 -612 c-7 -25 -14 -68 -16
-94 -6 -144 -6 -144 49 -256 47 -97 64 -143 45 -124 -4 4 -13 -19 -19 -51 -17
-80 -16 -94 4 -55 10 18 21 30 24 27 3 -3 5 25 3 63 -3 59 -9 80 -44 144 -45
82 -55 116 -15 53 109 -174 119 -243 43 -329 -27 -32 -31 -42 -26 -77 5 -36 4
-38 -9 -22 -7 10 -14 24 -14 31 0 6 -4 12 -10 12 -18 0 -10 -56 13 -87 l22
-30 38 32 c41 35 43 43 57 170 7 68 7 69 10 20 5 -86 -2 -148 -16 -163 -17
-17 -37 -52 -29 -52 3 0 18 8 33 17 l27 17 -24 -27 -24 -27 31 -44 c37 -52 38
-60 13 -118 -13 -30 -15 -48 -8 -59 7 -11 4 -28 -10 -60 -26 -59 -116 -185
-121 -171 -2 7 12 34 31 61 40 55 70 111 64 117 -2 2 -15 -13 -28 -33 -15 -24
-44 -47 -79 -65 -57 -29 -108 -39 -55 -11 17 8 39 23 50 33 11 10 32 30 47 43
40 37 46 72 17 97 -29 24 -39 25 -39 4 0 -9 -9 -27 -20 -41 -13 -17 -20 -21
-20 -11 0 9 7 21 15 28 8 7 15 21 15 32 0 27 -19 60 -30 53 -6 -3 -7 0 -4 8 3
8 -2 17 -10 20 -8 3 -20 16 -27 29 l-12 23 24 -20 c13 -11 29 -27 36 -35 11
-13 13 -9 11 20 -1 19 6 49 15 67 21 39 21 35 -3 63 -11 13 -23 35 -27 48 -5
22 -1 41 33 151 8 25 14 71 14 103 0 49 -7 70 -45 143 -36 67 -47 100 -52 151
-3 35 -10 67 -14 70 -5 3 -9 10 -9 17 0 8 3 8 12 -1 9 -9 15 -3 25 26 7 20 10
45 7 55 -3 9 -1 17 4 17 5 0 15 11 22 25 19 36 21 26 5 -27z m-108 -974 c-2
-40 -10 -80 -17 -89 -7 -8 -9 -19 -5 -23 4 -4 10 -1 12 6 3 6 9 9 14 6 16 -10
-73 -63 -117 -70 -91 -13 -194 83 -150 141 15 19 15 18 16 -22 0 -39 2 -43 26
-43 14 0 23 -4 19 -9 -8 -13 24 -18 68 -10 68 12 123 83 114 149 -3 28 -1 37
10 37 11 0 13 -14 10 -73z"/>
<path d="M2695 7014 c-63 -69 -79 -97 -71 -126 2 -10 0 -21 -5 -24 -16 -10
-11 -64 7 -64 11 0 14 -5 9 -17 -4 -10 -10 -26 -13 -37 -4 -16 -2 -17 17 -6
30 16 37 6 24 -33 -6 -17 -14 -45 -18 -62 -3 -16 -28 -68 -54 -114 -50 -86
-54 -111 -19 -111 11 0 22 -8 25 -20 3 -11 11 -20 18 -20 7 0 15 -7 18 -14 3
-8 22 -18 41 -22 44 -8 48 -34 11 -58 -25 -17 -30 -44 -10 -58 6 -4 43 -8 82
-8 l73 0 20 39 c11 22 24 42 30 46 5 3 10 23 10 44 0 20 5 42 11 48 6 6 13 46
16 90 5 86 14 106 35 74 24 -38 29 -22 6 22 -17 33 -23 63 -25 137 l-3 95 -40
34 c-39 32 -80 96 -80 124 0 7 -12 24 -26 38 -17 16 -24 31 -21 46 2 13 1 23
-2 23 -3 0 -33 -30 -66 -66z"/>
<path d="M3297 7004 c-32 -10 -12 -29 49 -47 95 -30 130 -47 114 -57 -16 -10
-14 -11 55 -29 34 -9 42 -8 53 6 6 9 12 22 12 28 0 19 -31 56 -42 49 -5 -3
-31 6 -58 20 -47 26 -143 41 -183 30z"/>
<path d="M10763 6720 c-13 -5 -23 -16 -23 -24 0 -8 -10 -31 -21 -51 -26 -43
-16 -61 25 -45 44 16 73 12 94 -15 11 -14 25 -25 30 -25 19 0 42 44 42 81 0
64 -79 106 -147 79z"/>
<path d="M10892 6428 c-5 -7 -15 -30 -20 -51 -9 -31 -8 -39 4 -44 10 -4 2 -11
-25 -24 -28 -12 -41 -24 -41 -38 0 -11 3 -22 8 -25 8 -5 223 22 231 29 14 14
-33 38 -80 42 -29 2 -55 6 -58 9 -8 8 22 24 47 24 29 0 28 14 -5 56 -30 36
-44 42 -61 22z"/>
<path d="M11402 6035 l-2 -84 57 -17 c32 -9 84 -25 116 -35 31 -11 64 -19 72
-19 8 0 53 -20 101 -43 80 -41 89 -43 125 -33 51 13 60 4 90 -104 18 -66 38
-107 93 -190 38 -58 89 -129 114 -159 58 -73 91 -139 108 -223 8 -38 31 -102
51 -141 31 -63 70 -165 158 -417 41 -117 95 -254 114 -290 10 -19 24 -52 31
-72 6 -21 15 -38 18 -38 14 0 34 43 58 128 24 82 25 93 15 191 -8 91 -14 110
-44 160 -19 31 -45 76 -57 100 -20 41 -60 84 -69 76 -1 -2 9 -20 24 -39 58
-76 -16 -60 -90 20 -35 37 -39 45 -28 60 11 15 10 21 -7 39 -21 22 -26 45 -11
45 15 0 106 -42 124 -58 27 -24 20 1 -13 47 -45 61 -102 116 -167 158 -59 39
-96 72 -90 82 1 3 9 18 16 33 20 39 38 42 87 14 24 -14 44 -21 44 -18 0 4 -12
24 -26 45 -18 28 -30 37 -42 32 -30 -11 -36 -10 -40 8 -2 11 3 17 13 17 28 0
15 53 -17 68 -38 18 -68 60 -68 96 0 17 -7 40 -15 50 -8 11 -15 32 -15 47 0
21 -8 30 -34 43 -41 19 -41 21 -41 119 l0 79 -42 -5 c-31 -3 -53 1 -80 16 -21
11 -78 33 -128 48 -49 15 -117 39 -150 52 -72 30 -141 45 -131 28 10 -15 -9
-14 -26 2 -7 7 -28 23 -46 36 -29 20 -37 22 -59 12 -32 -14 -36 -10 -58 56 -9
29 -20 55 -23 57 -4 2 -8 -33 -10 -79z"/>
<path d="M7946 5997 c-11 -7 -32 -25 -49 -42 l-29 -30 21 29 c28 39 26 52 -4
28 -15 -12 -34 -18 -45 -15 -11 3 -20 0 -20 -6 0 -5 6 -8 14 -5 36 14 19 -17
-35 -66 -55 -49 -99 -104 -70 -86 6 4 11 2 11 -4 0 -6 -7 -13 -15 -16 -20 -8
-20 -60 0 -68 11 -4 30 14 61 57 26 34 49 68 51 74 3 7 9 10 15 7 5 -3 18 2
29 12 20 18 27 40 8 28 -19 -12 7 29 36 56 23 21 52 61 43 59 -2 0 -12 -6 -22
-12z"/>
<path d="M11118 5670 c-8 -19 -23 -59 -32 -88 -10 -29 -23 -58 -30 -65 -7 -7
-11 -17 -9 -24 2 -6 -1 -14 -6 -18 -6 -3 -11 -1 -11 4 0 6 -10 11 -21 11 -17
0 -19 -3 -10 -13 6 -8 9 -16 6 -18 -6 -7 -152 -2 -164 6 -6 3 -14 -1 -17 -9
-4 -9 -18 -16 -33 -16 -58 0 -102 -64 -82 -120 9 -28 9 -31 -8 -25 -11 3 -23
0 -27 -6 -4 -8 -3 -9 4 -5 7 4 12 3 12 -1 0 -5 10 -9 21 -10 27 -2 51 -23 26
-23 -9 0 -21 -9 -27 -21 -14 -25 -5 -69 14 -69 7 0 20 -8 27 -17 10 -11 10
-14 2 -9 -9 5 -13 -1 -13 -19 0 -16 -4 -24 -11 -20 -6 4 -8 14 -5 22 3 8 -3
26 -14 40 -11 14 -20 35 -20 47 0 12 -6 28 -12 36 -11 12 -10 12 3 2 14 -10
18 -10 22 2 4 10 -3 17 -24 21 -17 4 -33 4 -36 1 -4 -3 -1 -6 7 -6 10 0 10 -3
0 -15 -10 -12 -10 -15 1 -16 8 0 5 -4 -6 -9 -31 -13 -45 -12 -39 5 4 8 2 15
-3 15 -5 0 -14 -13 -20 -30 -10 -27 -9 -30 8 -30 10 0 19 -4 19 -10 0 -5 7
-10 15 -10 8 0 15 -4 15 -10 0 -15 -36 -12 -50 5 -7 8 -16 12 -21 9 -14 -8
-11 -24 5 -24 19 0 31 -39 17 -53 -6 -6 -11 -15 -11 -19 0 -12 58 -10 62 2 2
7 11 5 23 -5 14 -11 15 -13 4 -9 -10 3 -20 1 -24 -5 -3 -6 -3 -11 2 -12 4 0
19 -2 33 -4 31 -3 46 5 29 16 -10 6 -8 8 6 7 11 0 28 3 38 7 16 7 18 4 12 -28
-6 -32 -5 -35 13 -30 11 2 23 -1 28 -8 5 -9 12 10 20 51 6 36 8 67 4 70 -16
10 -22 79 -10 133 9 45 16 57 38 66 15 6 36 25 47 41 33 49 97 88 157 94 66 7
95 -5 141 -62 46 -55 61 -102 53 -167 -5 -42 -3 -54 9 -59 8 -3 15 -13 15 -21
0 -9 4 -14 9 -11 10 6 41 -53 41 -78 0 -45 -55 -96 -104 -96 -9 0 -16 -7 -16
-15 0 -9 -8 -32 -17 -53 -20 -45 -24 -70 -10 -79 6 -3 7 -1 3 5 -5 9 5 10 37
6 51 -7 93 10 147 62 32 30 38 33 55 21 14 -11 15 -16 5 -22 -9 -5 -11 -4 -6
3 4 7 2 12 -3 12 -16 0 -14 -4 20 -76 28 -57 32 -77 35 -167 2 -56 6 -118 9
-137 3 -19 5 -44 6 -54 0 -11 18 -37 40 -58 25 -24 39 -45 35 -53 -3 -8 -1
-15 4 -15 6 0 10 -9 10 -20 0 -11 5 -20 12 -20 6 0 3 -6 -7 -14 -11 -8 -23
-12 -27 -10 -4 2 -9 0 -13 -6 -4 -6 -11 -8 -16 -5 -5 4 -9 1 -9 -4 0 -6 4 -11
8 -11 13 0 10 -30 -2 -31 -6 0 -1 -4 12 -10 13 -5 21 -13 18 -17 -3 -5 4 -18
14 -30 11 -12 20 -26 20 -33 0 -6 9 -9 20 -6 13 3 24 -1 30 -14 13 -23 42 -26
34 -4 -5 12 3 15 35 15 37 0 41 2 41 25 0 13 -30 77 -67 142 -54 93 -82 159
-132 310 -63 190 -64 192 -53 249 13 63 8 79 -15 49 -15 -19 -15 -19 -9 10 4
17 13 36 21 44 9 10 10 22 4 45 -5 17 -12 64 -14 105 -3 50 -10 80 -21 93 -10
10 -15 20 -12 23 3 3 13 -4 23 -15 22 -24 35 -26 35 -5 0 8 5 15 10 15 19 0
10 29 -20 63 -29 34 -29 34 -10 52 25 23 25 35 0 35 -12 0 -22 9 -26 24 -4 16
-11 23 -20 19 -11 -4 -14 8 -14 56 0 57 2 62 26 71 15 6 24 16 21 24 -4 9 2
12 20 8 19 -4 24 -1 21 9 -3 8 -13 12 -23 11 -11 -2 -26 6 -36 20 -15 18 -22
21 -36 12 -10 -6 -22 -20 -28 -32 -13 -28 -55 -31 -48 -3 5 20 -19 75 -38 87
-28 17 -39 -62 -15 -108 13 -24 13 -28 0 -28 -8 0 -14 5 -14 10 0 15 -23 7
-38 -12 -14 -19 -38 -25 -26 -7 5 8 1 8 -13 0 -11 -6 -23 -7 -27 -4 -3 3 -6 1
-6 -5 0 -7 4 -12 10 -12 5 0 7 -7 3 -16 -6 -16 -7 -16 -18 0 -11 15 -15 15
-50 0 -20 -8 -39 -13 -42 -11 -2 3 12 48 32 101 20 54 35 105 32 114 -2 12 -8
7 -19 -18z"/>
<path d="M2550 5399 c-7 -12 -18 -18 -26 -15 -8 3 -12 2 -9 -4 3 -5 -4 -91
-15 -192 -24 -206 -25 -291 -11 -738 7 -199 7 -330 1 -355 -5 -22 -9 -74 -9
-115 1 -67 2 -71 10 -35 4 22 11 57 14 78 5 32 9 37 33 37 15 0 38 -7 50 -16
l23 -15 -29 -37 c-16 -20 -37 -52 -46 -69 -9 -18 -23 -33 -30 -33 -10 0 -14
-36 -18 -163 -4 -141 -8 -168 -27 -205 -19 -37 -25 -41 -46 -36 -35 9 -55 -12
-55 -56 0 -24 -7 -43 -20 -55 -18 -17 -21 -17 -45 -1 -33 22 -32 4 3 -53 1 -3
8 3 15 12 10 14 17 15 49 5 32 -10 41 -9 56 5 24 22 39 21 47 -2 4 -14 12 -17
28 -13 41 10 68 33 62 53 -8 24 0 24 42 -2 19 -12 37 -19 40 -15 4 3 2 6 -4 6
-6 0 -6 17 1 50 7 38 7 59 -3 86 -11 30 -11 58 -2 148 17 162 29 212 63 267
17 27 29 52 25 55 -3 3 -13 -8 -21 -24 -9 -17 -19 -32 -23 -34 -5 -1 -16 -16
-25 -33 -23 -41 -42 -46 -35 -9 13 74 44 144 62 144 7 0 20 9 30 20 53 58 97
69 295 71 30 1 60 5 65 10 6 4 20 8 30 8 11 1 37 4 59 7 l38 6 -6 52 c-3 28
-9 70 -12 94 -4 26 -2 48 5 56 9 11 6 20 -11 42 -47 59 -67 92 -78 132 -8 24
-20 42 -31 45 -25 7 -27 2 -25 -69 2 -51 6 -65 29 -90 46 -49 97 -157 97 -204
0 -49 -21 -51 -31 -4 -3 16 -10 38 -16 48 -8 15 -11 9 -15 -34 -5 -46 -18 -69
-40 -70 -4 0 -10 21 -13 48 -13 105 -32 143 -110 227 -41 44 -79 92 -86 108
-6 15 -15 27 -20 27 -5 0 -9 5 -9 12 0 6 -7 19 -16 29 -8 9 -19 45 -24 79 -10
71 -31 95 -132 150 -43 23 -57 36 -55 50 4 22 36 49 90 74 22 10 35 22 31 28
-4 6 -3 8 4 4 6 -3 13 -2 17 4 3 5 11 10 17 10 7 0 6 -6 -2 -15 -10 -12 -10
-15 3 -15 8 0 24 -3 34 -6 13 -4 14 -3 5 3 -7 6 -12 14 -11 19 4 15 -20 64
-31 64 -6 0 -16 12 -23 27 -6 15 -26 41 -44 58 -26 25 -30 34 -23 53 9 22 50
32 50 12 0 -5 8 -10 17 -10 13 0 14 3 5 12 -7 7 -12 20 -12 30 0 12 -10 20
-30 24 -16 4 -32 15 -35 25 -4 10 -13 25 -20 33 -12 11 -12 21 1 61 8 27 13
50 11 51 -2 2 -20 -19 -41 -46 -21 -28 -40 -50 -43 -50 -3 0 -3 23 1 50 7 54
3 62 -14 29z m165 -866 c26 -49 90 -148 128 -196 16 -21 30 -51 32 -67 1 -16
9 -40 18 -54 20 -30 21 -46 4 -70 -12 -16 -14 -16 -27 8 -7 14 -17 26 -22 26
-4 0 -8 9 -8 19 0 11 -4 22 -10 26 -5 3 -7 12 -4 19 5 14 -90 221 -106 231 -5
3 -12 20 -15 38 -4 17 -12 38 -17 45 -6 6 -6 12 -1 12 4 0 17 -17 28 -37z"/>
<path d="M7870 5329 c-25 -10 -65 -65 -107 -148 -27 -52 -29 -76 -8 -67 12 4
12 0 -2 -21 -10 -15 -17 -35 -15 -44 2 -10 -4 -32 -13 -49 -9 -18 -15 -34 -12
-36 8 -8 124 111 132 135 5 18 9 20 16 10 14 -23 21 -2 24 71 3 73 -4 90 -25
65 -8 -10 -9 -15 -1 -15 7 0 8 -8 0 -26 -5 -15 -7 -29 -5 -32 5 -5 -37 -42
-48 -42 -3 0 -2 7 1 17 5 12 3 14 -7 8 -8 -5 -5 7 8 29 12 20 22 46 22 56 0
12 10 21 29 25 21 4 33 15 40 37 16 44 16 44 -29 27z"/>
<path d="M9755 5082 c3 -8 8 -42 10 -76 3 -33 8 -72 11 -86 11 -48 13 -79 5
-84 -5 -3 -7 -16 -6 -29 4 -31 34 -119 47 -134 5 -7 7 -17 3 -23 -3 -5 -1 -10
4 -10 6 0 11 -9 11 -20 0 -11 4 -28 9 -38 35 -70 52 -97 61 -94 5 1 11 -4 11
-10 2 -21 5 -32 13 -53 14 -39 59 -120 77 -140 9 -11 21 -32 24 -47 4 -16 11
-28 15 -28 4 0 10 -8 14 -17 3 -10 11 -26 18 -35 10 -14 10 -22 0 -38 -13 -22
-3 -27 16 -8 9 9 12 8 13 -5 1 -9 2 -23 3 -29 1 -7 -3 -17 -9 -21 -5 -5 1 -5
15 -1 14 3 22 3 18 -1 -4 -4 2 -19 12 -33 21 -25 26 -80 12 -110 -5 -9 -6 -30
-2 -47 5 -25 8 -19 14 35 4 36 11 89 17 119 5 30 9 83 9 118 0 51 -4 67 -21
84 -12 12 -28 43 -36 68 -20 66 -69 289 -89 406 -9 55 -20 104 -24 108 -4 5
-6 -4 -4 -20 2 -15 1 -21 -2 -11 -3 9 -12 19 -21 22 -13 5 -14 1 -9 -25 3 -17
6 -45 6 -61 0 -16 3 -27 8 -25 4 3 8 -24 9 -59 1 -35 0 -64 -2 -64 -19 0 -75
206 -110 399 -25 144 -23 140 -95 139 -48 -1 -60 -5 -55 -16z"/>
<path d="M14961 4505 c-18 -8 -46 -15 -62 -15 -22 0 -32 -7 -44 -30 -17 -33
-33 -39 -115 -42 -50 -3 -55 -5 -58 -28 -4 -25 -38 -70 -54 -70 -5 0 -27 -12
-49 -26 -35 -22 -40 -30 -36 -52 3 -15 16 -83 30 -152 14 -69 30 -168 37 -220
6 -52 18 -108 26 -124 7 -16 14 -54 14 -85 0 -44 7 -67 30 -106 34 -58 36 -79
14 -150 l-17 -51 38 -49 c20 -27 42 -61 47 -75 18 -44 36 -191 31 -244 -7 -64
16 -126 46 -126 26 0 33 13 34 65 1 65 43 145 89 170 l38 20 0 703 c0 386 -1
702 -2 702 -2 -1 -18 -7 -37 -15z"/>
<path d="M10788 4236 c-15 -8 -28 -12 -31 -10 -2 2 -4 -2 -5 -8 -1 -7 -4 -24
-7 -38 -10 -39 27 -80 71 -80 24 0 34 4 34 16 0 9 9 18 20 21 27 7 26 52 -1
87 -23 29 -42 32 -81 12z"/>
<path d="M10497 4083 c-14 -32 -35 -80 -45 -108 -33 -82 -176 -387 -226 -480
-25 -48 -46 -97 -46 -108 0 -21 0 -21 20 1 12 12 25 22 31 22 6 0 9 8 7 18 -2
9 3 22 10 28 8 6 15 23 15 38 0 15 6 30 13 33 8 3 14 11 14 19 0 8 4 14 8 14
13 0 64 119 56 132 -4 7 -3 8 4 4 7 -4 14 4 17 21 4 15 10 35 16 43 10 16 87
176 109 225 7 17 15 48 16 70 2 22 6 50 9 63 9 37 -1 25 -28 -35z"/>
<path d="M9847 3985 c-4 -8 -3 -14 1 -14 19 3 23 -2 13 -15 -10 -12 -6 -17 23
-27 20 -7 36 -17 36 -22 0 -4 5 -5 10 -2 7 4 9 -2 5 -18 -5 -18 -2 -26 11 -31
9 -4 19 -4 22 -1 3 3 0 5 -6 5 -7 0 -12 7 -12 16 0 13 3 14 14 5 15 -13 27
-81 14 -81 -4 0 -8 10 -8 23 -1 21 -1 22 -15 3 -14 -18 -13 -21 15 -33 17 -6
38 -9 47 -6 12 5 14 3 8 -7 -6 -10 -4 -12 10 -6 15 5 16 4 6 -8 -9 -11 -9 -15
1 -19 10 -4 10 -8 -2 -17 -12 -9 -8 -11 18 -7 24 3 32 0 28 -10 -3 -7 -1 -13
5 -13 6 0 7 -5 4 -11 -4 -6 2 -13 14 -16 16 -4 21 -14 22 -42 1 -36 1 -36 9
-7 5 15 12 51 15 80 7 52 6 53 -32 81 -21 16 -78 64 -128 106 -121 102 -141
114 -148 94z"/>
<path d="M12291 3845 c-48 -8 -77 -18 -83 -29 -5 -9 -17 -16 -26 -16 -21 0
-155 -42 -162 -51 -3 -3 -12 -9 -20 -12 -8 -3 17 -4 55 -2 83 4 159 26 235 67
30 17 73 36 95 43 37 12 38 13 10 13 -16 0 -63 -6 -104 -13z"/>
<path d="M2747 3742 c-15 -54 -58 -281 -72 -384 -6 -42 -10 -47 -29 -42 -11 2
-30 -2 -41 -10 -20 -14 -19 -15 8 -25 58 -22 82 -13 114 46 10 17 9 24 -1 32
-13 11 -2 144 29 340 9 52 14 95 12 97 -2 2 -11 -22 -20 -54z"/>
<path d="M12305 3713 c-46 -10 -103 -37 -147 -70 -59 -42 -62 -58 -10 -49 20
4 48 9 61 11 13 2 28 8 34 14 6 6 34 11 62 11 27 0 57 5 65 11 11 7 -3 9 -52
7 -38 -2 -68 -3 -68 -1 0 8 66 35 127 52 l68 20 -60 -1 c-33 0 -69 -2 -80 -5z"/>
<path d="M5027 3613 c-4 -6 5 -23 20 -37 21 -21 23 -25 7 -21 -16 6 -15 4 4
-14 l23 -20 -21 -48 c-21 -46 -22 -47 -37 -28 -15 19 -15 19 -11 -8 4 -22 1
-28 -18 -33 -26 -7 -31 -19 -12 -30 7 -4 8 -3 4 4 -12 20 10 13 29 -8 25 -27
37 -25 29 5 -5 20 -3 25 14 25 11 0 23 8 27 18 6 15 9 13 21 -10 13 -25 17
-26 40 -16 24 11 26 15 19 62 -4 35 -13 54 -31 68 -13 11 -24 27 -24 36 0 11
-3 13 -8 5 -5 -8 -14 -5 -32 9 -24 21 -24 21 -2 15 12 -3 20 -1 16 4 -3 5 -14
9 -24 9 -10 0 -20 5 -22 12 -3 8 -6 9 -11 1z"/>
<path d="M716 3427 c-28 -16 -40 -19 -43 -9 -3 6 -11 12 -19 12 -15 0 -15 -1
-19 -38 -1 -13 -7 -28 -14 -35 -16 -16 -14 -24 9 -30 15 -4 20 -14 20 -36 0
-20 4 -29 13 -26 9 4 12 -18 13 -86 2 -88 1 -90 -20 -85 -12 3 -27 1 -35 -3
-40 -25 130 -52 193 -31 20 6 38 15 41 20 8 13 -18 72 -39 89 -10 8 -26 32
-37 53 -17 33 -17 38 -4 38 9 0 31 -10 48 -23 18 -12 47 -28 64 -34 32 -11 33
-11 27 15 -11 44 -23 61 -49 68 -14 3 -22 10 -20 15 3 5 -5 11 -19 15 -24 6
-41 38 -29 57 3 5 13 6 22 4 9 -3 31 -10 49 -16 54 -16 34 8 -27 34 -30 12
-58 30 -63 39 -12 20 -15 20 -62 -7z"/>
<path d="M10686 3374 c-9 -8 -13 -20 -10 -25 3 -6 -2 -16 -12 -24 -15 -11 -17
-18 -9 -41 19 -53 99 -58 131 -9 42 64 -48 152 -100 99z"/>
<path d="M8713 3333 c-17 -26 -21 -39 -13 -53 7 -13 5 -24 -9 -41 -23 -29 -49
-20 -57 20 -5 22 -13 30 -36 35 -46 9 -50 8 -39 -12 6 -11 12 -40 14 -66 3
-26 7 -50 11 -53 3 -3 0 -15 -5 -26 -17 -30 9 -40 42 -16 37 26 48 24 55 -10
5 -21 14 -31 40 -39 38 -11 56 1 24 18 -25 13 -25 38 0 70 11 14 20 29 20 34
0 5 11 24 25 42 20 26 22 33 10 38 -8 3 -21 3 -29 0 -8 -3 -23 -1 -33 4 -16 9
-15 11 8 17 30 7 38 50 11 64 -13 7 -22 1 -39 -26z"/>
<path d="M10140 3260 c-35 -35 -25 -102 19 -125 46 -23 87 -6 99 40 6 19 17
31 32 35 13 3 25 11 28 18 3 9 -3 11 -22 6 -19 -4 -33 0 -57 20 -37 31 -72 33
-99 6z"/>
<path d="M2120 3171 c0 -6 -9 -11 -20 -11 -13 0 -18 -5 -14 -15 5 -11 -1 -15
-21 -15 -33 0 -83 -28 -90 -51 -3 -10 -19 -20 -35 -24 -16 -4 -41 -15 -55 -27
-20 -16 -41 -20 -105 -20 -85 0 -107 -11 -97 -48 4 -16 2 -18 -12 -10 -10 5
-23 16 -31 24 -17 22 -30 20 -30 -5 0 -26 18 -59 42 -79 19 -15 19 -16 -6 -39
-45 -42 -30 -53 30 -25 19 9 36 15 38 13 19 -25 46 -80 46 -93 0 -11 17 -25
45 -37 25 -11 45 -24 45 -30 0 -18 -29 -67 -42 -72 -8 -3 -2 -9 13 -15 28 -11
45 -58 28 -78 -15 -18 -22 -100 -11 -120 8 -15 11 -9 17 31 10 79 10 80 24 77
7 -1 24 4 37 13 35 23 43 19 63 -28 23 -54 56 -70 126 -62 43 6 55 12 64 32
15 32 26 22 26 -23 0 -28 -3 -33 -18 -28 -10 3 -23 1 -30 -4 -7 -5 -27 -13
-44 -17 -44 -9 -42 -21 5 -29 58 -9 92 -7 93 7 1 6 5 -8 9 -33 9 -52 -1 -77
-36 -90 -18 -7 -24 -17 -24 -38 0 -38 30 -125 47 -135 17 -10 17 -48 1 -44 -9
1 -13 -15 -13 -55 -1 -48 2 -58 16 -58 10 0 21 9 24 20 8 24 47 27 65 5 11
-14 14 -13 27 5 19 27 31 25 35 -5 6 -45 29 -12 35 51 5 42 12 63 27 76 21 17
21 18 -10 12 -27 -5 -33 -2 -39 15 -3 12 -12 21 -18 21 -7 0 -6 4 2 9 22 14
112 1 139 -20 13 -10 36 -21 52 -24 17 -4 30 -11 30 -15 0 -18 45 8 46 26 0
11 3 26 6 34 4 8 9 27 12 43 10 43 26 32 26 -18 0 -38 4 -47 23 -55 17 -7 18
-9 5 -9 -15 -1 -18 -11 -18 -58 0 -49 -4 -62 -25 -82 -27 -25 -34 -61 -12 -61
7 0 18 5 24 11 7 7 19 9 28 5 13 -5 14 -10 5 -27 -12 -22 -3 -211 26 -529 2
-25 6 -76 9 -114 2 -38 7 -71 10 -74 2 -3 0 -11 -6 -19 -6 -7 -7 -13 -2 -13
12 0 31 -171 32 -294 1 -54 3 -101 6 -105 6 -10 18 -255 20 -406 0 -66 3 -124
5 -130 1 -5 3 -48 4 -95 l1 -85 173 -3 174 -2 -6 392 c-3 216 -10 451 -15 521
-6 70 -13 196 -17 280 -3 84 -10 159 -14 167 -6 9 -3 21 7 32 13 14 13 20 3
33 -10 12 -9 15 6 16 17 0 17 2 -3 16 -18 12 -21 19 -12 35 7 14 7 23 -1 33
-8 10 -7 21 5 45 9 17 15 36 14 43 -4 29 2 39 19 33 14 -5 14 -4 -2 9 -11 8
-17 15 -14 15 3 0 2 16 -2 36 -7 29 -4 42 16 71 27 40 29 49 14 58 -13 8 -3
25 16 25 9 0 14 -11 14 -30 0 -29 15 -41 22 -18 3 7 13 5 31 -7 16 -10 27 -13
27 -6 0 6 -11 17 -25 23 -18 8 -24 17 -19 27 3 9 9 35 11 58 8 62 -16 67 -70
16 -38 -36 -99 -83 -109 -83 -1 0 -4 15 -4 33 -1 30 4 36 42 57 42 22 63 50
27 35 -16 -7 -64 -9 -68 -2 -1 1 -5 14 -9 30 -5 21 -3 27 10 27 46 0 105 68
91 104 -10 26 -64 30 -96 7 -16 -12 -32 -21 -37 -21 -4 0 -31 -12 -61 -26 -29
-15 -56 -24 -60 -21 -12 13 18 34 82 56 36 13 65 26 65 30 0 4 -11 18 -25 31
l-26 24 23 18 c13 10 29 18 36 18 17 0 15 20 -3 20 -9 0 -15 9 -15 24 0 18 -9
27 -45 40 -24 10 -61 29 -82 43 -23 15 -39 21 -41 14 -7 -20 -92 -11 -92 9 0
5 9 10 21 12 20 3 19 5 -10 45 -17 23 -33 53 -37 67 -3 15 -11 26 -16 26 -6 0
-8 -7 -4 -15 7 -18 -15 -20 -32 -3 -16 16 -15 39 1 32 7 -2 27 2 43 11 16 8
41 15 56 15 15 0 30 5 33 10 10 16 59 12 106 -9 50 -21 169 -38 169 -24 0 5
-11 16 -25 23 -14 7 -25 19 -25 26 0 8 11 16 25 20 30 7 31 15 6 31 -24 15
-131 43 -164 43 -14 0 -27 6 -30 13 -3 9 -8 9 -17 1 -8 -8 -9 -14 -1 -18 16
-10 14 -36 -3 -36 -17 0 -46 43 -46 69 0 15 -7 19 -32 17 -27 -1 -32 3 -39 28
-5 17 -6 32 -4 34 10 11 110 21 119 12 5 -5 20 0 37 13 l29 21 -22 23 c-29 31
-41 29 -55 -7 -9 -25 -17 -30 -43 -30 -27 0 -34 5 -51 45 -20 44 -39 59 -39
30 0 -24 -30 -17 -40 10 -5 14 -14 25 -20 25 -12 0 -24 -45 -16 -59 4 -5 2
-12 -4 -16 -18 -11 -11 -33 13 -38 21 -4 21 -4 1 -6 -18 -1 -21 -7 -21 -43 0
-23 8 -60 17 -82 20 -43 18 -53 -18 -108 -17 -27 -24 -51 -24 -86 0 -44 -2
-49 -20 -44 -14 3 -16 8 -9 15 28 28 6 23 -46 -9 -41 -27 -61 -34 -72 -28 -26
15 -57 5 -70 -23 -6 -14 -14 -23 -17 -21 -2 3 -14 54 -25 113 -11 59 -28 119
-36 132 -13 20 -14 29 -5 44 17 26 15 29 -11 29 -13 0 -34 11 -47 25 -31 33
-40 32 -40 -8 0 -41 -18 -66 -50 -69 -13 -2 -35 -14 -47 -28 -22 -23 -24 -24
-37 -7 -7 9 -21 17 -30 17 -11 0 -16 9 -16 29 0 21 -6 32 -21 36 -12 4 -24 2
-29 -4 -3 -7 -14 -9 -23 -5 -19 7 -22 20 -7 29 6 3 10 11 10 18 0 8 -3 8 -12
-1 -7 -7 -27 -12 -45 -12 -32 0 -32 1 -16 20 10 11 25 20 35 20 16 0 16 3 6
20 -19 30 1 74 34 78 17 2 27 9 27 20 1 16 7 66 10 85 0 4 13 13 29 19 15 7
36 19 47 28 11 10 36 26 55 36 19 10 38 24 43 29 9 13 27 -13 27 -42 0 -46 45
-15 64 44 6 18 4 20 -13 16 -13 -3 -23 0 -27 11 -3 9 -10 14 -14 11 -5 -3 -22
7 -39 21 -17 14 -31 21 -31 15z"/>
<path d="M9852 3143 c-20 -55 -21 -64 -15 -109 4 -30 10 -43 18 -40 7 2 18 -1
24 -7 8 -8 11 -5 11 14 0 40 11 69 26 69 8 0 14 9 14 19 0 11 4 23 10 26 9 5
13 -6 23 -60 2 -11 5 2 8 28 4 48 4 49 -33 68 -52 26 -74 24 -86 -8z"/>
<path d="M0 1541 l0 -1539 160 -1 c88 -1 160 1 160 3 0 3 -7 30 -15 61 -9 36
-11 63 -5 78 5 12 9 16 9 9 1 -7 11 -23 22 -35 l22 -22 -6 25 c-3 14 -13 65
-22 115 -9 50 -34 160 -55 245 -45 181 -60 252 -60 285 0 21 13 31 82 66 46
23 124 66 175 95 50 30 95 54 100 54 20 1 66 49 60 64 -7 18 -27 22 -27 6 0
-5 -7 -10 -15 -10 -8 0 -15 5 -15 11 0 5 -4 7 -10 4 -5 -3 -7 0 -4 9 8 20 -25
25 -61 7 -41 -19 -42 -21 -25 -32 11 -8 8 -9 -12 -5 -14 3 -33 9 -42 12 -12 5
-15 2 -10 -12 3 -11 2 -15 -3 -8 -12 16 -43 26 -85 29 -20 1 -49 12 -65 24
-15 13 -57 41 -93 64 -76 49 -98 87 -98 165 1 50 2 52 27 52 15 0 32 -5 38
-11 11 -11 222 -15 293 -5 55 7 136 30 151 42 8 6 25 15 39 19 14 4 47 20 73
36 27 17 65 31 86 33 20 2 46 8 58 14 55 30 114 3 127 -59 6 -33 65 -122 105
-159 14 -14 34 -35 42 -48 15 -20 21 -22 57 -14 22 5 52 7 65 5 14 -3 34 0 46
6 14 8 21 8 21 1 0 -11 49 -14 74 -4 10 4 16 18 16 36 0 17 14 54 30 84 21 36
30 64 28 88 -1 26 6 47 31 81 35 48 35 63 1 120 -14 24 -17 50 -16 125 1 94 1
95 27 98 14 2 31 -4 39 -12 25 -31 40 -19 40 33 0 30 5 53 15 61 15 12 39 5
30 -10 -3 -4 2 -13 10 -20 8 -7 15 -19 15 -26 0 -8 7 -14 15 -14 27 0 16 46
-20 92 -19 23 -43 53 -52 65 -10 13 -25 23 -33 23 -9 0 -20 4 -25 9 -6 5 -46
4 -95 -3 -72 -10 -91 -9 -122 4 -41 16 -48 40 -24 73 19 25 51 21 70 -8 9 -14
22 -25 29 -25 20 0 97 81 103 109 9 42 20 56 44 53 22 -4 22 -2 18 105 l-3
108 -44 63 c-49 73 -65 82 -221 124 -58 16 -121 33 -140 38 -57 16 -123 11
-247 -15 -65 -14 -174 -30 -243 -35 -124 -9 -191 -21 -325 -60 -38 -11 -77
-20 -87 -20 -19 0 -84 84 -93 122 -4 17 1 42 14 71 33 72 28 97 -36 171 -18
22 -33 49 -33 61 0 20 -59 95 -74 95 -3 0 -6 -693 -6 -1539z m517 615 c32 -8
130 -17 218 -21 88 -3 182 -8 208 -12 55 -7 81 -32 68 -67 -5 -11 -12 -45 -16
-73 -7 -52 -17 -66 -29 -40 -4 6 -4 2 -2 -9 4 -23 -27 -44 -65 -44 -24 0 -33
-21 -58 -125 -22 -91 -69 -202 -97 -227 -11 -9 -103 -45 -204 -79 -180 -59
-189 -61 -339 -71 -145 -10 -155 -9 -168 8 -17 23 -16 56 2 146 17 82 32 118
51 118 23 0 26 20 9 47 -34 51 3 185 74 270 26 32 56 74 65 95 10 21 39 51 69
73 48 34 56 36 104 31 28 -3 78 -12 110 -20z"/>
<path d="M12200 3000 c-12 -7 -8 -10 15 -11 l30 -1 -28 -10 c-21 -8 -35 -7
-53 3 -29 15 -30 15 -37 -40 l-6 -45 24 30 c19 23 26 26 34 15 5 -8 11 -9 15
-3 3 6 15 8 26 5 19 -5 19 -7 -6 -30 -15 -13 -33 -22 -40 -19 -8 3 -14 0 -14
-6 0 -6 -3 -8 -7 -5 -3 4 -12 2 -20 -5 -24 -20 -40 6 -25 44 6 17 9 34 7 37
-3 2 -5 -2 -5 -10 0 -11 -2 -11 -10 1 -7 10 -10 -26 -9 -110 0 -120 0 -124 15
-90 11 26 17 31 24 20 5 -8 5 -21 -1 -32 -11 -21 -4 -24 15 -6 8 8 10 24 6 50
-5 27 -3 41 6 49 8 6 14 8 14 5 0 -4 7 0 16 8 15 16 28 19 69 18 16 -1 17 0 3
4 -14 4 -16 10 -8 24 5 10 8 25 5 32 -6 17 21 52 34 43 6 -3 16 -3 21 0 12 7
-55 45 -80 45 -8 0 -22 -5 -30 -10z"/>
<path d="M8428 2836 c-10 -7 -18 -22 -18 -33 0 -10 -15 -44 -33 -75 -19 -30
-36 -62 -40 -71 -5 -13 -12 -15 -29 -8 -13 5 -22 15 -20 23 3 10 1 10 -8 2 -8
-8 -9 -21 -4 -35 4 -13 7 -28 6 -32 -2 -5 9 -18 23 -29 14 -11 25 -28 25 -38
0 -20 -23 -43 -33 -33 -4 3 -7 -1 -7 -11 0 -55 78 43 80 100 1 58 34 130 79
175 44 43 45 46 29 62 -21 20 -27 21 -50 3z"/>
<path d="M8520 2781 c0 -10 -14 -45 -31 -77 -17 -32 -39 -76 -50 -96 -23 -45
-24 -93 -4 -141 8 -20 15 -52 15 -70 0 -31 2 -34 24 -30 14 3 39 -2 57 -11 44
-22 49 -20 49 13 0 16 11 53 25 83 40 86 33 169 -20 222 -27 27 -48 30 -26 4
62 -73 62 -72 16 -123 -22 -25 -35 -51 -37 -74 l-4 -36 -12 35 c-11 32 -12 30
-7 -32 2 -38 0 -68 -5 -68 -13 0 -22 56 -14 92 6 30 5 31 -10 19 -26 -22 -30
-5 -7 27 25 36 26 40 5 63 -20 22 -11 69 13 69 18 0 42 28 43 49 0 10 -8 7
-25 -9 -14 -13 -25 -20 -25 -16 0 11 31 70 47 88 8 9 12 22 8 27 -10 17 -25
13 -25 -8z"/>
<path d="M8250 2700 c-19 -16 -38 -30 -42 -30 -8 0 -5 21 7 40 5 8 -13 -4 -41
-27 -27 -23 -56 -54 -64 -70 -8 -15 -25 -45 -38 -65 -20 -31 -27 -36 -43 -27
-11 5 -19 17 -20 27 0 11 -2 13 -6 4 -3 -7 1 -26 7 -43 17 -39 4 -50 -21 -19
l-19 25 7 -49 c5 -39 3 -48 -8 -44 -9 3 -14 18 -13 40 1 31 -1 34 -23 30 -18
-3 -23 -11 -23 -37 0 -17 5 -46 11 -63 9 -27 16 -32 57 -37 26 -3 55 -8 64
-10 10 -2 21 1 24 7 3 5 11 7 18 5 7 -3 23 3 36 13 l25 19 -21 23 c-12 13 -24
30 -26 38 -4 11 -11 6 -25 -17 -21 -34 -73 -81 -73 -65 0 5 9 21 20 35 11 14
18 32 15 39 -6 14 32 38 60 38 18 0 24 21 13 43 -7 13 -5 29 7 53 16 34 20 36
92 38 16 1 29 16 51 59 16 31 28 57 28 57 -1 0 -17 -14 -36 -30z"/>
<path d="M7871 2633 c-21 -58 -62 -110 -127 -159 -21 -16 -34 -35 -34 -49 0
-19 7 -23 47 -29 63 -8 85 8 127 97 39 79 67 129 86 152 11 13 8 14 -19 9 -27
-6 -33 -3 -38 15 -9 34 -19 25 -42 -36z"/>
<path d="M10811 2588 c-7 -12 -8 -18 -1 -18 7 0 8 -6 0 -19 -16 -32 -12 -60
15 -86 46 -47 129 -19 133 45 1 19 -4 43 -11 52 -18 23 -62 39 -84 31 -9 -4
-14 -2 -10 3 3 5 -3 10 -13 10 -10 0 -23 -8 -29 -18z"/>
<path d="M10286 2465 c-38 -39 -26 -104 25 -125 43 -18 76 -6 90 33 8 22 22
37 41 45 17 6 27 16 23 21 -4 7 -12 7 -25 -1 -16 -11 -24 -8 -48 15 -32 31
-81 36 -106 12z"/>
<path d="M5775 2215 c-16 -14 -46 -30 -65 -36 -19 -7 -46 -19 -59 -28 l-24
-15 62 -28 c44 -19 65 -35 73 -55 l12 -28 4 33 c2 17 8 32 13 32 6 0 8 4 4 9
-3 5 4 12 15 16 12 4 20 16 21 28 0 12 2 35 3 50 l2 28 -19 -23 -19 -23 6 33
c3 17 4 32 3 32 -1 -1 -15 -12 -32 -25z"/>
<path d="M14990 2208 c0 -18 -93 -209 -135 -278 -23 -38 -35 -70 -35 -94 0
-20 -14 -105 -31 -188 -35 -177 -46 -349 -30 -483 6 -49 15 -130 21 -179 23
-201 86 -342 177 -396 42 -25 43 -25 43 1 0 17 -5 20 -21 16 -45 -12 -139 119
-163 228 -6 28 -5 29 9 11 8 -11 15 -27 15 -35 0 -13 2 -14 9 -2 7 11 11 10
22 -7 10 -16 16 -18 26 -10 10 8 13 4 13 -20 0 -22 6 -32 20 -37 11 -3 20 -14
20 -23 0 -15 2 -15 10 -2 7 12 11 8 16 -17 4 -18 10 -33 15 -33 5 0 9 341 9
780 0 429 -2 780 -5 780 -3 0 -5 -6 -5 -12z"/>
<path d="M2546 2028 c-23 -32 -21 -57 3 -51 19 5 20 -2 16 -288 -2 -162 1
-411 5 -554 13 -424 20 -728 21 -937 l0 -198 55 0 c54 0 54 0 54 30 0 17 -6
90 -14 163 -8 73 -17 220 -21 327 -6 195 -24 474 -46 710 -7 69 -13 269 -14
445 -3 387 -1 352 -24 365 -16 8 -23 6 -35 -12z"/>
<path d="M12026 1982 c-11 -13 -14 -28 -10 -48 4 -21 -4 -55 -25 -110 -16 -43
-37 -113 -47 -154 -15 -68 -28 -116 -71 -265 -8 -27 -19 -68 -26 -90 -6 -22
-21 -56 -34 -75 -28 -43 -29 -56 -2 -70 17 -10 28 -7 61 16 22 16 44 39 49 52
13 34 29 17 29 -29 0 -37 13 -123 41 -266 7 -35 18 -58 32 -68 30 -21 47 -19
47 5 0 21 20 29 20 8 0 -7 5 -5 11 5 8 13 7 44 -1 105 -8 63 -8 109 0 171 6
47 12 109 13 136 2 28 4 10 5 -40 1 -49 8 -124 16 -165 8 -41 13 -77 10 -81
-10 -17 18 -125 38 -141 26 -23 47 -23 55 0 11 28 36 49 41 34 2 -6 17 -12 34
-12 24 0 28 3 23 19 -3 11 -1 22 5 26 10 6 40 70 40 86 0 5 -12 14 -26 20 -24
9 -26 22 -3 25 5 1 14 2 19 3 6 0 10 20 10 44 0 58 10 93 21 75 6 -8 9 6 9 37
l0 51 -35 -4 c-43 -5 -88 5 -80 18 9 14 45 12 45 -2 0 -10 2 -10 8 -2 9 14 43
21 58 12 7 -5 9 10 6 47 -6 72 15 74 22 3 14 -129 14 -146 1 -183 -22 -61 -19
-102 7 -110 15 -6 26 -1 40 16 21 27 44 79 40 93 -2 4 4 30 13 57 9 27 14 53
11 57 -3 5 -8 29 -10 53 -3 24 -10 65 -15 90 -5 25 -8 65 -7 88 2 31 0 41 -9
37 -8 -3 -18 8 -25 25 -14 32 -34 34 -35 3 0 -10 -8 -30 -17 -44 -14 -19 -20
-22 -30 -12 -7 7 -13 27 -14 45 -2 32 -2 32 13 10 25 -37 38 -27 39 28 2 71
17 82 55 39 20 -23 28 -28 24 -15 -4 11 -8 33 -11 49 -2 16 -8 34 -14 40 -16
16 -12 26 13 23 18 -2 22 3 23 26 1 15 6 33 13 40 6 6 11 22 11 37 0 19 2 22
10 10 8 -12 10 -12 16 3 9 24 2 29 -76 59 -95 37 -171 50 -300 51 -88 1 -122
-2 -147 -15 -38 -19 -42 -13 -11 19 12 13 17 23 11 23 -5 0 -17 -8 -27 -18z"/>
<path d="M2425 1869 c-4 -5 -4 -21 -1 -34 3 -13 2 -27 -4 -30 -16 -10 -12 -25
6 -25 12 0 15 -5 9 -22 -15 -49 -17 -95 -9 -256 l7 -167 13 90 c13 90 18 390
7 433 -6 24 -18 29 -28 11z"/>
<path d="M2503 1703 c-9 -122 -8 -456 2 -580 16 -190 37 -33 39 282 1 204 -11
405 -24 405 -4 0 -12 -48 -17 -107z"/>
<path d="M3548 1762 c-27 -11 -79 -62 -73 -71 3 -5 -16 -26 -41 -47 -76 -64
-107 -95 -101 -100 11 -11 51 9 78 39 23 25 31 28 43 18 12 -10 20 -9 40 6 30
21 32 29 9 37 -15 6 -14 8 3 24 24 23 102 61 109 54 3 -3 5 -14 5 -24 0 -10 5
-18 10 -18 13 0 12 9 -8 50 -17 35 -41 46 -74 32z"/>
<path d="M2127 1688 c-3 -7 -13 -30 -22 -51 -9 -22 -11 -36 -6 -32 19 11 12
-6 -50 -134 -53 -107 -60 -126 -47 -135 9 -6 18 -20 20 -31 3 -17 7 -15 21 13
10 17 24 32 32 32 17 0 21 -35 5 -45 -15 -9 -12 -25 5 -25 8 0 26 25 40 55 15
30 31 55 36 55 11 0 11 -1 -1 -75 -7 -45 -7 -61 3 -67 23 -15 34 -8 46 32 6
22 16 40 21 40 6 0 10 17 10 38 0 36 22 83 34 72 4 -5 -17 -110 -39 -192 -5
-18 -3 -28 4 -28 6 0 11 7 11 15 0 9 7 18 15 21 8 4 15 18 15 33 0 15 6 35 14
46 15 23 23 69 29 169 2 50 8 72 20 81 24 17 21 28 -6 21 -47 -11 -170 45
-182 84 -7 23 -20 26 -28 8z"/>
<path d="M4236 1538 c-13 -18 -40 -62 -59 -98 -20 -35 -40 -66 -47 -68 -6 -2
-10 0 -8 5 4 14 -13 53 -23 53 -5 0 -9 9 -9 20 0 11 -4 20 -10 20 -14 0 -12
-49 4 -105 14 -44 13 -51 -3 -84 -36 -69 -81 -212 -101 -321 -24 -124 -23
-169 2 -100 17 47 141 350 158 385 9 18 67 165 111 278 11 26 17 47 14 47 -2
0 -15 -15 -29 -32z"/>
<path d="M5512 1501 c-28 -25 -90 -35 -125 -22 l-27 11 0 -64 c0 -42 -4 -66
-12 -69 -10 -3 -10 -10 1 -28 17 -28 41 -137 35 -154 -4 -10 13 -12 64 -6 7 0
12 17 13 39 1 20 3 28 6 17 9 -43 26 -75 39 -75 8 0 14 -4 14 -10 0 -5 13 -10
28 -10 l29 0 6 173 c4 94 4 182 1 195 -8 27 -40 29 -72 3z"/>
<path d="M1080 1133 c-67 -5 -80 -15 -80 -63 0 -47 64 -134 105 -144 33 -8 38
-4 40 32 2 52 25 110 50 126 14 9 25 25 25 36 0 21 -5 22 -140 13z"/>
<path d="M11350 1042 c-8 -9 -28 -25 -45 -34 -18 -10 -31 -26 -33 -41 -3 -23
0 -24 50 -25 29 -1 87 -7 129 -13 55 -9 97 -9 150 -2 l74 10 -97 2 c-82 1 -96
3 -92 16 4 8 14 15 23 15 9 1 -1 7 -21 14 -37 13 -79 46 -59 46 6 0 11 4 11
10 0 5 -7 7 -15 4 -8 -4 -15 -1 -15 5 0 17 -43 13 -60 -7z"/>
<path d="M11023 836 c22 -17 22 -30 0 -22 -33 13 -32 -19 5 -86 33 -60 36 -70
25 -97 -8 -23 -8 -30 0 -28 7 1 11 -6 9 -15 -2 -10 1 -18 6 -18 6 0 13 -20 16
-44 4 -25 16 -56 27 -69 15 -20 17 -30 9 -52 -5 -14 -6 -24 -1 -21 10 6 21
-26 21 -62 0 -15 4 -21 12 -16 7 4 8 3 4 -4 -4 -7 5 -22 21 -36 25 -22 26 -27
15 -45 -14 -24 0 -28 22 -6 21 21 23 20 29 -22 4 -21 13 -60 21 -88 l15 -50
-3 101 c-2 83 -6 107 -24 136 -44 71 -51 109 -53 300 -1 101 -4 189 -6 196 -3
6 -17 12 -32 12 -14 0 -53 12 -86 25 -68 28 -78 30 -52 11z"/>
</g>
</svg>
