<?xml version="1.0" standalone="no"?>
<!DOCTYPE svg PUBLIC "-//W3C//DTD SVG 20010904//EN"
 "http://www.w3.org/TR/2001/REC-SVG-20010904/DTD/svg10.dtd">
<svg version="1.0" xmlns="http://www.w3.org/2000/svg"
 width="1500.000000pt" height="2249.000000pt" viewBox="0 0 1500.000000 2249.000000"
 preserveAspectRatio="xMidYMid meet">
<metadata>
Created by potrace 1.15, written by Peter Selinger 2001-2017
</metadata>
<g transform="translate(0.000000,2249.000000) scale(0.100000,-0.100000)"
fill="#000000" stroke="none">
<path d="M14400 21494 c-162 -13 -468 -37 -680 -54 -212 -17 -443 -35 -515
-40 -192 -14 -223 -18 -234 -25 -6 -3 -29 4 -52 15 -81 42 -232 45 -364 8
l-40 -11 30 -6 c17 -4 -148 -8 -365 -9 -484 -3 -692 -12 -698 -30 -3 -10 75
-12 390 -10 330 3 397 1 418 -12 14 -8 30 -13 35 -11 95 31 270 50 492 52
l138 1 36 -41 c21 -23 52 -70 70 -106 19 -35 35 -62 37 -61 6 6 -33 81 -76
145 -23 35 -41 65 -39 67 3 3 96 9 442 29 143 8 285 17 315 20 30 3 132 10
225 15 148 8 295 19 520 36 33 3 67 5 75 5 8 0 42 2 75 5 51 4 61 8 62 25 1
10 1 18 0 18 -1 -1 -135 -12 -297 -25z"/>
<path d="M0 21456 c0 -23 2 -24 128 -30 70 -4 255 -13 412 -21 740 -38 1092
-56 1410 -70 190 -8 379 -17 420 -20 41 -2 203 -10 360 -16 157 -6 292 -15
302 -20 9 -5 35 -9 57 -9 28 0 43 -5 49 -17 23 -44 47 -402 57 -843 3 -140 8
-286 12 -323 6 -68 6 -68 -18 -63 -23 6 -491 31 -807 45 -85 3 -156 3 -157 0
-2 -3 145 -13 328 -23 456 -23 641 -36 649 -44 7 -7 23 -172 21 -222 0 -14 -4
-83 -8 -154 -7 -109 -6 -128 6 -124 8 3 17 26 21 59 9 71 11 304 3 399 -10
133 -19 321 -30 635 -6 181 -24 461 -35 549 -7 54 -5 76 6 98 14 26 53 46 71
35 5 -3 923 -9 2040 -13 l2030 -7 6 23 6 23 -1032 -2 c-1554 -3 -2975 5 -3112
17 -121 11 -178 14 -710 32 -159 6 -396 17 -525 26 -216 13 -794 44 -1500 79
-157 7 -324 16 -372 19 -87 6 -88 6 -88 -18z"/>
<path d="M10967 21353 c-96 -3 -127 -7 -124 -16 3 -9 75 -13 288 -14 156 -1
290 0 296 2 7 2 10 11 7 20 -6 16 -85 17 -467 8z"/>
<path d="M10270 21339 c-1118 -23 -1487 -29 -1795 -29 -187 0 -498 -3 -692 -7
-298 -5 -353 -9 -358 -21 -3 -8 -4 -17 -1 -19 5 -5 1293 12 2091 28 292 6 696
14 900 17 341 6 370 8 373 25 3 15 -5 17 -70 15 -40 0 -242 -5 -448 -9z"/>
<path d="M13236 19530 c-19 -48 -34 -51 -43 -8 l-6 31 -19 -22 c-10 -13 -18
-32 -18 -42 0 -10 -6 -19 -14 -19 -8 0 -24 -8 -36 -18 -17 -14 -25 -40 -40
-125 -11 -65 -25 -116 -35 -127 -14 -15 -14 -21 -3 -39 17 -28 29 -31 74 -20
58 13 108 11 130 -6 19 -14 19 -14 -3 -15 -12 0 -25 -4 -28 -10 -15 -24 95 5
125 32 18 17 19 22 7 31 -11 10 -12 36 -8 131 6 113 5 119 -15 135 -15 12 -24
34 -29 69 -4 29 -10 54 -15 57 -4 3 -15 -13 -24 -35z"/>
<path d="M3170 18691 c-5 -11 -14 -37 -18 -58 -6 -29 -13 -39 -30 -41 -37 -5
-49 -40 -56 -152 -4 -66 -11 -110 -20 -118 -11 -11 -8 -18 17 -43 28 -28 34
-30 78 -24 35 5 57 2 84 -11 34 -16 36 -16 49 1 7 10 19 16 27 13 8 -3 23 3
33 13 15 15 16 20 5 24 -11 4 -13 29 -11 120 3 124 -9 165 -50 165 -16 0 -18
3 -9 14 9 10 7 24 -8 60 -11 25 -23 46 -27 46 -4 0 -4 -25 0 -55 4 -35 2 -55
-4 -55 -5 0 -10 11 -10 24 0 23 -26 96 -35 96 -2 0 -9 -9 -15 -19z"/>
<path d="M10310 18360 c0 -14 -9 -31 -20 -38 -17 -10 -20 -23 -20 -91 0 -50 4
-83 12 -87 19 -12 111 -4 128 11 14 12 15 25 5 94 -5 44 -16 86 -22 93 -7 6
-13 18 -13 25 0 7 -4 13 -10 13 -5 0 -10 -7 -10 -15 0 -21 -27 -19 -39 3 -9
15 -10 14 -11 -8z"/>
<path d="M4546 18246 c-5 -28 -12 -36 -36 -41 -25 -6 -28 -9 -20 -25 6 -10 10
-50 10 -89 0 -68 1 -71 26 -77 15 -4 47 -3 73 2 52 10 50 5 36 127 -5 48 -10
60 -30 67 -14 5 -26 20 -30 39 -9 41 -21 39 -29 -3z"/>
<path d="M5622 15278 c-12 -6 -25 -23 -29 -37 -3 -14 -10 -34 -15 -45 -9 -17
-11 -17 -22 5 -10 20 -9 26 3 37 9 8 10 11 4 7 -7 -3 -13 0 -13 7 -1 7 -7 2
-14 -11 -9 -16 -15 -19 -18 -11 -3 10 -40 14 -137 18 -77 3 -132 1 -128 -4 3
-5 -10 -10 -27 -11 -68 -3 -207 -76 -273 -141 -35 -35 -135 -183 -156 -232
-22 -51 -40 -137 -33 -162 3 -12 2 -27 -3 -32 -4 -6 -13 -31 -20 -56 -7 -25
-24 -55 -38 -67 -20 -17 -24 -29 -21 -53 5 -32 -1 -37 -20 -18 -9 9 -12 9 -12
1 0 -7 -10 -15 -22 -19 -33 -10 -78 -43 -78 -57 0 -7 5 -4 11 6 14 24 22 22
42 -12 20 -34 22 -47 5 -34 -7 6 -25 13 -40 15 -25 5 -28 2 -28 -23 0 -22 5
-29 19 -29 11 0 23 -4 26 -10 3 -5 -3 -10 -14 -10 -23 0 -28 -19 -9 -38 9 -9
5 -17 -15 -36 -15 -14 -28 -33 -29 -43 -1 -18 -4 -34 -8 -43 -29 -76 0 -177
66 -229 15 -12 28 -32 29 -45 2 -14 6 -30 10 -36 5 -9 1 -10 -15 -5 -15 5 -20
4 -16 -4 4 -6 16 -11 27 -11 24 0 110 -80 102 -95 -4 -5 -2 -7 2 -2 5 4 17 -1
28 -10 11 -10 17 -12 13 -5 -16 27 13 9 65 -42 59 -58 139 -102 151 -83 5 8
10 8 20 -1 17 -14 53 -6 90 20 16 11 32 16 38 13 13 -8 13 -115 0 -115 -5 0
-32 9 -60 20 -27 11 -50 17 -50 15 0 -3 12 -10 26 -15 14 -6 23 -14 20 -19 -3
-5 13 -11 35 -15 32 -5 39 -10 35 -24 -3 -10 -10 -67 -16 -127 -5 -61 -14
-136 -20 -168 -14 -76 -2 -101 42 -92 25 6 30 4 25 -8 -3 -9 -9 -33 -13 -54
-4 -21 -12 -44 -18 -52 -8 -11 -8 -15 0 -18 7 -2 10 -13 7 -23 -3 -11 -9 -17
-14 -14 -5 3 -9 -3 -9 -13 0 -11 -6 -28 -14 -38 -8 -11 -11 -26 -8 -34 4 -10
1 -13 -11 -8 -12 5 -17 1 -17 -13 0 -10 5 -22 12 -26 8 -5 7 -10 -3 -18 -8 -6
-19 -22 -25 -36 -10 -24 -11 -24 -11 7 0 18 4 30 9 27 4 -3 8 2 8 10 0 10 -6
13 -15 10 -13 -5 -20 -19 -12 -27 1 -2 -6 -15 -16 -30 -10 -15 -15 -32 -12
-37 3 -6 2 -10 -3 -10 -6 0 -13 -8 -17 -17 -5 -15 -4 -16 6 -5 19 18 29 15 29
-8 0 -11 -5 -20 -11 -20 -7 0 -9 -10 -7 -25 4 -20 1 -25 -14 -25 -13 0 -17 4
-12 13 4 6 4 9 -1 5 -7 -7 -10 -24 -17 -85 -1 -7 -5 -10 -10 -7 -4 3 -8 -4 -8
-15 0 -11 -5 -23 -11 -27 -8 -5 -10 3 -7 25 3 18 2 34 -2 36 -10 6 -28 -135
-41 -313 -11 -166 -2 -318 26 -428 18 -68 86 -237 93 -230 2 3 -3 24 -12 47
-10 23 -13 45 -9 48 4 3 9 30 11 59 1 30 9 73 17 97 8 23 19 98 25 166 20 244
42 375 78 469 77 196 194 311 377 371 47 15 72 33 33 24 -21 -5 -26 -3 -24 9
1 9 7 21 13 27 8 8 7 21 -4 46 -8 19 -12 38 -9 40 3 3 1 14 -5 24 -6 13 -6 19
1 19 5 0 10 6 10 14 0 18 20 26 40 16 8 -5 31 -9 50 -11 19 -2 41 -7 48 -13
10 -7 12 -4 7 17 -5 17 -3 27 4 27 6 0 11 -9 11 -19 0 -11 5 -23 10 -26 6 -3
10 -1 10 6 0 10 67 -34 81 -54 3 -4 6 6 7 22 1 46 12 73 27 68 17 -7 47 67 32
82 -7 7 -6 15 3 26 7 9 10 27 7 45 -5 24 -4 28 11 23 14 -5 14 -3 -3 17 -17
20 -18 23 -2 17 13 -5 17 -1 17 14 0 18 2 19 15 5 8 -8 15 -24 15 -36 0 -38
21 -16 41 43 10 31 28 73 40 93 17 30 18 41 9 59 -17 32 2 71 40 78 31 7 127
-9 145 -23 10 -8 74 0 167 21 46 11 58 25 50 62 -2 9 -8 15 -13 11 -6 -3 -7 5
-3 20 5 20 2 26 -10 26 -10 0 -13 6 -9 18 6 16 14 26 55 70 18 19 10 47 -13
47 -7 0 -13 15 -13 35 -1 19 -5 40 -11 46 -11 13 -38 7 -29 -7 3 -5 1 -9 -4
-9 -14 0 -54 -99 -48 -118 7 -20 -37 -72 -59 -72 -21 0 -18 17 6 41 17 17 19
23 8 30 -12 8 -12 11 1 18 8 6 11 13 7 18 -5 4 -12 2 -16 -5 -14 -23 -38 -2
-39 35 -1 27 8 49 34 86 19 27 33 55 30 63 -3 8 0 14 7 14 8 0 9 3 1 8 -14 9
-65 152 -59 162 3 5 19 11 35 15 17 4 36 15 42 24 7 10 23 21 34 25 18 6 21 3
19 -19 -2 -14 1 -25 6 -25 6 0 6 -7 0 -18 -9 -17 -31 -153 -31 -191 0 -10 11
-23 25 -29 33 -15 31 -17 45 18 9 21 19 30 36 30 12 0 26 5 30 12 5 8 -6 10
-42 5 l-49 -6 34 15 c19 9 44 13 56 10 12 -3 30 0 40 8 16 12 17 17 6 45 -8
17 -17 31 -21 31 -10 0 -40 58 -40 77 0 8 -13 28 -29 44 -16 16 -27 29 -24 29
3 0 -2 9 -11 19 -10 11 -16 23 -13 28 7 12 -11 53 -23 53 -6 0 -10 -10 -9 -22
6 -63 -11 -77 -33 -28 -7 17 -17 30 -22 30 -5 0 1 11 14 25 13 14 30 23 37 21
23 -9 43 5 43 30 0 22 -11 30 -35 24 -5 -2 -28 -6 -50 -11 -22 -4 -47 -10 -56
-14 -24 -9 -31 40 -9 68 26 34 32 57 15 63 -7 3 -11 12 -8 20 3 8 9 11 14 8 5
-3 9 8 9 25 0 16 -5 33 -10 36 -6 4 -7 11 -4 17 4 6 -1 17 -10 24 -9 6 -18 21
-19 33 -1 12 -2 21 -4 21 -1 0 -16 -15 -34 -32 -30 -32 -31 -32 -25 -8 4 14
18 68 32 120 21 77 25 110 21 175 -6 95 -15 125 -31 104 -13 -16 -36 -23 -36
-11 0 4 6 14 13 21 8 9 1 8 -19 -3 -30 -15 -32 -14 -37 4 -4 15 -14 20 -40 20
-26 0 -40 6 -52 23 -8 12 -20 23 -25 23 -6 1 -14 2 -19 3 -5 0 -12 12 -15 26
-4 14 -11 23 -16 20 -5 -3 -12 0 -16 6 -4 7 -3 9 4 5 5 -3 13 0 16 6 5 10 7
10 12 1 3 -7 10 -13 16 -13 17 0 -11 28 -45 45 -16 8 -36 15 -44 15 -8 0 -11
5 -8 11 9 13 82 7 115 -10 24 -13 24 -12 8 4 -21 22 -88 33 -148 23 -72 -11
-158 -9 -166 4 -4 7 -3 8 4 4 7 -4 12 -1 12 8 0 18 45 23 55 6 3 -5 13 -6 21
-3 26 10 -2 26 -48 29 -24 2 -53 -2 -66 -8z m-635 -927 c7 -26 29 -33 43 -15
18 20 30 17 30 -7 0 -12 5 -19 13 -16 6 2 23 -5 37 -15 24 -19 25 -19 34 1 5
12 13 21 17 21 16 0 18 -17 5 -36 -12 -15 -18 -16 -40 -6 -16 7 -27 8 -31 1
-4 -5 -11 -7 -16 -3 -19 11 -57 -6 -62 -28 -6 -20 -5 -20 10 -5 15 15 19 15
45 -1 15 -9 28 -20 28 -25 0 -4 -4 -6 -9 -3 -10 6 -22 -30 -13 -39 10 -10 12
-45 2 -45 -5 0 -7 -6 -4 -14 9 -25 -15 -28 -44 -6 -15 12 -25 24 -24 27 6 9
-22 23 -47 23 -22 0 -23 3 -19 45 3 26 1 45 -4 45 -5 0 -7 13 -3 29 3 17 2 32
-4 36 -16 9 -13 25 3 25 8 0 16 7 20 15 8 21 27 19 33 -4z m1095 -413 c-9 -9
-6 -14 11 -22 13 -7 23 -23 25 -40 2 -17 11 -30 22 -33 17 -5 38 -34 22 -32
-28 4 -42 -3 -42 -23 0 -20 1 -20 19 -4 14 13 20 14 23 4 9 -25 -2 -33 -41
-30 -21 2 -41 -1 -45 -6 -10 -16 4 -42 23 -42 14 0 14 -2 1 -11 -11 -8 -5 -9
23 -4 27 4 37 3 32 -4 -3 -6 -12 -11 -20 -11 -7 0 -15 -7 -19 -15 -3 -8 -12
-15 -20 -15 -8 0 -17 -8 -19 -17 -4 -14 -5 -13 -6 4 0 12 -10 27 -22 33 -21
12 -49 66 -49 95 0 9 4 14 9 10 6 -3 13 11 17 32 4 21 12 41 18 45 6 4 0 8
-14 8 -15 0 -20 3 -13 8 6 4 13 16 15 27 1 11 14 28 28 37 29 21 39 23 22 6z"/>
<path d="M9683 14919 c-24 -6 -43 -14 -43 -19 0 -13 89 -40 108 -33 9 3 14 2
9 -2 -10 -11 59 -34 83 -28 28 8 110 -36 102 -55 -3 -10 -1 -13 6 -8 6 4 26
-1 44 -11 32 -16 37 -18 66 -21 7 -1 10 -7 7 -12 -6 -10 95 -63 104 -55 6 6
-30 45 -41 45 -5 0 -6 -5 -2 -11 4 -7 -2 -7 -17 1 -34 18 -38 24 -9 15 22 -7
23 -6 11 9 -7 9 -10 16 -6 16 7 0 77 -31 118 -52 11 -5 21 -7 24 -5 2 3 -10
11 -26 18 -17 8 -31 17 -31 21 0 5 -4 8 -10 8 -5 0 -19 8 -29 18 -35 31 -47
39 -69 46 -12 4 -22 11 -22 16 0 7 -116 73 -122 69 -2 -1 -14 1 -27 6 -18 5
-21 9 -10 16 10 6 5 9 -16 9 -16 0 -59 2 -95 5 -36 2 -84 0 -107 -6z"/>
<path d="M9399 14889 c-45 -9 -219 -55 -244 -65 -11 -4 -32 -16 -47 -26 -14
-10 -41 -20 -59 -22 -18 -2 -40 -13 -50 -25 -9 -11 -22 -21 -27 -21 -15 0 -80
-84 -87 -113 -4 -15 -11 -25 -15 -22 -4 3 -10 -2 -14 -10 -3 -8 -12 -15 -19
-15 -26 0 -41 -55 -29 -112 8 -45 8 -54 -7 -64 -9 -7 -17 -8 -19 -3 -2 5 -8 9
-13 9 -6 0 -8 -4 -4 -10 6 -10 4 -15 -38 -98 -15 -29 -25 -57 -22 -63 4 -5 2
-9 -4 -9 -15 0 -22 35 -12 61 5 13 21 41 35 62 14 20 22 37 18 37 -14 0 -60
-54 -73 -85 -19 -47 -21 -56 -19 -119 0 -48 6 -67 31 -105 30 -44 31 -45 12
-61 -11 -8 -18 -21 -15 -28 5 -17 -18 -43 -31 -35 -5 3 -7 1 -3 -5 3 -6 0 -16
-7 -24 -14 -14 -37 -125 -37 -176 0 -25 12 -44 56 -87 50 -51 53 -55 27 -50
-21 5 -18 1 16 -17 28 -15 38 -24 27 -26 -9 -2 -16 -8 -16 -13 0 -6 5 -7 10
-4 6 3 10 2 10 -4 0 -5 -9 -9 -19 -8 -11 0 -17 5 -14 10 3 5 -5 3 -16 -5 -21
-13 -21 -13 16 -25 48 -15 137 -17 128 -3 -4 6 3 9 16 7 13 -2 25 -9 27 -15 2
-7 8 -10 13 -6 12 7 79 -17 79 -30 0 -5 3 -6 7 -3 3 4 13 2 20 -5 18 -15 48
-19 92 -12 l33 5 -25 27 c-39 42 -52 73 -36 83 8 5 22 9 32 9 9 0 17 5 17 11
0 6 6 9 14 6 8 -3 17 -1 20 6 3 9 8 8 15 -3 10 -13 12 -13 20 0 6 8 14 11 18
6 4 -5 2 -11 -4 -13 -7 -3 -13 -9 -13 -15 0 -6 7 -8 14 -5 10 4 13 1 9 -9 -3
-9 1 -14 12 -14 9 0 14 -4 10 -10 -3 -5 8 -16 25 -25 30 -15 32 -15 48 3 14
16 19 17 30 6 6 -7 12 -16 12 -19 0 -3 8 -18 18 -33 10 -15 17 -45 17 -71 0
-41 2 -45 33 -55 18 -6 30 -15 26 -19 -4 -4 0 -7 8 -7 16 0 68 -61 68 -80 0
-6 11 -27 25 -47 13 -20 22 -40 19 -44 -6 -11 66 -79 85 -79 13 0 13 -2 2 -9
-29 -18 27 -22 61 -4 64 34 143 18 131 -26 -4 -17 0 -19 39 -18 37 2 44 5 40
19 -3 14 2 18 22 18 28 0 33 9 14 28 -9 9 -7 13 5 18 9 3 24 4 32 0 20 -7 19
-46 -1 -46 -11 0 -14 -6 -9 -20 9 -29 -3 -44 -23 -28 -14 10 -15 10 -4 -2 15
-18 16 -34 0 -24 -7 4 -8 3 -4 -4 4 -7 14 -12 22 -12 8 0 14 -10 15 -22 0 -13
3 -17 6 -10 2 6 9 12 14 12 6 0 7 -4 4 -10 -3 -5 3 -10 14 -10 11 0 23 5 26
11 4 6 14 8 22 5 9 -4 22 -1 31 6 12 10 16 10 19 1 3 -7 15 -13 28 -13 13 0
26 -4 30 -9 3 -5 31 -15 62 -21 64 -14 55 -32 -12 -24 -37 5 -39 4 -21 -11 30
-23 48 -19 116 27 95 63 226 228 538 675 29 42 69 94 88 116 28 31 33 41 23
48 -8 5 -22 6 -33 3 -12 -4 -16 -2 -12 5 4 6 2 11 -3 11 -6 0 -11 -4 -11 -10
0 -5 -9 -2 -20 7 -12 11 -16 20 -9 24 7 4 4 9 -6 12 -9 4 -13 3 -10 -3 3 -6 1
-10 -5 -10 -6 0 -13 7 -16 15 -4 8 -14 15 -23 15 -12 0 -13 2 -3 9 18 11 -9
34 -31 25 -10 -3 -20 4 -29 23 -10 20 -20 27 -37 26 -12 -2 -20 1 -17 6 3 5
-1 11 -8 14 -8 3 -17 3 -19 -1 -2 -4 -2 -2 -1 5 3 14 -20 35 -29 26 -4 -3 -7
-1 -7 6 0 8 -7 10 -22 5 -19 -6 -21 -4 -11 7 9 11 7 14 -13 14 -27 0 -30 -7
-10 -24 8 -7 17 -27 20 -47 4 -19 11 -32 15 -30 4 3 7 -5 6 -17 -1 -12 -9 -23
-17 -25 -12 -2 -14 3 -10 24 4 22 2 26 -10 21 -12 -4 -15 1 -14 23 1 16 -2 27
-6 24 -4 -3 -8 -16 -8 -30 0 -13 -4 -24 -10 -24 -5 0 -10 5 -10 10 0 6 -9 10
-20 10 -17 0 -19 5 -14 24 5 21 3 24 -14 19 -14 -3 -25 2 -33 16 -10 15 -16
17 -26 9 -10 -8 -13 -6 -13 5 0 8 5 17 12 19 16 6 -3 37 -33 51 -22 12 -49 61
-38 72 7 6 72 -27 115 -60 26 -20 38 -24 48 -16 18 15 26 3 16 -25 -10 -26 7
-46 20 -24 4 7 12 10 18 6 5 -3 15 1 22 9 10 12 9 15 -5 15 -10 0 -15 3 -11 8
4 4 18 7 29 7 29 0 34 36 7 53 -15 9 -20 9 -20 0 0 -6 -3 -8 -6 -5 -4 4 -1 13
5 21 10 12 9 17 -8 27 -14 10 -17 17 -11 30 7 13 5 18 -11 22 -16 4 -18 11
-13 31 5 20 2 26 -10 26 -9 0 -16 8 -16 20 0 11 -4 20 -9 20 -7 0 -19 24 -25
51 0 4 -12 16 -26 28 -23 19 -24 20 -5 21 15 1 12 5 -14 19 -23 12 -30 20 -20
24 9 4 8 6 -6 7 -21 1 -55 22 -55 34 0 3 12 -1 28 -11 l27 -17 -19 22 c-11 12
-26 22 -35 22 -9 0 -25 7 -35 15 -10 8 -23 12 -28 9 -17 -11 -38 17 -28 36 14
25 13 27 -10 33 -11 3 -19 11 -18 18 2 6 -22 25 -52 41 -30 16 -62 35 -70 42
-8 6 -31 20 -51 31 -21 10 -51 31 -69 47 -18 15 -39 28 -47 28 -7 0 -37 14
-67 30 -29 17 -60 28 -69 24 -9 -3 -24 -1 -34 5 -14 8 -14 10 -3 11 24 0 -35
28 -72 33 -38 5 -89 27 -84 36 5 8 -183 8 -225 0z m802 -627 c54 -35 96 -83
121 -140 29 -65 27 -232 -2 -232 -11 0 -37 26 -42 42 -4 10 -8 10 -20 1 -15
-13 -15 -13 -20 36 -1 11 -5 18 -9 15 -16 -10 -15 39 2 72 22 44 14 65 -34 95
-22 13 -44 18 -69 15 -22 -3 -41 1 -45 7 -5 7 -15 12 -23 12 -31 0 -14 29 23
38 20 5 37 13 37 18 0 5 12 9 26 9 14 0 23 -4 20 -8 -2 -4 6 -8 20 -8 31 0 30
2 -8 22 -63 32 -158 -2 -189 -69 -13 -30 -19 -36 -19 -20 0 31 18 74 42 101
18 18 32 22 83 22 50 0 69 -5 106 -28z m-144 -243 c10 -16 23 -29 31 -29 7 0
10 5 7 10 -8 13 -2 13 30 -2 15 -7 33 -25 41 -40 8 -15 20 -28 26 -28 9 0 9
-3 1 -11 -9 -9 -18 -5 -35 14 -13 14 -30 27 -38 28 -39 4 -42 -3 -10 -22 81
-49 99 -81 64 -116 -13 -14 -44 -7 -44 9 0 5 -8 8 -17 6 -20 -4 -73 45 -73 68
0 8 -7 17 -15 20 -8 4 -13 10 -10 14 3 5 1 11 -5 15 -6 4 -8 11 -5 16 4 5 3
15 -2 22 -4 6 -8 17 -9 22 -1 6 -5 17 -8 26 -13 30 52 10 71 -22z m-321 -558
c-11 -17 30 -38 79 -39 33 -1 45 2 36 7 -12 8 -12 12 2 25 8 9 22 13 30 10 12
-4 12 -15 -4 -71 -19 -74 -17 -93 15 -94 14 -1 10 -4 -12 -9 -18 -4 -50 -6
-70 -4 -113 13 -122 15 -139 40 -14 23 -14 26 1 43 9 9 16 24 16 32 0 8 10 27
22 42 21 26 35 37 24 18z"/>
<path d="M13380 14761 c0 -5 7 -28 15 -51 12 -35 13 -46 3 -58 -8 -10 -13 -47
-13 -104 0 -87 1 -89 25 -95 44 -10 207 -92 213 -106 3 -7 25 -19 48 -26 101
-30 147 -69 135 -115 -4 -17 2 -26 31 -41 21 -11 52 -35 71 -54 31 -30 33 -36
21 -57 -6 -13 -16 -21 -21 -18 -15 10 -30 -7 -18 -21 15 -18 -9 -35 -46 -32
-23 2 -28 -2 -26 -15 3 -20 -6 -22 -42 -8 -17 6 -24 14 -20 25 3 8 1 15 -5 15
-6 0 -11 9 -11 20 0 17 4 19 28 14 21 -5 24 -4 16 6 -7 6 -67 26 -135 43 -107
28 -124 35 -124 52 0 15 -11 23 -45 32 -25 6 -60 12 -77 12 -33 1 -33 1 -32
-46 3 -94 8 -103 79 -134 36 -15 107 -43 159 -60 52 -18 103 -41 113 -51 19
-19 26 -88 9 -88 -31 0 -148 38 -216 70 -78 36 -133 60 -139 60 -2 0 -3 -12
-2 -27 1 -29 33 -53 72 -53 11 0 29 -7 40 -15 10 -8 33 -15 50 -15 48 0 113
-27 163 -65 24 -19 56 -35 70 -35 14 0 114 -48 222 -107 174 -95 198 -111 208
-140 13 -35 8 -53 -13 -53 -7 0 -61 16 -119 35 -123 41 -131 42 -159 15 -12
-11 -30 -20 -41 -20 -15 0 -18 -5 -13 -24 10 -41 -2 -56 -45 -56 -21 0 -39 -4
-39 -10 0 -10 13 -14 41 -11 9 1 41 -7 70 -19 68 -25 70 -25 59 4 -20 55 56
90 100 46 25 -25 25 -41 -1 -74 l-22 -28 21 -21 c19 -18 24 -19 46 -8 13 7 29
10 36 6 8 -5 9 3 5 27 -10 51 11 64 65 42 39 -16 43 -16 52 -1 14 25 36 20 52
-12 9 -16 31 -38 50 -49 22 -13 45 -40 60 -70 24 -48 98 -113 157 -139 20 -9
25 -17 22 -35 -2 -14 6 -38 23 -63 29 -43 142 -141 151 -131 4 3 -10 40 -31
81 -31 62 -35 78 -26 95 15 28 -16 92 -67 141 -21 20 -44 53 -51 73 -13 35
-12 39 7 57 20 18 20 22 6 42 -8 12 -15 28 -15 37 0 8 -17 53 -37 100 -31 75
-36 96 -38 178 -2 92 -16 136 -30 92 -5 -15 -13 -20 -28 -18 -17 2 -27 18 -46
73 -33 95 -17 160 26 108 12 -16 13 -10 7 45 -6 65 -5 67 44 65 6 -1 12 5 12
11 0 20 -58 16 -63 -5 -3 -9 -14 -22 -25 -28 -17 -9 -25 -6 -51 24 -16 19 -35
54 -41 77 -14 57 -41 118 -52 118 -12 0 -10 -18 6 -48 8 -15 25 -61 38 -102
14 -41 34 -102 46 -135 12 -33 25 -87 29 -121 8 -56 7 -62 -14 -77 -39 -30
-50 -22 -75 56 -15 46 -28 72 -38 72 -8 0 -24 16 -35 36 -16 29 -23 34 -36 26
-30 -19 -48 1 -101 110 -64 130 -78 147 -113 141 -19 -4 -30 1 -45 21 -11 14
-24 31 -29 37 -21 26 -32 54 -20 54 6 0 8 7 5 16 -4 12 -2 15 9 10 23 -8 18 6
-15 46 -16 20 -36 53 -42 73 -10 27 -39 59 -108 119 -56 48 -103 98 -115 121
-26 51 -47 69 -58 49 -4 -8 -5 -19 -2 -24 11 -17 -10 -11 -32 10 -12 10 -33
22 -48 26 -14 3 -36 19 -47 35 -21 29 -38 37 -38 20z"/>
<path d="M1350 14690 c-25 -10 -65 -29 -90 -43 -25 -14 -75 -41 -111 -58 -91
-46 -115 -81 -139 -211 -12 -59 -20 -145 -20 -201 0 -84 -3 -102 -21 -127 -32
-42 -24 -170 15 -257 28 -61 85 -121 105 -109 13 9 18 -12 20 -91 1 -43 -2
-73 -8 -73 -5 0 -12 8 -15 18 -2 9 -2 -4 1 -31 4 -32 0 -58 -11 -82 -15 -31
-15 -38 -2 -69 16 -39 109 -133 171 -174 22 -15 65 -45 95 -69 30 -23 81 -51
113 -63 67 -25 87 -42 87 -76 0 -41 -26 -39 -68 5 -21 23 -48 41 -58 41 -11 0
-25 5 -32 12 -15 15 -34 -8 -61 -80 -28 -72 -28 -102 1 -102 12 0 30 8 40 17
26 23 46 3 31 -29 -23 -48 -35 -89 -29 -95 11 -12 53 37 64 76 7 21 21 46 32
56 11 10 20 24 20 32 0 8 5 11 10 8 6 -3 10 -15 10 -26 0 -25 3 -24 51 11 41
29 65 31 55 4 -8 -20 8 -25 29 -10 17 12 13 19 -49 97 -36 46 -65 90 -64 98 2
8 26 29 53 47 177 118 186 129 154 190 -10 21 -15 40 -10 43 20 14 32 52 21
66 -12 15 -7 19 33 29 24 6 30 2 45 -24 28 -49 41 -45 69 18 32 72 39 158 17
229 -13 42 -14 56 -5 67 9 11 9 20 2 35 -17 32 -13 50 14 57 20 5 25 13 25 36
0 30 -10 44 -45 64 -13 7 -21 23 -22 43 -1 18 -6 38 -12 45 -9 11 -8 18 5 30
9 9 22 36 29 60 13 41 12 47 -10 89 -13 24 -21 48 -17 51 3 4 -1 4 -11 0 -9
-3 -23 -1 -31 5 -7 6 -16 7 -20 3 -4 -4 -7 -2 -6 3 5 22 -1 27 -15 15 -13 -11
-18 -10 -30 6 -15 20 -20 54 -7 54 4 0 6 18 4 40 -3 29 1 47 13 60 16 18 15
21 -21 65 -35 41 -40 44 -51 28 -10 -13 -16 -14 -25 -5 -7 7 -22 12 -34 12
-38 0 -53 11 -65 48 -12 37 -44 71 -66 72 -7 0 -13 6 -13 14 0 30 -73 33 -140
6z m461 -867 c6 -21 15 -42 19 -48 4 -5 8 -37 7 -70 0 -44 -5 -68 -19 -88 -19
-27 -19 -29 -3 -47 10 -11 15 -26 12 -34 -9 -23 -37 -8 -37 19 0 13 -5 27 -10
30 -6 4 -8 10 -5 15 3 5 1 12 -5 15 -8 5 -8 11 0 20 7 9 8 26 1 54 -12 56 0
171 18 171 5 0 15 -17 22 -37z"/>
<path d="M14627 13788 c1 -35 12 -108 24 -163 22 -98 33 -315 17 -315 -4 0
-10 -11 -14 -25 -7 -29 29 -129 58 -160 18 -19 18 -18 12 82 l-7 102 27 7 c19
4 33 1 46 -11 20 -18 20 -17 4 36 -9 30 -26 78 -39 107 -41 91 -94 254 -101
314 -3 31 -11 64 -18 73 -9 12 -11 2 -9 -47z"/>
<path d="M14881 13823 c-10 -24 -8 -41 10 -98 16 -52 21 -93 20 -169 -1 -56 4
-137 10 -181 6 -44 15 -136 19 -205 7 -106 41 -294 56 -309 11 -12 3 360 -11
438 -16 99 -38 264 -39 301 -1 19 5 26 22 28 12 2 22 8 22 14 0 13 -57 140
-81 181 l-16 28 -12 -28z"/>
<path d="M11204 13738 c-43 -34 -72 -66 -116 -131 -48 -71 -161 -315 -190
-412 -11 -38 -43 -114 -70 -168 -26 -54 -45 -103 -42 -109 4 -6 3 -8 -3 -5 -9
6 -98 -161 -89 -170 2 -3 21 32 42 76 20 45 39 80 41 78 1 -2 -16 -55 -40
-118 -38 -98 -41 -115 -28 -120 9 -4 23 -1 31 7 25 21 58 6 72 -32 9 -25 17
-34 32 -32 12 2 20 -4 22 -15 2 -13 -2 -16 -17 -12 -23 8 -24 1 -2 -36 17 -29
37 -40 27 -16 -3 8 2 20 11 27 9 7 15 8 15 2 0 -6 -6 -13 -12 -15 -10 -4 -10
-6 0 -6 27 -2 57 33 54 62 -5 38 12 34 39 -10 32 -52 33 -53 15 -53 -9 0 -16
-4 -16 -9 0 -5 -3 -16 -6 -25 -3 -9 -1 -16 5 -16 6 0 11 7 11 16 0 20 24 13
28 -9 3 -13 -4 -17 -26 -17 -17 0 -32 -6 -36 -15 -3 -9 0 -15 9 -15 8 0 15 -4
15 -9 0 -15 -27 -32 -43 -25 -8 3 -18 1 -22 -5 -3 -6 -13 -11 -21 -11 -8 0
-12 5 -9 10 3 6 -1 10 -10 10 -9 0 -18 12 -22 30 -3 17 -8 28 -11 25 -10 -9
-43 80 -39 103 2 12 1 25 -3 27 -9 6 -30 -73 -29 -107 0 -21 1 -22 8 -3 8 19
8 19 18 0 6 -11 8 -26 5 -34 -2 -7 1 -17 7 -20 9 -6 8 -15 -3 -36 -9 -16 -12
-32 -7 -35 10 -6 31 -46 31 -58 0 -6 -16 -20 -36 -31 -20 -12 -38 -30 -41 -41
-7 -25 -26 -32 -100 -36 -50 -2 -66 1 -87 17 -29 23 -59 73 -49 83 4 3 1 6 -5
6 -7 0 -12 -7 -12 -16 0 -14 -3 -14 -15 -4 -12 10 -18 10 -30 0 -13 -11 -18
-10 -30 6 -8 10 -17 26 -20 36 -14 39 -49 29 -59 -18 -9 -42 15 -68 55 -59 45
10 89 -3 89 -26 0 -13 4 -18 12 -13 7 5 8 3 3 -6 -5 -8 -20 -10 -41 -7 -26 4
-32 2 -27 -9 7 -19 -24 -29 -42 -14 -9 7 -18 10 -21 8 -3 -3 6 -15 20 -25 18
-14 22 -23 14 -31 -20 -20 0 -41 42 -44 22 -2 40 -6 40 -11 0 -4 6 -20 15 -37
14 -27 14 -30 -3 -39 -14 -7 -31 -60 -67 -208 -27 -109 -50 -200 -52 -202 -1
-2 -8 1 -15 6 -7 6 -43 13 -80 17 -37 4 -76 9 -85 12 -11 4 -14 2 -8 -3 6 -4
12 -17 13 -28 l4 -20 -20 20 c-11 11 -18 22 -16 24 7 7 -89 51 -110 51 -13 0
-7 -8 20 -26 58 -38 104 -86 104 -105 0 -17 -3 -17 -38 2 -20 11 -45 33 -54
49 -16 28 -18 29 -45 15 -28 -15 -28 -14 -35 17 -7 37 -40 68 -72 68 -28 0
-50 -15 -42 -29 4 -6 1 -11 -6 -12 -7 0 -3 -5 10 -11 24 -12 30 -38 9 -38 -7
0 -23 7 -35 16 -25 17 -55 8 -30 -10 17 -13 42 -56 35 -62 -2 -2 -16 5 -30 17
-34 26 -37 74 -6 84 18 6 20 13 15 47 -3 21 -8 43 -11 48 -3 4 16 20 41 35
l47 27 -7 84 c-12 150 -41 223 -118 304 -83 86 -111 99 -215 101 -152 4 -270
-148 -235 -301 16 -71 85 -223 121 -268 35 -45 36 -49 17 -71 -22 -24 -23 -43
-3 -46 9 -2 15 1 11 6 -3 5 2 9 11 9 9 0 13 -4 10 -10 -3 -5 3 -10 14 -10 14
0 19 -5 15 -15 -4 -10 0 -15 11 -15 9 0 13 -4 10 -10 -3 -5 -1 -10 4 -10 6 0
11 -7 11 -15 0 -8 10 -23 22 -35 28 -26 20 -33 -21 -17 -31 11 -34 10 -58 -18
-15 -17 -21 -31 -14 -33 13 -4 15 -29 1 -34 -5 -1 0 -14 11 -28 l21 -25 -5 23
c-5 21 -3 23 19 18 17 -5 24 -2 24 8 0 7 10 16 23 20 32 9 39 7 31 -6 -5 -8
-2 -9 9 -5 10 4 16 2 14 -5 -1 -7 14 -20 34 -29 19 -10 41 -24 48 -33 12 -14
9 -16 -21 -16 -19 0 -60 5 -91 10 -70 13 -97 -4 -97 -60 0 -45 23 -81 41 -63
6 6 17 9 24 7 15 -6 28 23 14 32 -6 3 -3 11 8 20 24 18 31 17 37 -4 4 -10 31
-29 62 -41 30 -13 52 -26 49 -30 -4 -3 -43 -6 -88 -6 l-82 0 -3 -31 c-2 -19 3
-36 12 -44 18 -14 20 -7 6 21 -11 20 -12 20 58 23 17 1 32 -3 32 -7 0 -5 6 -7
14 -4 7 3 23 -5 35 -19 17 -19 28 -23 57 -19 34 4 60 15 37 15 -6 0 -13 7 -17
15 -5 13 -2 13 19 -1 14 -9 25 -18 25 -21 0 -9 -71 -33 -100 -33 -28 0 -31 -2
-24 -22 4 -13 11 -36 15 -53 44 -176 138 -489 150 -500 8 -9 38 -18 65 -21 45
-6 55 -3 99 27 28 18 53 37 56 42 3 4 -6 59 -21 120 -15 62 -30 127 -33 145
l-6 32 52 0 c91 0 124 -9 125 -34 0 -11 9 -71 21 -133 34 -179 92 -579 99
-686 l7 -97 -35 -6 c-78 -13 -145 -39 -154 -60 -5 -12 -25 -31 -43 -44 -19
-13 -56 -48 -83 -79 -51 -58 -67 -75 -119 -121 -17 -16 -31 -37 -31 -47 1 -17
1 -17 14 0 13 16 14 11 15 -47 0 -36 -4 -68 -9 -71 -6 -4 -10 -14 -10 -23 1
-16 2 -16 13 -1 11 15 17 7 41 -55 48 -118 103 -208 151 -243 42 -31 43 -34
35 -69 -5 -21 -8 -42 -7 -48 2 -10 -4 -12 -38 -15 -13 -1 -14 -5 -5 -21 15
-27 -5 -26 -24 1 -8 12 -12 28 -9 35 3 8 1 14 -4 14 -19 0 -22 -13 -8 -40 16
-30 9 -46 -12 -29 -9 8 -13 8 -13 1 0 -6 9 -16 20 -22 11 -6 20 -15 20 -20 0
-5 -16 0 -36 12 -43 25 -44 6 -2 -25 23 -17 30 -18 64 -7 22 7 44 17 49 23 7
7 4 8 -7 4 -23 -8 -22 -5 1 34 17 27 80 79 97 79 3 0 23 -13 44 -30 21 -16 43
-30 48 -30 6 0 28 22 49 50 21 27 41 49 44 50 4 0 10 -21 14 -47 13 -94 58
-279 76 -317 10 -21 28 -73 39 -114 42 -152 160 -393 219 -446 18 -16 21 -31
21 -100 -1 -80 -1 -80 -15 -48 -10 24 -12 39 -5 52 23 43 -1 88 -33 62 -7 -6
-48 -10 -93 -9 -76 2 -84 5 -118 35 -43 38 -50 39 -83 12 -14 -11 -34 -20 -43
-20 -10 0 -21 -7 -24 -16 -11 -27 13 -44 62 -44 61 0 203 -30 223 -47 21 -18
13 -63 -11 -63 -10 0 -20 -7 -24 -15 -3 -8 -11 -12 -19 -10 -7 3 -31 -1 -53
-9 -39 -13 -104 -10 -132 8 -21 13 -12 -18 14 -48 25 -29 26 -29 145 -30 94
-1 122 2 129 13 7 12 11 12 24 2 9 -7 25 -11 35 -8 17 4 21 -2 25 -47 10 -90
46 -485 62 -676 61 -733 91 -1005 134 -1225 16 -82 48 -278 70 -435 40 -275
42 -295 44 -570 3 -288 4 -295 46 -451 6 -20 10 -44 10 -53 0 -10 -36 -90 -80
-179 -78 -157 -80 -164 -80 -234 0 -39 -7 -100 -15 -135 -10 -44 -12 -80 -6
-120 4 -31 4 -64 -1 -72 -5 -8 -36 -32 -70 -52 -34 -21 -56 -40 -49 -42 7 -2
-22 -24 -64 -48 -82 -48 -135 -109 -135 -153 0 -20 -10 -32 -41 -51 -22 -14
-47 -38 -56 -54 -8 -16 -18 -24 -22 -19 -9 15 -91 -25 -91 -44 0 -12 -6 -13
-27 -8 -52 14 -66 11 -73 -15 -4 -17 -8 -21 -14 -12 -4 6 -4 17 -1 22 11 17
-1 11 -30 -16 -27 -25 -59 -26 -105 -4 -8 4 -28 13 -45 20 -16 7 -38 17 -48
22 -23 11 -108 3 -199 -19 -62 -15 -68 -19 -68 -43 0 -14 -5 -31 -11 -37 -17
-17 7 -47 67 -85 102 -64 147 -98 131 -98 -33 0 -5 -26 51 -47 94 -36 348 -70
549 -75 50 -1 73 4 113 25 29 15 52 22 56 16 4 -6 12 -5 22 3 15 12 16 11 4
-4 -8 -9 -19 -15 -27 -12 -7 3 -16 1 -20 -5 -3 -6 -40 -26 -81 -45 -41 -19
-77 -41 -80 -49 -3 -8 -23 -20 -45 -27 -22 -8 -53 -28 -69 -47 -16 -18 -32
-28 -35 -23 -6 9 -82 7 -91 -3 -3 -2 10 -28 28 -56 36 -59 31 -85 -15 -85 -26
0 -41 6 -128 50 -58 30 -118 31 -213 3 -134 -39 -161 -60 -131 -105 13 -21 13
-23 0 -18 -22 9 -19 -18 5 -49 11 -14 45 -41 75 -62 30 -20 53 -40 50 -45 -11
-18 28 -31 151 -50 203 -30 402 -42 609 -37 187 5 220 8 280 21 27 6 28 6 6
-4 -34 -15 -20 -23 15 -9 16 7 44 11 62 10 21 -2 32 2 32 11 0 10 3 9 10 -2 7
-11 10 -11 10 -2 0 7 4 11 8 8 5 -3 24 -1 43 3 19 5 68 12 109 15 41 3 93 10
115 16 22 5 48 7 58 4 10 -3 24 0 32 6 8 6 27 11 42 10 46 -3 51 2 8 9 -33 5
-21 9 75 20 63 7 144 19 180 27 58 13 70 20 110 66 42 48 44 55 45 112 1 34
-2 64 -7 67 -4 3 1 15 13 28 28 30 41 78 32 126 -4 22 -6 45 -4 50 2 6 -2 51
-9 100 -10 76 -9 106 6 195 28 177 29 170 -11 215 -34 40 -35 40 -35 13 0 -23
-12 -40 -30 -44 -3 0 -30 -13 -60 -27 l-55 -27 -7 27 c-7 27 7 57 23 48 12 -8
71 19 88 38 11 14 11 20 1 32 -13 16 -7 30 13 30 6 0 14 14 18 30 4 17 14 46
22 66 9 20 21 85 27 144 6 60 13 112 16 117 3 4 9 106 14 226 6 119 12 231 15
247 9 59 6 440 -4 467 -5 15 -8 37 -5 50 2 13 9 73 16 133 13 128 -3 523 -27
665 -8 49 -14 145 -13 225 1 140 -5 201 -23 263 -15 46 -25 40 -21 -13 7 -81
-4 -87 -55 -30 -38 43 -44 55 -39 83 4 30 69 122 86 122 4 0 11 -12 14 -26 12
-47 18 -18 8 38 -12 61 1 392 18 478 21 107 15 172 -20 242 -18 34 -41 75 -51
90 -29 40 -23 45 13 9 22 -23 33 -28 39 -19 5 8 13 2 26 -20 10 -18 21 -32 25
-32 3 0 6 42 6 93 -1 50 4 110 10 132 7 22 12 84 12 137 0 78 -5 113 -27 180
-15 46 -28 90 -29 98 -2 8 -6 33 -10 55 -9 51 2 41 19 -16 l14 -44 27 90 c39
127 44 142 45 125 0 -8 -10 -58 -24 -110 -18 -70 -21 -96 -12 -102 6 -4 13 -5
15 -4 6 7 33 218 29 229 -2 7 4 30 13 52 9 22 20 68 23 103 6 58 12 69 78 155
l71 92 107 36 c58 20 126 46 151 59 25 13 81 36 125 51 63 21 80 31 79 46 -1
10 -9 74 -18 143 -17 130 -20 177 -10 168 3 -3 12 -66 20 -139 8 -73 17 -135
19 -138 9 -8 5 62 -6 129 -6 36 -13 148 -15 250 -12 674 -24 942 -44 980 -4 8
-11 40 -15 70 -4 30 -9 58 -11 62 -3 4 -7 70 -9 146 -4 149 -18 274 -40 362
-17 65 -51 320 -60 440 -3 47 -11 121 -16 165 -6 44 -12 89 -13 100 -1 12 -6
27 -12 35 -5 8 -10 24 -10 35 -1 11 -4 43 -7 70 -4 28 -9 86 -12 130 -8 107
-52 451 -69 545 -8 41 -22 136 -31 210 -10 74 -21 141 -25 149 -4 8 -8 -39 -9
-105 -1 -146 -19 -407 -31 -454 -10 -39 -4 160 10 298 21 220 -43 565 -120
647 -16 17 -52 77 -81 134 -30 61 -59 105 -69 108 -11 3 -31 34 -50 76 -17 40
-47 90 -66 111 -38 43 -38 43 -34 -45 2 -54 -21 -56 -70 -6 l-41 42 36 -70
c29 -54 35 -76 30 -102 -4 -25 0 -43 19 -75 38 -65 88 -188 84 -206 -2 -9 -16
15 -31 54 -62 160 -198 311 -312 348 l-50 16 49 -4 50 -4 -25 19 c-13 10 -32
19 -41 19 -26 0 -30 17 -6 23 21 6 21 7 -11 37 -24 24 -30 35 -21 45 8 10 5
14 -14 19 -13 3 -27 13 -30 22 -5 13 0 16 29 12 19 -2 35 0 35 4 0 4 -8 8 -17
9 -10 1 -25 2 -33 3 -8 2 -26 3 -40 5 -24 2 -25 2 -5 17 11 8 29 14 40 13 43
-3 49 2 20 18 -41 22 -66 44 -59 54 3 5 11 6 17 2 11 -6 -3 13 -45 60 -9 11
-43 29 -75 39 -32 11 -60 23 -63 27 -3 3 -17 14 -32 24 -16 10 -28 22 -28 27
0 6 19 24 43 41 40 30 41 31 12 25 -16 -4 -38 -9 -48 -12 -13 -4 -20 1 -24 15
-3 12 -8 21 -12 21 -4 0 -15 22 -25 49 -20 56 -49 91 -75 91 -10 0 -31 -10
-47 -22z"/>
<path d="M1007 13331 c-20 -27 -50 -60 -69 -74 -43 -32 -461 -213 -537 -232
-32 -9 -82 -28 -112 -43 -30 -14 -65 -29 -79 -32 -35 -7 -51 -48 -57 -143 -5
-85 -31 -181 -57 -219 -9 -12 -16 -37 -16 -56 0 -18 -7 -49 -15 -69 -8 -19
-15 -48 -15 -63 0 -15 -10 -56 -22 -91 -23 -64 -23 -68 -26 -786 l-3 -722 47
-83 c26 -46 75 -128 109 -183 34 -55 83 -137 108 -182 56 -98 56 -102 31 -416
-11 -134 -14 -241 -9 -317 4 -63 8 -150 10 -194 2 -49 8 -83 16 -91 20 -20
160 -55 218 -55 58 0 55 5 71 -130 20 -179 72 -434 84 -419 1 2 -8 105 -20
229 -13 124 -31 332 -40 464 l-16 238 43 45 c108 111 161 130 212 79 14 -14
32 -26 39 -26 9 0 9 3 -2 10 -20 13 -4 13 20 0 14 -7 23 -6 34 5 8 8 19 15 24
15 6 0 12 5 14 12 3 8 21 12 46 11 23 -1 42 2 42 6 0 18 42 55 63 55 40 0 86
-27 97 -58 5 -15 7 -33 4 -38 -9 -14 17 -68 33 -68 9 0 13 -8 11 -24 -4 -29
18 -56 46 -56 21 0 60 -19 41 -20 -5 0 -2 -7 8 -14 16 -13 16 -15 -13 -40
l-31 -26 21 -30 c12 -16 24 -30 28 -30 3 0 1 5 -6 12 -8 8 -5 15 15 25 21 11
28 11 35 1 6 -8 7 0 3 22 -8 45 -13 58 -66 166 -24 50 -43 98 -41 107 3 13 21
16 103 19 136 4 143 1 136 -62 -5 -40 -2 -53 15 -75 24 -30 38 -20 38 28 0 56
72 146 106 133 16 -6 15 -8 -4 -26 -19 -18 -52 -104 -52 -136 0 -6 7 -25 15
-40 8 -16 15 -37 15 -46 0 -24 33 -76 59 -95 20 -13 23 -13 41 9 11 13 17 30
14 38 -14 36 -16 81 -5 94 10 11 9 21 -4 46 -11 21 -14 41 -9 59 8 28 6 70 -4
86 -10 16 -2 49 15 62 22 17 43 5 43 -26 0 -38 16 -59 32 -43 6 6 19 12 27 12
8 0 22 7 31 15 10 9 51 33 91 53 69 35 74 40 71 67 -2 24 3 34 27 48 45 26
101 20 101 -11 0 -8 -12 -30 -26 -49 -28 -36 -26 -68 3 -59 10 3 47 10 82 14
79 11 101 -4 101 -71 0 -50 26 -469 40 -647 26 -330 33 -471 24 -480 -6 -6
-21 -10 -34 -11 -14 0 -124 -5 -245 -10 -308 -13 -1065 -47 -1279 -59 -99 -5
-183 -7 -188 -4 -11 7 -10 -38 2 -111 6 -33 15 -94 20 -135 5 -41 16 -113 25
-159 8 -45 14 -112 13 -147 -3 -53 -6 -64 -20 -64 -12 0 -18 8 -18 24 0 32
-37 41 -86 20 -26 -11 -57 -15 -92 -12 -61 5 -80 -12 -43 -39 18 -12 21 -23
19 -55 -4 -57 -24 -67 -74 -36 -21 14 -57 28 -79 31 -22 3 -51 9 -64 13 -18 5
-23 4 -19 -7 2 -7 18 -17 34 -21 17 -4 40 -19 53 -32 28 -30 22 -57 -21 -87
-26 -19 -38 -21 -102 -16 -84 7 -191 33 -223 53 -12 8 -25 14 -28 14 -3 0 -5
-34 -5 -75 0 -41 2 -75 4 -75 2 0 22 7 45 15 23 8 92 17 154 20 61 3 120 8
130 11 10 3 40 0 68 -7 34 -9 53 -10 57 -3 4 6 16 14 27 18 19 7 19 8 2 17
-25 15 -21 27 13 34 20 4 37 2 46 -6 14 -12 14 -14 -1 -25 -15 -11 -15 -13 0
-22 9 -5 49 -7 88 -4 70 4 73 3 101 -27 23 -24 38 -31 68 -31 31 0 40 -4 47
-24 9 -23 34 -219 46 -356 11 -126 45 -300 80 -406 l33 -101 -8 -164 c-10
-184 -4 -341 15 -379 7 -14 27 -37 44 -53 17 -15 31 -33 31 -41 0 -7 14 -44
31 -81 l31 -68 -16 -57 c-9 -31 -16 -71 -16 -89 0 -17 -14 -74 -32 -126 -34
-100 -32 -128 6 -81 18 24 26 27 42 18 11 -6 26 -22 33 -36 18 -33 3 -53 -46
-62 -23 -4 -38 -15 -45 -30 -8 -18 -19 -24 -41 -24 l-30 0 6 -55 c15 -142 98
-178 311 -135 60 12 127 29 150 37 66 24 244 31 448 18 166 -11 246 4 334 65
67 45 88 70 62 70 -15 1 -58 64 -58 86 0 8 -6 14 -13 14 -8 0 -22 9 -31 19
-10 11 -30 24 -45 31 -37 15 -59 55 -43 78 20 29 72 132 72 143 0 6 -7 17 -15
25 -40 40 18 74 59 35 l23 -21 1 37 c1 21 2 54 2 73 1 42 17 62 41 55 23 -8
31 12 48 109 14 78 5 99 -24 56 -31 -47 -116 -54 -130 -11 -3 11 16 69 48 142
81 186 116 289 142 412 13 62 29 134 35 162 27 119 51 314 60 495 12 236 27
372 46 424 24 63 32 122 38 281 10 248 16 332 37 510 11 94 23 251 26 350 6
200 10 215 72 264 l39 31 1 118 c1 64 6 157 11 206 8 70 7 104 -5 165 -8 42
-18 129 -21 193 -4 75 -10 116 -16 112 -6 -4 -7 -46 -3 -118 8 -117 1 -132
-20 -43 -13 56 -9 154 7 174 5 7 5 12 -2 15 -8 2 -8 12 0 33 6 17 12 70 13
119 1 71 -2 91 -15 100 -15 11 -15 16 3 56 11 24 35 62 53 84 18 23 37 52 41
66 4 14 32 75 62 135 30 61 64 133 75 160 10 28 30 73 43 101 42 89 49 133 31
205 -9 36 -15 105 -15 159 1 62 -5 110 -15 137 -12 34 -14 68 -9 161 5 104 3
128 -16 189 -11 39 -21 84 -21 100 0 27 -52 188 -64 200 -3 4 -6 -3 -6 -15 0
-23 -45 -132 -55 -132 -8 0 5 65 22 115 23 65 26 128 8 191 -22 81 -36 114
-46 114 -5 0 -10 17 -10 38 -1 26 -3 29 -6 12 -8 -48 -12 -53 -28 -40 -16 14
-12 44 10 70 16 19 28 85 20 111 -4 11 -16 24 -27 28 -20 7 -58 88 -58 123 0
9 -6 23 -13 30 -8 7 -20 44 -27 82 -8 46 -18 69 -29 73 -9 3 -37 13 -63 24
-60 24 -76 25 -55 1 10 -10 17 -21 17 -24 0 -10 -111 47 -179 91 -35 22 -102
52 -150 67 -47 14 -103 35 -123 45 -45 23 -62 24 -54 4 7 -20 2 -19 -50 11
-25 15 -46 25 -48 23 -1 -2 -7 -20 -12 -39 l-10 -35 -30 78 c-31 79 -44 88
-44 31 0 -17 -9 -51 -20 -75 -11 -24 -20 -62 -20 -85 0 -22 -7 -63 -15 -90
-18 -61 -18 -62 1 -38 14 17 15 11 10 -78 -4 -54 -9 -112 -13 -129 -4 -20 -2
-30 4 -26 10 6 24 -353 28 -718 1 -104 5 -211 9 -237 6 -32 3 -68 -8 -116 -14
-62 -14 -79 -2 -144 8 -40 17 -140 20 -223 3 -82 15 -211 27 -285 18 -114 20
-162 15 -310 -3 -103 -11 -200 -20 -235 -39 -158 -35 -149 -79 -169 -103 -45
-164 -60 -239 -59 -43 1 -80 -3 -83 -8 -9 -14 -77 -10 -109 6 -27 14 -32 14
-63 -5 -19 -11 -40 -20 -47 -20 -7 0 -41 19 -74 41 -52 35 -62 46 -62 70 0 16
-5 38 -12 48 -15 25 2 232 42 497 41 270 61 644 45 840 -7 96 -7 103 15 131
l22 31 -21 28 c-19 26 -23 55 -36 249 -8 121 -17 283 -20 360 -3 77 -9 169
-15 205 -5 36 -10 121 -10 190 0 70 -7 158 -15 200 -8 41 -20 100 -26 130 -6
30 -9 76 -6 103 4 26 4 47 2 47 -2 0 -19 -22 -38 -49z m2 -3007 c34 -25 61
-50 61 -54 0 -5 -44 -45 -98 -88 -102 -83 -197 -180 -215 -219 -6 -13 -14 -23
-18 -23 -9 0 -129 148 -129 159 0 23 169 206 226 245 59 40 100 35 173 -20z
m695 -2259 c8 -77 18 -192 22 -255 4 -63 13 -133 21 -155 10 -29 13 -67 9
-140 -3 -55 -11 -185 -16 -290 -12 -220 -19 -299 -27 -291 -3 3 -14 63 -25
133 -16 109 -19 205 -23 653 -5 633 1 686 39 345z m47 -2102 c47 -57 54 -159
15 -202 -45 -49 -81 -14 -91 86 -6 60 -4 77 11 102 21 35 44 40 65 14z"/>
<path d="M14185 13188 c25 -43 34 -95 15 -83 -6 3 -13 0 -16 -8 -3 -8 -13 -13
-23 -10 -12 3 -20 -2 -23 -15 -5 -17 1 -22 41 -32 41 -10 49 -16 60 -46 7 -18
9 -39 5 -45 -9 -16 -104 -2 -127 19 -16 14 -19 14 -27 2 -5 -9 -26 -15 -47
-16 -139 -4 -186 -7 -170 -11 26 -7 2 -33 -29 -33 -26 0 -30 10 -13 27 7 7
-20 13 -95 18 -57 4 -112 12 -121 19 -11 8 -20 34 -24 72 l-7 59 -12 -55 c-7
-30 -22 -65 -34 -77 -16 -17 -18 -26 -10 -36 6 -7 10 -24 7 -36 -3 -17 1 -25
15 -28 16 -4 20 -14 20 -46 0 -31 3 -38 12 -29 6 6 11 26 10 44 -1 18 1 40 4
49 8 27 54 29 114 6 30 -12 60 -22 67 -23 6 -1 42 -9 80 -18 37 -8 102 -20
143 -25 41 -6 116 -21 165 -34 110 -29 155 -66 155 -127 0 -37 1 -38 47 -46
48 -9 48 -9 51 -52 2 -37 0 -44 -18 -49 -16 -4 -18 -8 -9 -19 15 -18 29 -18
29 0 0 11 20 26 35 26 3 0 10 -10 16 -22 11 -21 11 -22 -4 -9 -14 11 -17 11
-17 0 1 -8 22 -30 48 -49 55 -41 158 -141 190 -183 25 -35 28 -64 8 -89 -12
-16 -21 -12 -112 43 -54 32 -110 67 -124 76 -14 9 3 -9 36 -40 55 -50 61 -60
58 -89 -1 -18 -3 -39 -3 -45 -1 -7 -10 -13 -21 -13 -13 0 -18 -5 -14 -15 4 -8
1 -15 -5 -15 -6 0 -11 -4 -11 -8 0 -10 73 -52 90 -52 7 0 48 -23 91 -51 72
-48 171 -150 223 -231 10 -15 31 -30 47 -33 16 -4 33 -14 39 -23 7 -12 9 2 10
51 0 66 -1 68 -40 104 -23 20 -50 49 -61 64 -17 24 -18 29 -4 43 16 15 62 13
80 -5 5 -5 13 -9 17 -9 4 0 8 146 8 325 0 303 -1 328 -21 379 -11 31 -23 55
-27 54 -4 -1 -22 6 -39 15 -36 19 -39 17 -34 -43 1 -25 1 -24 -26 8 -16 18
-34 32 -40 32 -7 0 -13 5 -13 10 0 14 -27 13 -32 -2 -7 -20 -206 169 -234 223
-7 15 -22 30 -31 33 -10 3 -37 28 -61 56 -39 45 -72 64 -72 41 0 -10 61 -71
71 -71 15 0 69 -85 85 -134 10 -28 34 -72 56 -99 21 -27 38 -55 38 -62 0 -26
-37 -3 -59 36 -23 40 -54 64 -71 54 -5 -3 -35 34 -66 82 -31 49 -65 100 -74
114 -17 23 -17 26 -1 36 14 10 11 17 -28 56 -24 25 -40 50 -37 56 11 17 -73
101 -100 101 l-23 0 24 -42z"/>
<path d="M1453 12748 c-28 -29 -61 -60 -73 -68 -36 -24 -50 -40 -51 -58 -1
-32 -9 -87 -19 -132 -5 -25 -9 -67 -8 -95 0 -27 -4 -69 -10 -92 -7 -23 -9 -59
-6 -80 3 -21 5 -49 5 -62 -1 -20 1 -21 14 -11 8 7 15 20 15 29 0 9 63 82 140
161 93 97 140 152 140 167 0 17 -30 -9 -132 -114 -130 -132 -133 -135 -136
-105 -2 24 4 38 30 64 18 18 42 44 52 58 11 14 -2 4 -28 -22 -49 -50 -56 -55
-56 -38 0 12 21 37 143 169 93 102 102 119 89 165 l-8 30 -20 -31 c-10 -17
-57 -74 -104 -126 -63 -70 -88 -92 -98 -84 -24 19 -1 79 57 150 103 127 131
162 131 170 0 17 -20 4 -67 -45z"/>
<path d="M5396 12733 c-217 -114 -301 -281 -341 -674 -22 -222 -21 -233 19
-282 18 -23 41 -58 51 -77 10 -19 31 -50 46 -68 31 -35 40 -64 14 -42 -8 7
-12 16 -9 21 3 5 -2 6 -10 3 -12 -4 -22 6 -36 37 -16 37 -20 40 -20 18 0 -32
55 -124 128 -212 76 -92 127 -166 169 -251 54 -110 136 -245 144 -240 10 6 31
-33 34 -61 4 -35 5 -36 17 -29 7 5 8 3 4 -5 -5 -7 -1 -20 7 -29 26 -29 74
-134 91 -199 19 -71 20 -87 6 -78 -15 9 -12 -7 6 -30 11 -14 14 -40 13 -86 -3
-84 11 -109 25 -49 6 24 17 46 25 48 8 3 11 0 7 -6 -8 -14 24 -25 39 -12 8 7
12 5 12 -5 0 -7 -3 -14 -6 -13 -3 0 -12 0 -18 -1 -18 -1 -16 -21 1 -21 20 0
25 -33 10 -69 -7 -17 -9 -31 -4 -31 6 0 10 7 10 15 0 8 5 15 11 15 6 0 8 -7 5
-16 -4 -10 -1 -14 6 -11 8 2 12 16 10 35 -5 46 12 39 32 -11 19 -51 21 -82 2
-48 -13 23 -13 23 -19 2 -5 -21 7 -35 32 -36 20 0 26 -25 7 -25 -10 0 -16 -9
-16 -25 0 -26 -14 -33 -26 -14 -3 6 -2 14 3 18 7 4 7 15 1 31 -7 20 -11 22
-19 10 -8 -13 -11 -13 -22 1 -16 21 -47 20 -47 -2 0 -10 5 -21 12 -25 6 -4 8
-3 5 3 -4 6 0 13 8 17 18 7 20 -16 4 -47 -11 -22 -11 -22 10 1 25 25 43 29 35
7 -4 -8 -11 -12 -17 -8 -6 4 -8 0 -4 -10 4 -11 1 -17 -9 -17 -22 0 -7 -19 24
-31 18 -7 28 -6 34 3 6 10 8 10 8 -1 0 -7 6 -11 15 -7 8 3 14 0 12 -7 -1 -6 9
-13 23 -15 20 -3 22 -2 12 11 -10 12 -9 16 4 21 9 4 18 5 19 4 0 -2 22 -33 48
-70 52 -74 55 -81 30 -76 -10 2 -18 12 -18 22 0 11 -5 21 -11 23 -7 2 -10 -5
-7 -21 3 -15 -2 -31 -14 -43 -25 -25 -27 -64 -3 -70 17 -4 18 -11 13 -52 -3
-25 -9 -48 -13 -51 -3 -3 -17 -21 -30 -40 l-23 -35 29 26 c16 14 37 29 47 32
10 4 17 17 17 32 0 39 22 165 29 165 3 0 7 -17 9 -38 3 -42 21 -104 33 -112 7
-5 3 -52 -16 -189 -3 -26 -1 -31 7 -23 17 17 33 15 18 -3 -10 -12 -10 -15 3
-15 22 0 34 20 42 73 9 56 20 68 30 30 6 -24 8 -26 16 -10 9 15 12 15 25 3 8
-8 14 -19 14 -24 0 -6 7 -12 15 -16 8 -3 15 -9 14 -13 -1 -4 -1 -33 0 -64 l1
-56 48 1 c41 1 47 -2 50 -21 4 -27 18 -30 26 -5 3 9 4 -7 2 -35 -3 -58 4 -68
21 -25 11 27 11 27 12 -12 1 -45 11 -40 26 12 6 19 15 37 21 39 5 2 33 -18 60
-44 44 -42 52 -56 62 -107 7 -33 15 -62 18 -65 3 -3 15 5 27 19 l22 25 25 -27
c16 -17 27 -23 32 -15 4 6 9 -2 13 -19 11 -49 14 -54 30 -54 13 0 15 7 10 33
-5 31 -5 31 8 9 l13 -23 13 27 12 27 27 -26 c15 -14 44 -32 64 -41 29 -11 36
-19 32 -33 -4 -13 -3 -14 4 -5 7 11 12 11 23 -2 30 -33 38 -44 33 -49 -8 -8
29 -77 38 -71 4 3 5 11 1 17 -4 7 0 6 10 -2 9 -7 17 -19 17 -25 0 -6 -5 -4
-10 4 -6 9 -10 10 -10 3 0 -20 18 -24 29 -6 10 17 10 17 11 0 0 -11 5 -15 11
-11 20 12 125 -113 171 -204 24 -48 60 -109 81 -135 20 -27 41 -56 46 -65 8
-14 12 -13 30 8 14 17 19 33 16 50 -4 19 -3 21 5 10 5 -8 10 -25 10 -37 0 -13
5 -23 10 -23 19 0 22 30 7 63 -25 53 -29 76 -17 94 9 16 10 15 9 -7 -1 -14 1
-33 5 -42 3 -10 8 -25 11 -34 11 -34 18 -2 17 75 -2 77 -16 140 -29 127 -3 -3
-13 0 -21 7 -13 10 -14 9 -4 -10 14 -26 15 -62 2 -83 -7 -12 -11 -10 -18 10
-6 14 -6 26 -1 28 5 2 9 13 8 25 0 21 -1 21 -9 2 -7 -18 -8 -18 -15 8 -4 16
-4 56 -1 89 5 40 4 63 -4 68 -6 3 -13 17 -15 31 -20 109 -67 199 -151 291 -17
18 -41 52 -54 76 -13 23 -30 42 -37 42 -8 0 -16 7 -19 15 -4 8 -12 15 -20 15
-7 0 -18 9 -24 20 -6 11 -17 20 -25 20 -8 0 -15 4 -15 9 0 5 -12 22 -27 38
-16 17 -37 42 -48 58 -11 15 -32 41 -47 58 -15 17 -32 43 -39 59 -6 15 -15 28
-20 28 -5 0 -9 8 -9 18 0 10 -9 24 -20 32 -11 8 -20 20 -20 26 0 6 -7 17 -15
24 -8 7 -24 39 -36 71 -12 33 -25 59 -29 59 -8 0 -21 40 -17 50 2 6 -43 82
-54 90 -3 3 -13 19 -22 35 -9 17 -28 44 -42 60 -14 17 -36 41 -48 55 -106 124
-171 195 -178 192 -5 -1 -9 7 -9 17 0 11 -3 21 -7 23 -12 5 -63 86 -63 100 -1
19 -25 48 -41 48 -12 0 -12 2 0 9 8 5 11 17 8 27 -17 57 -35 96 -53 115 -17
20 -17 22 -1 16 21 -8 22 6 2 23 -9 8 -13 21 -9 32 4 14 0 21 -14 25 -12 3
-23 12 -27 20 -4 13 -3 13 8 4 24 -19 7 41 -17 63 -17 15 -17 18 -3 13 21 -8
21 -9 -3 48 -11 25 -19 49 -18 53 1 8 -9 39 -21 62 -5 9 -12 36 -15 60 -8 49
-22 103 -36 135 -15 36 -58 231 -94 435 -2 14 -5 25 -7 25 -2 0 -3 10 -14 95
-4 30 -11 62 -15 70 -7 14 -21 83 -25 120 0 9 -4 21 -9 28 -4 7 -6 34 -5 60 1
27 -1 53 -5 60 -4 6 -10 35 -13 64 -6 52 -23 84 -38 70 -4 -4 -5 5 -1 21 4 17
2 27 -4 27 -6 0 -8 -5 -4 -12 5 -7 3 -8 -5 -4 -7 5 -10 14 -7 21 9 24 -29 48
-66 41 -26 -6 -29 -5 -15 4 19 12 23 30 6 30 -5 0 -7 -4 -4 -10 3 -5 -1 -10
-9 -10 -10 0 -13 6 -9 16 3 9 0 20 -8 25 -12 8 -12 11 1 19 11 7 12 10 2 10
-20 0 -45 29 -58 64 -7 20 -18 31 -30 31 -12 0 -19 7 -19 20 0 11 -6 20 -14
20 -8 0 -16 6 -19 14 -3 9 0 11 9 6 8 -5 10 -4 6 0 -8 10 -21 13 -82 20 -34 4
-54 -2 -129 -42z"/>
<path d="M13405 12480 c-10 -11 -27 -20 -37 -20 -17 0 -18 -9 -16 -152 l3
-152 35 -7 c19 -4 51 -10 71 -13 25 -4 39 -14 47 -32 7 -14 27 -31 45 -38 48
-20 181 -30 204 -16 24 15 89 -1 86 -21 -1 -8 23 -25 61 -43 36 -15 66 -36 69
-45 4 -15 63 -38 73 -28 8 8 -43 97 -58 100 -12 3 -18 15 -18 32 0 23 -3 26
-23 22 -27 -7 -39 0 -54 35 -11 24 -17 27 -42 22 -58 -12 -66 70 -10 103 16
10 29 21 29 25 0 13 -28 9 -37 -6 -11 -19 -52 -38 -64 -30 -6 3 -17 20 -25 38
l-13 31 -1 -32 c0 -28 -4 -33 -25 -33 -37 0 -58 38 -50 93 7 42 5 45 -19 51
-15 4 -29 13 -32 20 -5 12 -10 12 -31 1 -22 -11 -27 -11 -43 5 -11 11 -16 27
-13 39 3 11 3 28 -1 36 -5 13 -9 13 -26 3 -19 -11 -24 -10 -40 10 -22 27 -22
27 -45 2z m150 -208 c6 -4 16 -23 22 -43 l10 -36 -56 -7 c-31 -4 -72 -9 -93
-12 -28 -5 -41 -1 -57 15 -27 27 -14 56 32 76 34 15 125 20 142 7z"/>
<path d="M1586 12358 c-29 -41 -269 -277 -277 -273 -4 3 -10 1 -13 -4 -12 -18
-19 -348 -8 -367 9 -16 10 -16 10 6 0 80 35 129 249 336 45 45 73 80 73 93 0
12 -3 21 -6 21 -6 0 -194 -194 -252 -261 -19 -21 -38 -39 -43 -39 -5 0 -7 28
-5 61 4 61 5 62 72 132 114 118 157 161 197 194 37 32 42 43 39 96 -2 33 -15
35 -36 5z"/>
<path d="M1603 12006 c-4 -7 -66 -75 -138 -150 -71 -76 -134 -144 -138 -152
-4 -8 -14 -14 -21 -14 -9 0 -11 -12 -7 -42 3 -24 9 -43 13 -43 3 0 26 23 49
50 50 57 149 163 227 242 35 35 52 59 48 69 -3 9 -6 24 -6 35 0 22 -15 25 -27
5z"/>
<path d="M14237 11897 c-3 -8 -1 -20 4 -28 17 -27 9 -47 -22 -58 -38 -13 -64
7 -56 44 4 25 -6 34 -18 15 -9 -14 -48 -13 -63 2 -9 9 -12 6 -12 -14 0 -15 -4
-30 -10 -33 -20 -13 -9 -25 23 -25 46 0 64 -17 72 -69 l7 -44 -38 7 c-22 4
-48 10 -59 13 -14 4 -17 2 -10 -6 6 -6 49 -20 95 -32 160 -40 260 -99 260
-154 0 -14 5 -34 12 -45 9 -13 9 -27 2 -47 -8 -23 -16 -29 -46 -31 -28 -2 -40
2 -49 16 -12 18 -15 19 -36 5 -17 -12 -37 -14 -81 -8 -54 6 -56 6 -34 -10 12
-9 22 -25 22 -35 0 -10 5 -22 10 -25 6 -3 10 3 10 14 0 24 28 41 65 41 33 0
74 -45 75 -82 0 -24 4 -28 28 -28 32 0 56 -22 65 -61 4 -14 18 -31 32 -37 14
-6 25 -20 25 -29 1 -16 2 -16 16 2 8 11 12 30 9 42 -7 31 21 56 54 48 38 -10
53 -26 47 -51 -5 -17 1 -26 28 -42 35 -21 37 -32 19 -82 -3 -8 -5 -29 -4 -46
1 -18 -3 -35 -9 -39 -6 -4 -8 -20 -5 -38 10 -54 -11 -70 -92 -72 -38 -1 -79
-8 -91 -14 -11 -6 -28 -11 -37 -11 -15 0 -15 -1 0 -16 13 -14 21 -15 41 -5 45
20 54 15 54 -33 0 -46 -18 -64 -52 -51 -23 9 -41 -22 -42 -70 0 -25 -5 -45
-10 -45 -6 0 -4 -5 6 -10 18 -11 78 -2 78 11 0 5 -4 9 -10 9 -21 0 -9 26 20
44 17 9 28 21 25 26 -3 4 34 11 82 14 49 3 115 10 148 14 64 9 84 0 85 -41 0
-12 5 -16 13 -11 6 4 5 -1 -4 -11 -18 -18 -116 -34 -217 -35 -33 0 -51 -4 -47
-10 3 -5 14 -10 24 -10 14 0 17 -6 14 -24 -9 -43 -33 -55 -138 -67 -93 -10
-129 -24 -103 -40 6 -4 8 -14 5 -23 -4 -9 -2 -16 2 -16 5 0 11 6 13 12 4 10 8
9 19 -2 29 -29 29 -48 2 -55 -29 -7 -44 1 -19 11 9 3 16 12 16 20 0 16 -16 19
-25 4 -3 -5 -13 -6 -23 -3 -15 6 -15 5 -2 -11 13 -16 12 -18 -5 -15 -11 2 -32
-5 -47 -15 -16 -10 -35 -16 -43 -12 -25 9 -104 -23 -157 -65 -28 -21 -56 -39
-64 -39 -8 0 -14 -4 -14 -9 0 -5 10 -7 23 -4 21 4 22 4 3 -11 -11 -9 -23 -16
-28 -16 -4 0 -8 -5 -8 -11 0 -12 19 -10 120 16 36 9 81 15 100 13 l35 -3 -50
-23 c-27 -13 -72 -31 -100 -40 -27 -9 -61 -22 -75 -29 -14 -7 -31 -13 -37 -13
-7 0 -13 -3 -13 -8 0 -4 -15 -13 -32 -20 -58 -23 -118 -55 -118 -62 0 -22 44
-16 149 19 64 22 140 42 169 46 29 4 59 13 66 21 8 8 25 15 38 17 41 7 28 32
-16 30 -32 -2 -36 0 -26 12 6 7 24 17 40 20 16 3 34 13 41 21 6 8 21 14 33 13
19 -1 18 -2 -4 -9 -24 -8 -23 -8 8 -9 38 -1 43 -18 7 -27 -28 -7 -24 -24 6
-24 23 0 25 -16 3 -28 -13 -7 -14 -13 -5 -29 8 -16 7 -24 -5 -34 -13 -11 -12
-15 12 -36 19 -16 23 -23 11 -23 -9 0 -35 -22 -59 -50 -24 -27 -51 -50 -62
-50 -13 0 -17 -5 -13 -19 3 -14 1 -18 -9 -14 -10 3 -14 -3 -14 -20 0 -23 -29
-103 -30 -83 0 5 -10 0 -22 -11 -41 -38 -137 -76 -176 -69 -31 5 -39 0 -80
-41 -38 -37 -42 -44 -22 -38 14 4 47 14 74 21 26 7 66 24 87 38 49 33 57 32
64 -1 4 -16 8 -37 10 -47 2 -11 -1 -26 -7 -33 -15 -18 -6 -16 56 11 29 13 67
27 84 31 17 3 36 13 43 21 14 17 56 19 61 3 5 -15 67 12 93 41 21 24 114 73
162 84 15 4 44 17 63 29 19 12 38 21 42 20 3 -1 25 15 47 37 32 32 49 40 77
40 27 0 41 7 56 25 11 14 28 25 39 25 18 0 19 10 19 294 l0 294 -25 16 c-17
11 -25 26 -25 46 0 23 -7 33 -29 45 -17 8 -33 21 -37 27 -6 10 -5 10 7 1 11
-9 14 -7 15 11 1 16 -6 26 -27 33 -29 11 -54 55 -45 78 2 7 -6 17 -20 24 -16
7 -24 19 -24 35 0 14 -10 30 -26 40 -20 14 -25 24 -22 49 2 27 8 33 31 35 33
4 59 -14 55 -38 -2 -9 4 -25 12 -35 8 -10 14 -19 12 -19 -2 -1 1 -14 7 -29 6
-16 11 -33 11 -38 0 -5 10 -9 23 -9 34 0 50 -15 51 -47 1 -19 8 -31 23 -38 14
-6 24 -21 27 -40 2 -16 3 34 2 112 -1 79 -5 146 -9 150 -4 3 -20 -6 -35 -20
-34 -32 -43 -33 -67 -7 -13 15 -16 29 -12 57 7 38 -10 103 -25 103 -12 0 -61
-32 -70 -45 -3 -5 -15 -20 -26 -33 l-19 -22 -6 28 c-3 16 -2 46 3 68 14 57 12
63 -14 70 -29 7 -45 36 -48 89 -3 34 -8 42 -43 62 -52 30 -78 26 -86 -12 -5
-20 -7 -6 -8 42 -1 47 -5 73 -13 76 -7 3 -3 6 10 6 12 1 22 5 22 10 0 5 3 17
7 26 5 15 3 16 -18 5 -13 -7 -27 -17 -30 -23 -4 -5 -12 1 -19 13 -10 19 -9 29
10 62 l22 40 -20 21 c-16 15 -37 21 -86 24 -84 4 -114 16 -127 50 -8 22 -6 32
10 53 19 26 19 27 0 38 -23 14 -25 56 -5 94 12 23 12 27 -3 31 -9 3 -23 8 -32
11 -10 4 -19 2 -22 -7z"/>
<path d="M13365 11880 c-3 -11 -11 -20 -16 -20 -12 0 -12 -37 1 -45 6 -4 25 3
44 14 39 25 64 27 72 6 10 -24 63 -33 227 -38 158 -4 159 -4 169 19 22 47 0
54 -156 54 -77 0 -159 5 -181 10 -21 5 -44 5 -50 1 -19 -15 -55 -23 -55 -12 0
6 12 12 28 12 l27 1 -30 8 c-53 14 -73 11 -80 -10z"/>
<path d="M1569 11753 c-114 -117 -269 -291 -269 -302 0 -22 20 -20 39 5 26 34
139 158 235 258 42 44 76 88 76 98 0 10 -1 18 -3 18 -1 0 -37 -35 -78 -77z"/>
<path d="M1603 11627 c-27 -29 -106 -118 -176 -199 -101 -117 -127 -154 -127
-177 0 -17 4 -32 8 -35 4 -2 57 52 117 122 61 69 140 159 178 199 65 70 79 93
57 93 -7 0 -7 6 0 19 21 40 -9 29 -57 -22z"/>
<path d="M1570 11368 c-52 -61 -134 -154 -182 -207 -48 -53 -88 -104 -88 -113
0 -10 2 -18 5 -18 6 0 74 74 234 257 124 142 160 194 134 193 -5 0 -51 -51
-103 -112z"/>
<path d="M6693 11365 c-41 -25 -41 -26 -45 -89 l-3 -64 27 14 c37 19 41 18 35
-12 -2 -15 2 -31 10 -40 10 -10 13 -25 9 -47 -6 -35 6 -63 23 -53 16 10 14
-10 -5 -45 -18 -36 -12 -59 15 -59 23 0 33 14 35 44 1 19 6 21 66 18 72 -4 94
7 104 50 5 21 2 28 -15 33 -25 8 -34 0 -34 -28 0 -33 -23 -31 -44 4 -14 23
-17 37 -10 45 7 9 4 14 -12 19 -21 7 -21 11 -16 86 l6 78 -33 21 c-19 11 -37
27 -40 35 -8 21 -25 19 -73 -10z"/>
<path d="M1623 11257 c-33 -40 -119 -138 -191 -219 -103 -114 -133 -154 -136
-180 -2 -18 -2 -37 1 -41 6 -9 90 80 271 285 116 132 120 139 120 183 0 25 -1
45 -2 45 -2 0 -30 -33 -63 -73z"/>
<path d="M14315 11188 c-6 -15 -20 -18 -81 -18 -69 0 -74 -1 -65 -18 15 -29 2
-60 -28 -66 -91 -18 -102 -18 -121 -1 -17 16 -21 16 -42 1 -19 -13 -55 -16
-214 -16 -105 0 -206 -3 -223 -6 l-31 -7 25 -25 c25 -25 26 -25 150 -18 68 3
131 9 139 12 8 3 23 -3 34 -14 18 -18 19 -18 44 3 19 16 50 26 110 34 45 7 99
15 119 18 26 4 40 0 53 -12 9 -10 20 -15 23 -11 12 11 42 -25 35 -42 -3 -10
10 -3 32 16 36 32 40 33 94 26 53 -6 56 -6 42 11 -18 22 -20 39 -10 75 8 28 7
30 -18 30 -31 0 -47 9 -54 30 -5 13 -7 12 -13 -2z"/>
<path d="M7272 11164 c-11 -12 -17 -12 -28 -3 -11 9 -21 9 -37 2 -13 -6 -35
-9 -49 -6 -23 4 -29 0 -47 -42 -12 -26 -21 -52 -21 -57 0 -17 44 -47 78 -54
39 -8 53 -31 29 -49 -23 -16 -21 -27 6 -53 27 -25 63 -20 70 10 3 10 11 18 19
17 47 -6 52 23 8 46 -18 9 -30 23 -30 35 0 13 -7 20 -20 20 -26 0 -26 30 0 37
12 3 23 17 26 32 3 14 9 34 15 43 19 36 6 51 -19 22z"/>
<path d="M1604 11008 c-49 -57 -140 -157 -201 -225 -62 -67 -113 -129 -113
-138 0 -9 3 -15 8 -13 7 3 141 149 229 248 17 19 61 69 98 110 74 83 89 106
76 114 -4 3 -48 -40 -97 -96z"/>
<path d="M1705 10942 c-5 -4 -46 -47 -90 -97 -43 -49 -108 -122 -145 -160 -36
-39 -91 -99 -124 -134 l-58 -63 21 -19 c20 -19 21 -19 63 28 24 26 68 75 98
108 248 268 243 261 245 305 1 22 2 40 1 40 0 0 -5 -4 -11 -8z"/>
<path d="M9081 10796 c-17 -29 -31 -58 -31 -63 0 -6 14 -20 30 -33 33 -25 38
-51 15 -70 -14 -12 -21 -46 -28 -149 l-4 -53 34 37 c34 38 60 42 55 9 -6 -42
-4 -343 3 -353 4 -7 15 -9 25 -6 10 3 21 1 25 -5 8 -13 152 -13 160 0 10 16 6
299 -5 366 -13 79 0 94 52 59 20 -14 40 -25 43 -25 3 0 -6 22 -20 50 -14 27
-25 53 -25 58 0 4 16 16 35 25 21 10 35 24 35 35 0 16 -28 123 -34 130 -5 5
-75 -28 -81 -38 -3 -5 -14 -10 -25 -10 -10 0 -20 -6 -23 -14 -4 -9 -20 -14
-43 -14 -32 0 -44 7 -92 59 -30 32 -58 59 -62 59 -5 0 -22 -24 -39 -54z"/>
<path d="M1613 10460 c-65 -72 -119 -135 -121 -140 -2 -5 3 -17 11 -25 14 -13
19 -11 50 23 130 140 195 217 187 220 -6 2 -7 15 -4 28 3 13 4 24 1 24 -3 0
-58 -59 -124 -130z"/>
<path d="M8504 10263 c-23 -70 -29 -108 -31 -190 -1 -58 2 -105 8 -108 5 -4 7
-11 4 -16 -4 -5 10 -9 30 -9 22 0 38 -6 41 -15 10 -24 34 -18 80 20 51 42 81
45 94 10 14 -36 33 -31 77 18 58 67 132 70 116 6 -9 -33 24 -33 67 1 40 31 54
70 25 70 -8 0 -12 -6 -10 -12 9 -25 -10 -39 -38 -29 -27 11 -37 44 -17 56 6 4
8 9 6 13 -2 4 3 16 11 27 13 16 15 17 10 3 -10 -28 7 -21 26 11 42 71 -6 138
-55 76 -15 -20 -23 -23 -38 -15 -32 17 -37 12 -56 -57 -27 -102 -44 -139 -55
-122 -7 12 -9 12 -10 -1 0 -8 -5 -1 -10 15 -7 26 -2 96 13 154 6 25 -18 22
-30 -4 -17 -37 -36 -40 -65 -11 -31 31 -38 32 -68 6 l-24 -19 37 6 c35 5 37 4
46 -28 16 -64 -19 -149 -62 -149 -37 0 -60 33 -53 77 3 21 9 47 13 58 7 17 6
18 -8 7 -9 -7 -19 -37 -23 -67 -6 -48 -10 -56 -32 -61 -49 -13 -51 28 -3 81
15 18 32 53 39 85 6 30 17 73 22 96 17 64 9 98 -22 102 -25 3 -28 -2 -55 -85z"/>
<path d="M14972 9869 c-12 -5 -35 -20 -50 -34 -15 -14 -35 -28 -46 -31 -17 -6
-42 -23 -72 -52 -7 -7 -28 -18 -46 -24 -18 -7 -70 -49 -116 -95 -51 -52 -103
-93 -135 -109 -89 -42 -146 -79 -190 -121 -23 -22 -53 -46 -67 -53 -14 -7 -30
-21 -37 -30 -7 -10 -26 -23 -42 -30 -27 -11 -48 -37 -37 -47 9 -9 112 39 140
66 43 41 144 93 167 86 14 -5 19 -1 19 12 0 24 25 60 52 74 11 6 18 7 14 1 -3
-5 3 -12 14 -15 18 -5 24 -21 23 -63 0 -6 12 -10 28 -8 35 4 38 -13 6 -25 -13
-5 -38 -21 -56 -36 -34 -29 -236 -135 -256 -135 -7 0 -29 -15 -50 -34 -24 -22
-52 -37 -79 -41 -22 -4 -47 -12 -53 -17 -7 -6 -28 -7 -48 -4 -36 7 -95 -15
-95 -35 0 -6 -27 -9 -67 -8 -46 2 -81 -3 -108 -15 -22 -9 -56 -21 -75 -25
-102 -25 -236 -64 -246 -72 -6 -5 -25 -11 -41 -13 -24 -2 -123 -70 -123 -83 0
-1 44 14 98 33 53 20 119 38 146 41 28 3 61 14 75 24 29 21 124 52 115 38 -3
-5 2 -9 10 -9 25 0 19 -31 -11 -62 -15 -15 -22 -28 -16 -28 17 0 82 29 124 56
26 16 53 24 84 24 24 0 63 7 85 16 23 9 43 15 45 12 2 -2 -2 -16 -9 -30 l-14
-26 38 5 c34 5 38 3 44 -23 8 -30 3 -36 -55 -76 l-24 -17 25 0 c14 -1 42 10
62 24 30 20 136 54 171 55 4 0 7 -12 7 -27 0 -21 -16 -43 -67 -91 -38 -35 -92
-82 -121 -104 -30 -22 -51 -42 -49 -45 7 -6 67 25 67 36 0 4 11 14 25 21 38
20 182 152 222 203 12 15 90 34 99 24 13 -13 -29 -78 -77 -120 l-54 -47 80 36
c166 75 165 75 179 62 24 -23 -1 -69 -70 -131 -53 -48 -64 -64 -60 -82 4 -14
-6 -45 -23 -82 -16 -33 -43 -100 -61 -149 -31 -88 -49 -117 -82 -135 -26 -14
-55 5 -74 49 -15 35 -16 36 -30 18 -8 -11 -14 -23 -14 -28 0 -16 -30 -8 -40
11 -13 26 -13 104 1 134 11 24 89 77 115 77 11 0 13 -6 9 -20 -3 -11 -4 -20
-1 -20 16 0 96 104 96 125 0 4 -12 4 -26 1 l-27 -7 7 58 7 58 -38 -37 c-21
-20 -62 -61 -92 -90 -30 -29 -69 -80 -86 -113 -23 -43 -42 -65 -67 -77 -26
-12 -37 -25 -41 -48 -6 -30 -8 -31 -44 -24 -21 4 -41 9 -46 11 -8 5 2 83 13
98 4 6 10 23 14 38 11 47 -13 27 -48 -38 -30 -56 -34 -60 -76 -68 -99 -16
-154 -17 -178 -1 -22 15 -26 14 -46 -5 -18 -17 -39 -21 -156 -26 -188 -9 -182
-6 -174 -58 4 -23 13 -47 20 -53 18 -14 18 -30 1 -37 -9 -3 -16 -32 -21 -85
-7 -83 3 -132 27 -132 7 0 20 -9 30 -21 13 -14 27 -19 50 -17 18 2 31 8 30 14
-1 5 14 18 32 29 28 15 37 16 50 5 8 -7 15 -18 15 -26 0 -15 -35 -28 -50 -19
-10 6 -15 -13 -12 -47 1 -14 -3 -16 -22 -8 -13 5 -34 6 -46 3 -12 -3 -33 0
-46 8 -34 18 -58 2 -62 -41 l-3 -33 178 7 c328 14 314 12 335 34 23 23 17 62
-10 62 -12 0 -11 5 7 22 19 17 27 19 42 10 25 -16 46 -15 52 2 3 8 26 15 57
18 29 3 55 9 59 14 3 5 37 10 76 12 50 2 72 8 78 19 7 11 18 13 44 8 24 -4 33
-3 28 4 -3 6 -18 11 -33 11 -16 0 -22 4 -17 9 15 15 120 -3 140 -22 9 -9 23
-17 32 -17 8 0 23 -10 32 -22 19 -23 41 -18 41 11 0 10 6 23 13 28 21 18 85
25 108 12 16 -8 32 -8 63 1 33 9 49 8 85 -4 34 -12 63 -14 130 -9 109 10 169
7 187 -8 12 -10 14 -2 14 50 0 53 -2 61 -19 61 -11 0 -21 -5 -23 -12 -5 -15
-149 -14 -179 3 -13 6 -34 22 -46 33 -19 18 -34 21 -117 21 -53 0 -96 -4 -96
-8 0 -5 -4 -5 -10 -2 -5 3 -13 -7 -16 -22 -13 -50 -27 -56 -107 -47 -39 5 -80
8 -89 6 -10 -1 -18 5 -18 12 0 8 -5 16 -12 18 -6 2 -8 10 -4 16 9 14 58 16 72
2 5 -5 20 -7 33 -3 14 4 18 8 11 13 -17 10 73 38 96 29 16 -5 19 -1 20 27 0
19 -3 34 -8 34 -7 0 -12 -15 -9 -32 0 -5 -14 -8 -32 -8 -33 0 -57 15 -57 34 0
6 5 4 11 -4 8 -11 9 -6 6 20 -6 44 19 99 50 111 12 4 23 15 23 23 0 8 11 27
25 42 13 14 22 31 19 36 -8 12 25 98 37 98 5 0 9 6 9 13 0 21 41 50 53 38 8
-8 6 -11 -6 -11 -14 0 -16 -7 -12 -45 5 -42 3 -50 -30 -87 -19 -23 -35 -48
-35 -55 0 -17 18 -7 42 23 10 12 29 25 43 28 15 4 27 16 31 31 6 25 72 85 93
85 6 0 28 16 50 35 21 19 45 35 53 35 25 0 37 -48 39 -150 2 -127 3 -122 -31
-160 -16 -18 -40 -48 -52 -66 -12 -17 -35 -40 -50 -49 -15 -9 -28 -20 -28 -24
0 -15 54 -20 70 -6 8 7 26 11 40 10 14 -2 28 -4 33 -4 4 -1 12 -12 17 -26 10
-25 34 -33 45 -15 3 6 19 10 36 10 l29 0 0 228 c-1 201 -2 225 -15 208 -17
-22 -16 -22 -38 22 -13 27 -14 37 -4 54 11 18 6 25 -45 72 -59 52 -69 74 -44
95 30 25 109 -41 117 -98 2 -14 10 -26 17 -29 9 -3 12 33 12 156 l0 160 -32 6
c-21 4 -37 1 -48 -9 -9 -8 -27 -15 -39 -15 -17 0 -21 -4 -16 -19 3 -10 1 -29
-5 -42 -15 -32 -85 -35 -102 -4 -7 11 -18 25 -26 31 -8 6 -12 16 -8 22 5 8 1
10 -9 6 -9 -4 -27 -1 -41 6 -20 11 -27 11 -42 -3 -12 -11 -22 -13 -32 -7 -8 5
-33 10 -55 10 -26 0 -35 -3 -26 -9 7 -5 9 -11 4 -14 -12 -8 -54 3 -48 13 5 8
-85 30 -126 30 -67 0 -96 50 -41 71 31 12 48 21 159 83 44 25 88 46 97 46 9 0
41 16 73 37 66 42 135 65 169 57 17 -4 33 1 55 20 44 37 71 33 82 -14 5 -19
-3 -41 -28 -83 -19 -32 -35 -61 -35 -65 0 -4 -14 -27 -30 -51 -17 -24 -30 -47
-30 -50 0 -8 60 -31 78 -31 7 0 12 7 12 15 0 9 9 15 23 15 12 0 29 4 37 10 9
6 17 5 22 -3 4 -7 8 14 8 46 0 36 -6 67 -16 82 -15 23 -15 28 0 65 10 25 16
70 16 120 0 85 -6 93 -45 67 -28 -19 -83 -29 -91 -16 -8 14 16 60 28 53 4 -3
8 2 8 10 0 9 23 32 50 52 44 31 50 40 50 71 0 35 0 35 -17 14 -11 -13 -38 -25
-68 -30 -55 -10 -75 -2 -51 21 9 9 11 19 6 24 -6 6 11 23 40 43 42 28 52 32
65 21 22 -19 26 -9 23 53 -3 52 -4 54 -26 46z m-1322 -1580 c6 -23 17 -50 23
-60 15 -25 -10 -74 -38 -75 -55 -3 -55 -3 -25 -36 25 -27 29 -38 25 -72 -3
-22 -7 -41 -9 -44 -9 -9 -46 10 -46 24 0 8 -7 14 -16 12 -9 -2 -21 6 -28 17
-6 11 -12 22 -13 24 -1 2 -24 5 -50 8 -70 5 -84 8 -91 19 -4 6 -15 13 -24 17
-19 7 -25 27 -8 27 6 0 26 -9 46 -19 35 -19 64 -19 64 0 0 5 -6 9 -12 9 -8 1
-5 7 6 15 13 10 32 12 63 8 43 -6 44 -6 38 20 -5 16 -1 34 8 48 12 17 13 26 4
40 -14 23 15 59 49 59 19 0 25 -8 34 -41z m160 -14 c9 -11 9 -22 1 -46 -15
-43 -15 -43 22 -16 37 28 119 67 141 67 31 0 47 -30 42 -81 -4 -46 -3 -50 24
-64 16 -8 36 -15 44 -15 8 0 18 -5 22 -11 5 -9 -16 -10 -82 -3 -49 4 -112 7
-141 6 -51 -2 -53 -2 -61 30 -7 29 -12 33 -38 30 -28 -3 -29 -1 -31 40 0 26 5
50 15 61 19 21 26 21 42 2z"/>
<path d="M1155 9760 c-4 -6 -10 -8 -15 -5 -4 3 -11 -2 -14 -11 -3 -8 -9 -13
-14 -10 -4 2 -14 1 -21 -3 -9 -6 -3 -12 22 -20 43 -15 50 -31 31 -71 -23 -44
-12 -64 30 -56 32 6 35 5 41 -24 7 -33 -7 -60 -31 -60 -8 0 -27 21 -42 46 -15
26 -33 52 -39 59 -7 7 -17 32 -22 55 -9 38 -39 80 -58 80 -18 0 -32 -56 -24
-96 10 -53 18 -64 44 -64 29 0 44 -11 44 -32 0 -10 -6 -14 -16 -10 -14 5 -14
3 -2 -11 7 -9 22 -17 32 -17 11 0 28 -9 40 -21 15 -15 28 -19 45 -15 20 5 26
1 36 -21 l11 -28 7 25 c6 22 8 23 15 8 10 -25 45 -23 45 1 0 11 -13 48 -30 83
-16 34 -30 77 -30 95 0 44 -16 82 -46 110 -28 26 -30 27 -39 13z"/>
<path d="M12855 9155 c3 -154 8 -281 10 -283 2 -2 11 11 21 30 9 18 34 53 54
78 41 50 120 174 120 189 0 4 -8 15 -19 22 -10 8 -53 61 -96 119 -43 58 -82
109 -87 115 -5 6 -6 -108 -3 -270z"/>
<path d="M5776 9035 c4 -8 12 -15 20 -15 8 0 14 -6 14 -14 0 -8 4 -16 8 -18 4
-1 17 -19 28 -39 18 -31 19 -38 8 -54 -8 -10 -15 -17 -16 -14 -2 2 -14 17 -28
32 -21 24 -22 30 -10 37 11 7 11 10 2 10 -7 0 -17 -12 -22 -26 -13 -32 -12
-37 0 -29 6 3 10 0 10 -7 0 -9 3 -9 10 2 6 9 10 10 10 3 0 -6 3 -18 6 -26 3
-10 -1 -17 -13 -19 -14 -3 -9 -10 23 -30 22 -14 48 -34 57 -43 16 -15 17 -15
23 2 13 39 13 42 0 37 -10 -4 -14 7 -14 38 -1 24 -2 58 -3 76 -2 22 4 37 17
47 18 14 18 14 -2 9 -25 -6 -84 21 -84 38 0 6 -3 8 -6 5 -4 -3 -15 -2 -25 4
-15 7 -17 6 -13 -6z"/>
<path d="M9183 8144 c-4 -11 3 -23 20 -36 15 -11 27 -29 27 -42 0 -12 10 -33
22 -46 12 -13 22 -35 22 -49 1 -22 7 -27 41 -35 70 -15 72 -16 55 -26 -8 -6
-31 -10 -50 -10 -54 0 -77 -10 -88 -35 -8 -18 -31 -30 -89 -49 l-78 -26 252 5
c139 3 267 8 284 12 l31 6 -6 126 c-3 69 -9 139 -14 156 -8 28 -12 30 -63 32
-73 3 -94 3 -164 2 -35 0 -75 6 -97 15 -49 21 -97 21 -105 0z"/>
<path d="M10174 8103 c-24 -5 -34 -29 -34 -85 0 -28 7 -44 30 -65 33 -31 33
-67 -1 -76 -13 -3 -19 -14 -19 -31 l0 -26 126 0 c100 0 124 3 116 13 -5 6 -13
27 -17 45 -4 20 -13 32 -23 33 -25 1 -107 53 -109 70 -5 25 14 41 63 54 64 16
65 38 2 45 -27 3 -53 11 -60 18 -12 12 -33 13 -74 5z"/>
<path d="M8433 8093 c-7 -2 -13 -11 -13 -19 0 -8 -4 -14 -9 -14 -14 0 -20 -52
-9 -70 10 -15 15 -15 66 2 30 10 66 18 80 18 23 0 96 29 90 36 -2 1 -15 5 -28
7 -52 10 -86 19 -123 33 -20 8 -38 14 -40 13 -1 0 -8 -3 -14 -6z"/>
<path d="M3408 8066 c-18 -13 -25 -71 -10 -91 9 -13 82 -35 147 -44 28 -3 66
-17 84 -30 27 -20 31 -28 26 -50 -8 -29 -23 -42 -45 -37 -8 3 -31 8 -50 11
-19 4 -39 10 -45 14 -5 4 -25 8 -43 9 -30 2 -33 0 -26 -20 20 -63 145 -125
157 -78 3 12 24 29 52 41 55 24 67 47 37 67 -23 15 -30 56 -11 67 25 16 27 50
5 73 -20 22 -20 24 -3 36 24 18 22 22 -14 35 -43 15 -74 14 -88 -3 -13 -16
-52 -13 -141 9 -8 2 -23 -2 -32 -9z"/>
<path d="M3174 8055 c-22 -17 -54 -19 -54 -5 0 18 -38 10 -66 -13 -22 -19 -25
-28 -19 -55 6 -31 8 -32 58 -32 39 0 56 5 75 22 20 19 35 23 93 23 56 0 69 3
67 15 -2 8 -12 16 -23 18 -11 2 -29 7 -40 12 -55 26 -73 29 -91 15z"/>
<path d="M8213 8058 c-13 -6 -23 -17 -23 -23 0 -7 -21 -18 -47 -25 -27 -7 -56
-14 -66 -17 -9 -2 -15 -9 -11 -14 3 -6 0 -16 -6 -24 -10 -13 -8 -15 13 -15 14
0 38 -5 52 -10 23 -9 25 -13 14 -26 -9 -11 -22 -14 -43 -9 -17 4 -50 6 -73 6
-44 -1 -47 2 -43 47 1 15 -4 22 -17 22 -10 0 -36 9 -57 21 -47 25 -88 22 -101
-8 -5 -13 -15 -23 -22 -23 -17 0 -18 -139 -2 -174 15 -32 24 -35 79 -26 25 4
36 8 24 9 -12 0 -35 6 -53 12 -24 9 -31 16 -29 32 2 16 15 24 53 34 72 18 102
16 119 -8 10 -16 12 -28 5 -46 -5 -13 -9 -26 -9 -28 0 -2 64 -2 143 0 l142 3
11 33 c10 31 16 35 62 43 52 10 67 22 52 46 -7 11 -15 10 -44 -4 -31 -15 -41
-15 -71 -5 -44 16 -44 32 -1 48 66 26 83 103 29 129 -32 14 -50 14 -80 0z"/>
<path d="M12370 8040 c-19 -5 -36 -13 -38 -19 -2 -6 -8 -8 -13 -5 -12 7 -36
-12 -51 -39 -8 -15 -7 -18 4 -11 11 6 11 5 -1 -9 -19 -23 -6 -81 22 -100 12
-8 43 -17 70 -21 l47 -7 0 50 c0 50 0 50 -28 45 -19 -4 -34 1 -51 15 -13 11
-29 18 -35 14 -6 -3 -7 -2 -3 2 11 12 35 18 80 18 36 1 37 2 37 39 0 21 -1 38
-2 37 -2 -1 -19 -5 -38 -9z"/>
<path d="M14710 7987 c-13 -7 -29 -22 -35 -34 -16 -31 -36 -53 -49 -53 -6 0
-24 11 -40 25 -19 16 -36 23 -48 19 -11 -3 -24 -1 -31 4 -20 16 -75 24 -117
17 -32 -5 -40 -11 -40 -28 0 -12 7 -30 14 -39 12 -16 39 -18 302 -18 159 0
299 3 312 6 26 8 30 44 5 45 -10 0 -28 2 -40 5 -12 2 -25 -1 -28 -7 -4 -6 -16
0 -30 16 -15 15 -35 25 -52 25 -15 1 -39 7 -53 15 -31 18 -39 18 -70 2z"/>
<path d="M9055 7973 c-11 -3 -22 -9 -26 -14 -8 -13 -90 -26 -124 -19 -25 5
-222 5 -275 0 -8 0 -33 2 -55 5 -33 6 -43 3 -59 -14 -11 -12 -27 -21 -38 -21
-24 0 -23 -9 8 -64 14 -26 23 -53 20 -61 -4 -12 5 -15 47 -14 58 1 182 15 155
18 -22 1 -23 14 -2 32 20 17 119 12 157 -7 15 -8 37 -12 47 -9 12 4 20 2 20
-4 0 -6 16 -11 35 -11 32 0 34 2 26 23 -12 32 3 105 24 121 14 10 25 10 46 2
36 -13 60 4 39 29 -7 8 -15 14 -19 14 -3 -1 -15 -4 -26 -6z"/>
<path d="M2736 7936 c3 -9 11 -13 17 -9 5 3 29 -5 53 -17 31 -18 43 -31 46
-52 3 -16 0 -28 -6 -28 -6 0 0 -6 14 -13 14 -7 30 -28 37 -47 7 -19 12 -29 12
-22 1 7 11 12 24 10 31 -3 107 23 107 37 0 12 -73 40 -97 38 -7 0 -11 3 -8 7
3 5 -4 12 -16 15 -11 4 -18 9 -15 13 13 13 -31 43 -83 58 -31 9 -64 18 -73 20
-13 4 -16 1 -12 -10z"/>
<path d="M5801 2703 c-13 -77 -48 -197 -93 -323 -42 -120 -48 -140 -38 -140 5
0 55 11 112 25 57 14 143 28 192 30 88 5 131 15 65 15 -19 0 -39 4 -44 8 -17
11 -75 140 -75 165 0 13 -4 27 -10 33 -5 5 -23 46 -39 89 -16 44 -34 80 -39
80 -19 0 -23 12 -11 39 9 19 9 30 2 37 -8 8 -14 -10 -22 -58z"/>
<path d="M5541 1938 c-47 -117 -47 -116 -25 -93 10 12 19 19 18 18 -2 -7 95
-99 144 -135 28 -21 52 -45 52 -52 0 -7 9 -21 20 -31 11 -10 20 -16 20 -12 0
7 -189 387 -192 387 -2 0 -18 -37 -37 -82z"/>
<path d="M6106 1795 c-10 -8 -23 -12 -27 -9 -5 3 -9 0 -9 -5 0 -6 -6 -11 -13
-11 -8 0 -19 -11 -25 -24 -6 -13 -25 -40 -43 -60 -17 -20 -30 -38 -28 -40 2
-1 20 -7 39 -13 35 -11 35 -11 -12 -7 -36 3 -46 1 -42 -10 6 -16 111 -21 134
-6 13 8 12 10 -5 11 -15 0 -13 3 8 9 15 5 40 5 55 2 47 -12 75 -8 78 11 1 9
-4 17 -12 17 -9 0 -13 4 -10 9 4 5 1 11 -6 13 -7 3 -12 23 -13 46 -1 25 -8 49
-20 62 -21 24 -24 24 -49 5z"/>
<path d="M6039 1580 c-88 -5 -133 -12 -149 -23 -13 -9 -17 -17 -11 -22 6 -3
11 0 11 7 0 7 25 -13 54 -44 30 -32 61 -58 69 -58 8 0 20 13 27 30 7 16 19 35
27 41 12 11 12 8 2 -17 -7 -16 -17 -35 -22 -42 -14 -18 -2 -25 21 -13 12 6 32
11 47 11 34 0 69 19 129 68 49 40 86 58 86 41 0 -5 8 -9 18 -8 10 0 12 3 5 6
-28 11 -11 21 17 10 21 -8 26 -14 17 -20 -8 -6 -7 -7 4 -4 9 3 34 0 55 -7 52
-18 114 -27 114 -17 0 11 -65 38 -136 56 -65 16 -165 17 -385 5z"/>
<path d="M6314 1543 c3 -3 -12 -15 -33 -27 -21 -12 -51 -31 -67 -43 l-28 -21
39 -10 c106 -25 227 -42 264 -36 28 4 41 3 41 -5 0 -6 4 -11 10 -11 6 0 9 6 8
13 -2 7 6 11 20 9 17 -3 22 2 22 17 0 26 5 26 30 1 15 -15 25 -18 37 -11 10 5
29 5 47 0 40 -12 49 -11 41 1 -3 6 -20 10 -36 10 -23 0 -29 4 -27 17 5 27 -65
43 -135 30 -51 -9 -64 -8 -115 13 -31 12 -61 28 -67 35 -5 6 -21 14 -33 18
-13 3 -21 3 -18 0z"/>
<path d="M6166 1432 c-3 -5 0 -12 8 -15 9 -4 12 -14 9 -26 -3 -12 1 -28 8 -37
10 -13 10 -17 0 -24 -8 -4 -10 -13 -7 -19 11 -17 85 -48 134 -56 24 -4 41 -9
38 -12 -3 -3 -37 2 -76 11 -72 18 -107 16 -94 -5 4 -8 0 -8 -15 0 -11 7 -21
16 -21 20 0 5 -14 14 -31 20 -41 14 -44 14 -29 -4 7 -8 8 -15 2 -15 -5 0 -15
7 -22 15 -13 16 -100 45 -134 45 -30 -1 46 -33 162 -70 53 -17 131 -44 174
-61 71 -28 86 -31 225 -33 86 -2 161 -8 180 -15 28 -11 36 -10 57 6 14 10 26
22 26 27 0 8 -55 1 -86 -11 -8 -3 -14 0 -14 6 0 6 6 11 13 11 7 0 19 9 27 20
8 11 19 20 25 20 5 0 19 8 30 17 16 13 17 15 3 10 -13 -5 -19 0 -24 21 -3 15
-8 38 -11 52 -4 14 -6 27 -5 30 0 3 -9 7 -21 7 -12 1 -23 7 -25 13 -7 21 -31
10 -27 -12 7 -33 27 -68 40 -68 6 0 11 -8 11 -17 1 -10 4 -26 9 -35 13 -32
-15 -19 -36 16 -21 36 -83 64 -158 71 -20 1 -36 4 -36 5 0 1 -25 4 -55 6 -30
3 -65 11 -77 19 -29 19 -34 19 -26 -2 7 -17 6 -17 -11 0 -18 18 -41 24 -32 8
8 -13 -47 -21 -59 -9 -7 8 -5 9 7 5 11 -4 23 1 31 13 8 11 17 17 21 13 4 -4 4
0 1 9 -4 9 -18 18 -33 22 -15 3 -37 8 -48 12 -12 3 -24 1 -28 -4z"/>
<path d="M7100 1332 c0 -2 6 -18 14 -35 8 -18 30 -70 49 -117 45 -108 119
-281 146 -342 17 -36 27 -48 44 -48 12 0 28 -10 36 -22 13 -22 13 -23 -6 -6
-24 22 -44 23 -37 4 7 -18 55 -29 269 -61 171 -26 293 -56 330 -81 11 -8 66
-60 122 -116 l103 -102 6 32 c6 27 11 32 36 32 23 0 28 -4 24 -17 -3 -10 -8
-30 -11 -45 -5 -19 -11 -25 -23 -21 -10 3 -2 -10 17 -30 34 -36 51 -40 51 -11
0 16 26 19 35 4 13 -21 32 -9 43 27 12 41 8 55 -13 46 -8 -3 -15 0 -15 7 0 6
5 8 10 5 13 -8 13 1 -1 27 -12 22 -14 22 35 2 10 -4 20 5 30 25 9 17 24 35 34
40 19 10 79 3 88 -10 3 -5 25 -9 50 -9 l44 0 -16 40 c-9 23 -15 42 -13 44 2 2
15 -10 29 -27 14 -17 19 -28 13 -24 -7 5 -13 4 -13 -2 0 -15 16 -22 34 -15 23
9 48 61 41 85 -8 25 19 36 56 22 22 -9 26 -8 22 3 -3 8 -10 11 -16 7 -6 -4 -8
3 -3 21 6 24 4 27 -14 21 -14 -5 -20 -2 -20 10 0 13 -4 13 -28 -5 -17 -12 -45
-21 -74 -22 -26 -1 -44 -6 -42 -10 14 -22 -25 -6 -101 41 -22 14 -41 26 -42
26 -7 3 44 91 63 110 19 19 25 21 34 10 6 -7 10 -17 9 -21 -5 -30 19 -61 54
-69 23 -6 27 -4 27 14 0 39 61 53 114 26 20 -11 32 -12 41 -5 13 11 72 3 92
-12 6 -5 9 -16 7 -23 -4 -8 3 -15 18 -17 20 -3 23 -8 22 -46 l-1 -43 35 6 c30
5 33 3 23 -9 -7 -8 -22 -16 -34 -18 -19 -3 -16 -6 16 -21 21 -9 44 -14 52 -11
24 10 18 -33 -10 -70 -14 -18 -25 -40 -25 -50 0 -14 3 -14 21 -4 28 18 52 77
43 108 -4 14 -6 33 -5 43 3 21 -8 22 -37 1 -32 -22 -37 -12 -7 16 l24 23 -20
28 c-11 16 -26 29 -32 29 -7 0 -18 9 -25 20 -7 11 -19 20 -27 20 -8 0 -25 18
-37 39 -22 39 -23 39 -35 18 -10 -19 -11 -14 -12 37 0 46 -4 63 -21 81 -14 15
-21 33 -19 52 2 15 0 34 -5 41 -5 9 -1 18 10 27 23 17 30 18 55 5 15 -9 19 -7
19 6 0 10 15 0 44 -30 33 -36 42 -52 38 -71 -6 -33 -15 -32 -73 10 -27 19 -54
35 -59 35 -17 0 -11 -50 9 -79 11 -15 26 -47 33 -70 l13 -43 77 5 c43 4 88 13
101 21 26 18 137 20 137 3 0 -6 -7 -19 -17 -29 -18 -20 -12 -34 12 -25 8 4 15
15 15 26 0 21 46 59 57 48 10 -10 -19 -38 -34 -33 -7 3 -13 -1 -13 -9 0 -19 5
-19 42 3 26 15 31 15 41 2 7 -9 20 -14 30 -12 36 7 14 32 -45 51 -43 14 -47
25 -17 41 15 9 19 18 15 35 -10 39 17 51 65 30 34 -16 49 -17 89 -9 46 10 50
9 69 -15 l20 -26 25 29 24 29 12 -23 c10 -19 17 -21 48 -15 l37 7 -33 -34 -32
-34 20 -19 c14 -13 20 -29 18 -49 -3 -29 -6 -31 -45 -31 -23 -1 -45 -4 -49 -8
-15 -14 -24 -6 -25 21 l-1 27 -13 -31 c-15 -33 -9 -87 6 -63 6 10 12 9 28 -5
12 -11 37 -19 57 -20 32 -1 39 -6 58 -43 11 -24 29 -45 39 -49 11 -3 16 -12
13 -21 -3 -8 3 -27 14 -43 11 -15 20 -36 20 -45 0 -11 5 -15 15 -11 8 3 15 2
15 -3 0 -4 13 -21 30 -37 33 -33 37 -44 15 -44 -9 0 -15 -9 -15 -25 0 -14 -4
-25 -9 -25 -17 0 -33 30 -28 52 2 13 1 34 -3 48 -7 25 -7 25 -29 -13 -29 -47
-45 -48 -38 -2 l6 36 -18 -23 c-17 -21 -21 -21 -45 -9 -36 20 -33 29 12 37 44
8 77 23 52 24 -8 0 -23 18 -33 40 -21 44 -41 54 -31 15 8 -34 -3 -31 -37 8
-26 29 -33 48 -32 85 1 6 -5 12 -12 12 -7 0 -16 7 -19 16 -4 9 -9 15 -11 12
-3 -2 5 -27 17 -55 11 -28 18 -58 15 -67 -10 -26 -46 -19 -58 12 -10 25 -12
26 -19 7 -7 -17 -9 -17 -9 -2 -1 9 -8 17 -16 17 -8 0 -15 5 -15 11 0 6 -9 1
-20 -12 -24 -29 -28 -5 -5 28 9 12 14 36 13 53 -2 28 -4 29 -15 14 -16 -22
-17 -34 -1 -34 9 0 9 -3 -1 -12 -10 -11 -14 -10 -22 5 -6 9 -19 17 -30 17 -17
0 -19 -4 -13 -22 4 -13 11 -26 15 -29 5 -3 3 -14 -5 -25 -14 -18 -15 -18 -21
11 -13 58 -14 60 -30 39 -8 -11 -15 -14 -15 -7 0 7 -14 26 -31 43 -18 16 -28
30 -22 30 13 0 13 31 0 48 -16 20 -27 14 -27 -18 0 -16 -4 -30 -10 -30 -5 0
-10 11 -10 25 0 20 -5 25 -27 25 -25 0 -25 -1 -10 -18 21 -23 21 -36 2 -52
-12 -10 -15 -9 -15 6 0 14 -3 15 -12 6 -9 -9 -7 -17 8 -33 14 -16 15 -23 7
-26 -7 -3 -13 -9 -13 -14 0 -6 5 -7 10 -4 6 3 10 1 10 -4 0 -6 -7 -11 -15 -11
-20 0 -19 -16 1 -24 9 -4 13 -2 8 5 -4 7 0 9 14 5 12 -4 26 -1 35 9 15 14 17
14 27 -4 8 -17 15 -18 42 -10 49 14 63 12 48 -5 -9 -12 -3 -19 39 -37 56 -23
63 -40 29 -63 -26 -18 -58 -21 -58 -6 0 7 -6 8 -16 2 -11 -6 -25 1 -52 25 -20
18 -44 33 -53 33 -10 0 -21 5 -24 10 -3 6 -13 10 -22 10 -9 0 -25 8 -36 18
-16 13 -19 14 -15 2 2 -8 14 -19 26 -25 26 -11 29 -25 6 -25 -11 0 -14 -6 -9
-20 11 -34 -1 -22 -25 26 l-24 45 -12 -47 c-12 -48 -9 -84 8 -84 5 0 8 -10 6
-22 -4 -32 -32 -34 -46 -3 -13 27 -19 30 -42 15 -13 -8 -13 -11 -1 -19 8 -5
10 -14 6 -21 -6 -10 -11 -9 -22 5 -17 25 -17 6 2 -39 9 -20 15 -42 13 -49 -3
-19 13 -58 22 -52 9 5 24 -11 34 -39 4 -13 2 -17 -8 -13 -18 7 -24 -8 -18 -41
l5 -25 14 24 c8 14 12 16 9 6 -3 -10 -6 -28 -6 -39 0 -20 -1 -20 -19 -4 -19
17 -19 17 -14 -3 12 -48 -48 -111 -107 -111 -11 0 -20 -5 -20 -11 0 -6 -7 -9
-15 -5 -8 3 -25 1 -37 -4 -15 -6 44 -9 170 -9 105 -1 192 1 192 4 0 3 -7 17
-16 30 -22 34 -16 44 41 64 28 10 77 35 110 55 79 48 117 48 179 1 l46 -36
-25 -37 c-29 -43 -31 -55 -7 -48 16 5 37 6 101 5 14 0 25 -7 28 -20 5 -19 16
-19 401 -17 423 3 400 0 416 52 5 14 9 16 19 7 10 -8 17 -7 25 1 14 14 4 -30
-11 -49 -7 -10 7 -13 66 -13 59 0 78 4 85 16 5 9 11 15 13 14 2 -1 17 4 33 11
25 12 30 11 42 -6 11 -15 11 -20 1 -27 -9 -6 -8 -8 4 -8 9 0 22 7 29 15 9 11
16 12 25 5 15 -12 26 -3 18 16 -3 8 0 14 6 14 6 0 11 -11 11 -25 0 -34 11 -31
38 8 24 35 30 59 10 39 -20 -20 -28 -14 -28 19 0 23 -4 30 -15 25 -10 -4 -17
4 -23 27 -8 29 -9 30 -16 11 -5 -16 -12 -20 -26 -17 -11 3 -20 12 -20 19 0 12
-4 12 -21 2 -17 -11 -22 -10 -35 6 -8 11 -14 16 -14 12 0 -4 -8 -3 -17 3 -13
7 -23 5 -35 -6 -14 -13 -20 -13 -33 -3 -12 10 -15 10 -15 -1 0 -26 17 -42 36
-35 15 6 16 4 7 -5 -8 -8 -24 -7 -65 7 -29 10 -59 19 -66 19 -7 0 -16 5 -20
11 -16 23 -76 58 -80 46 -2 -7 -8 -12 -14 -12 -5 0 -6 9 -2 22 5 17 0 27 -22
45 -16 13 -23 23 -16 23 7 0 12 8 11 17 -5 31 11 93 24 93 17 1 49 68 34 73
-6 2 -4 6 6 10 10 4 27 -3 44 -17 39 -32 98 -52 115 -39 7 6 27 14 44 17 23 5
34 2 49 -14 26 -28 45 -25 45 8 0 41 10 49 62 53 42 4 47 2 42 -13 -3 -10 -1
-18 5 -18 6 0 11 8 11 18 1 12 11 5 38 -25 25 -29 47 -43 67 -45 21 -2 30 -8
30 -20 0 -10 8 -25 16 -34 15 -14 23 -14 73 -3 43 9 59 10 68 1 14 -14 42 -16
34 -3 -3 5 10 16 30 26 19 9 38 23 41 31 3 8 11 14 19 14 18 0 19 47 2 53 -10
3 -8 14 7 43 17 31 26 39 45 37 19 -2 14 3 -20 21 -49 25 -51 32 -26 89 l17
39 -23 -8 c-35 -12 -88 -12 -88 0 0 5 -6 2 -13 -8 -12 -17 -14 -17 -20 -2 -8
20 -27 21 -27 2 0 -10 -10 -9 -45 7 -48 22 -55 33 -27 40 15 4 15 5 -1 6 -11
0 -31 9 -45 19 -15 10 -41 24 -59 31 -39 16 -68 45 -39 39 13 -2 25 9 38 35
26 49 44 58 134 64 57 5 74 9 70 19 -3 8 -1 14 4 14 6 0 10 -7 10 -15 0 -9 9
-15 23 -15 13 0 32 -6 42 -14 17 -12 23 -10 56 16 21 17 35 36 32 44 -2 7 -1
18 3 25 4 7 13 -2 25 -26 17 -35 17 -38 1 -63 -14 -21 -18 -23 -20 -9 -2 9 -8
17 -14 17 -6 0 -8 -13 -4 -32 10 -58 -11 -71 -96 -64 l-72 6 20 -20 c23 -24
85 -30 108 -11 13 11 18 10 31 -3 9 -9 27 -16 41 -16 19 0 24 -5 24 -24 0 -19
8 -27 33 -35 17 -6 56 -29 86 -52 41 -31 56 -38 62 -27 29 47 30 47 63 11 22
-24 36 -32 48 -28 20 8 15 26 -5 21 -7 -1 -9 -1 -4 1 23 14 -13 59 -66 81 -35
15 -37 15 -37 -3 0 -15 -66 -33 -78 -20 -4 4 -7 17 -7 28 0 12 -6 21 -12 20
-7 -2 -13 7 -13 18 0 17 -3 19 -13 10 -8 -6 -17 -8 -20 -4 -4 3 -7 -1 -7 -10
0 -30 -17 -18 -24 16 -12 54 -8 127 5 127 5 0 9 -6 9 -14 0 -12 20 -26 36 -26
9 0 3 39 -7 46 -8 4 -7 9 2 15 7 4 10 11 6 15 -4 4 -16 -1 -27 -11 -19 -18
-20 -17 -20 2 0 10 14 29 30 41 17 13 30 29 30 38 0 8 5 12 10 9 6 -3 8 -16 5
-28 -3 -12 -7 -45 -8 -74 -3 -41 0 -53 12 -56 9 -3 4 -5 -11 -6 -30 -1 -48
-35 -29 -54 8 -8 11 -6 11 6 0 14 3 15 18 6 14 -9 27 -5 67 20 66 42 104 41
154 -4 40 -36 80 -46 82 -20 3 28 4 33 12 41 4 4 7 18 7 31 0 20 5 24 22 21
16 -2 24 -12 28 -32 7 -42 26 -43 34 -1 6 31 26 51 26 25 0 -5 7 -10 15 -10 8
0 15 7 15 15 0 8 -7 15 -15 15 -18 0 -19 12 -3 28 24 24 30 10 27 -67 -2 -44
-2 -76 1 -71 7 10 60 10 60 -1 0 -4 -4 -10 -10 -14 -5 -3 -7 -13 -4 -23 3 -9
-2 -6 -10 8 l-16 25 3 -24 c1 -13 11 -34 22 -47 11 -12 27 -30 35 -40 14 -18
15 -18 18 0 3 16 6 15 20 -6 9 -12 15 -31 14 -40 -2 -9 5 -18 15 -20 27 -6 73
20 73 41 0 27 -29 35 -51 15 -11 -10 -19 -12 -19 -6 0 7 6 12 13 12 6 0 -1 12
-18 26 -27 22 -27 24 -7 19 49 -14 92 -13 92 1 0 8 4 14 9 14 11 0 26 -56 22
-87 -2 -23 52 -82 77 -83 16 0 15 30 -2 49 -7 9 -17 27 -21 41 l-8 25 22 -25
21 -25 -6 27 c-5 23 -2 30 19 39 17 8 30 8 43 1 11 -6 27 -6 46 0 30 11 33 15
19 37 -9 14 -51 7 -51 -10 0 -5 -4 -9 -10 -9 -18 0 -11 19 20 52 25 28 28 30
23 11 -7 -29 3 -30 17 -2 8 15 8 24 0 34 -8 9 -8 20 -2 31 7 13 10 10 17 -17
7 -31 8 -32 12 -10 3 13 11 31 19 38 20 20 17 33 -7 33 -15 0 -19 5 -15 15 3
8 1 15 -4 15 -5 0 -12 -9 -15 -20 -4 -11 -10 -18 -15 -15 -5 3 -6 13 -3 23 6
15 5 15 -10 3 -10 -8 -20 -11 -24 -7 -3 3 -15 -1 -25 -11 -16 -14 -18 -14 -18
0 0 8 -13 29 -30 45 -32 33 -39 59 -16 68 8 3 12 12 10 19 -12 29 15 53 72 65
86 18 181 -9 252 -71 24 -21 56 -41 72 -44 21 -5 27 -11 23 -23 -3 -11 -2 -13
4 -6 13 18 73 26 73 10 0 -22 -33 -57 -56 -58 -30 -3 -84 22 -84 38 0 18 -14
18 -29 0 -10 -11 -8 -16 7 -21 15 -4 21 -17 25 -48 5 -46 -21 -138 -40 -145
-9 -2 -8 7 3 33 8 20 13 47 11 59 -3 20 -4 20 -11 1 -15 -41 -31 -69 -43 -73
-7 -2 -26 9 -42 25 l-29 29 -31 -31 c-17 -18 -31 -35 -31 -39 0 -3 14 -6 31
-6 47 0 93 -43 95 -88 0 -20 6 -38 12 -40 7 -2 12 -9 12 -16 0 -7 10 -18 23
-25 21 -11 21 -11 1 -8 -12 3 -28 1 -36 -4 -12 -6 -20 -2 -32 16 -9 14 -22 24
-29 22 -6 -1 -12 5 -12 13 0 9 -10 29 -23 45 l-22 30 10 -28 c14 -39 13 -77
-2 -77 -7 0 -25 -6 -40 -14 -20 -10 -29 -11 -38 -2 -10 9 -11 1 -6 -34 8 -54
9 -54 34 -41 12 6 32 11 47 11 24 0 25 -1 10 -23 -18 -28 -62 -51 -70 -37 -4
6 -12 10 -20 10 -9 0 -5 -9 11 -27 19 -21 27 -24 33 -14 7 11 9 11 13 0 3 -9
10 -6 24 11 59 76 112 120 142 120 19 0 35 7 41 17 7 14 12 15 24 5 12 -10 17
-10 23 -1 4 8 3 9 -4 5 -7 -4 -12 -3 -12 2 0 6 7 12 15 16 8 3 15 1 15 -5 0
-5 6 -9 13 -8 19 3 48 -12 41 -22 -3 -5 -15 -7 -27 -4 -30 8 -67 -19 -49 -36
10 -11 12 -10 12 2 0 11 11 16 35 17 19 1 35 -3 35 -8 0 -6 15 -10 33 -10 l32
-1 -24 -19 c-27 -23 -101 -28 -101 -7 0 9 -2 9 -9 -1 -4 -8 -1 -27 8 -47 13
-28 22 -34 47 -35 37 0 71 33 80 79 4 21 11 30 20 27 7 -3 16 -1 19 4 4 6 15
10 26 10 30 0 23 14 -21 40 -22 14 -40 28 -40 32 0 3 23 12 52 18 91 22 129
91 65 120 -27 13 -33 23 -41 63 -10 50 -21 60 -31 26 -4 -12 -12 -18 -21 -15
-8 3 -14 1 -14 -5 0 -6 -5 -7 -11 -3 -8 5 -8 9 1 14 8 5 2 14 -18 28 l-29 21
5 -26 c3 -17 1 -24 -6 -19 -6 3 -15 -2 -21 -11 -5 -10 -13 -15 -17 -10 -4 4 0
15 9 25 10 11 14 26 10 41 -4 17 3 31 28 57 18 19 40 34 49 34 8 0 26 7 38 16
22 15 23 15 16 -13 l-6 -28 21 30 c19 27 21 28 27 10 4 -11 15 -31 23 -44 9
-14 16 -29 16 -35 1 -39 63 -74 80 -46 3 6 -1 10 -9 10 -19 0 -80 74 -65 79 6
2 26 -12 45 -30 28 -27 41 -33 70 -30 39 3 84 -28 84 -59 0 -9 6 -25 14 -35
13 -18 16 -17 69 13 59 33 77 39 77 22 0 -5 -17 -14 -37 -20 -75 -21 -95 -55
-58 -97 25 -28 25 -28 43 -8 26 31 66 31 80 -1 7 -14 8 -23 3 -20 -5 3 -14 -1
-21 -9 -9 -10 -9 -15 -1 -15 6 0 11 -7 11 -15 0 -8 5 -15 10 -15 6 0 10 -7 10
-15 0 -9 12 -20 26 -25 34 -13 45 -13 41 3 -1 6 7 12 18 12 14 0 19 6 17 20
-3 16 -1 17 11 6 10 -8 17 -9 22 -1 3 5 15 10 26 10 10 0 19 6 20 13 0 6 5 0
11 -15 8 -24 14 -27 36 -22 15 4 31 11 37 15 5 5 18 9 29 9 10 0 16 3 12 8 -4
4 -24 7 -43 7 -22 0 -38 6 -41 14 -3 9 1 11 17 6 25 -7 24 -10 10 55 -7 31
-16 50 -25 50 -7 0 -11 -6 -8 -14 3 -8 0 -17 -6 -21 -6 -4 -8 -16 -5 -28 5
-16 4 -18 -3 -8 -5 7 -14 11 -20 7 -19 -11 -33 20 -22 48 5 15 10 38 10 52 0
31 7 30 32 -1 11 -14 23 -23 27 -20 10 6 31 -39 31 -68 0 -17 2 -19 9 -7 6 8
7 19 3 25 -3 5 1 4 10 -3 9 -7 19 -28 22 -46 4 -21 14 -36 25 -39 24 -6 71 3
71 13 0 5 3 17 6 27 6 15 4 16 -7 6 -17 -17 -31 -17 -27 0 4 24 -14 110 -33
154 -27 64 -19 74 21 25 18 -23 41 -42 51 -42 27 0 34 -20 7 -21 -15 -1 -17
-3 -7 -6 11 -2 15 -11 12 -22 -3 -12 2 -20 14 -23 10 -3 27 -9 37 -14 16 -6
18 -4 13 9 -3 9 -2 17 3 17 6 0 10 7 10 16 0 10 -6 14 -14 11 -22 -8 -34 13
-41 69 -9 63 9 82 20 21 5 -29 9 -37 13 -25 9 21 24 13 57 -32 22 -30 25 -31
25 -12 0 12 4 22 8 22 5 0 14 18 21 40 11 36 31 55 31 29 0 -5 4 -8 9 -5 8 5
21 -15 21 -33 0 -13 -45 -61 -58 -61 -6 0 -15 -12 -18 -26 -6 -22 -8 -24 -16
-10 -16 29 -38 19 -38 -19 0 -29 4 -36 25 -41 14 -3 25 -12 25 -20 0 -19 -13
-17 -44 7 -14 11 -26 16 -26 10 0 -5 10 -17 23 -26 15 -12 18 -19 9 -22 -10
-4 -10 -8 -2 -19 14 -16 5 -34 -17 -34 -10 0 -13 6 -9 16 3 9 0 23 -7 32 -11
16 -14 15 -34 -5 -12 -13 -18 -23 -13 -23 6 0 10 -8 10 -17 0 -10 10 -29 23
-43 12 -14 19 -21 15 -16 -5 6 -8 16 -8 23 0 10 5 11 19 3 24 -12 51 -13 51
-1 0 5 -10 7 -22 4 -21 -4 -21 -3 -5 7 10 6 25 9 34 5 23 -8 33 13 21 48 -8
21 -8 31 2 37 6 4 11 16 10 26 -4 36 0 36 42 0 37 -32 76 -49 66 -29 -25 48
-38 88 -34 100 9 23 23 7 37 -43 12 -39 17 -45 36 -41 30 6 29 -7 -1 -21 -16
-7 -24 -19 -23 -32 2 -24 6 -25 37 -3 l25 17 -19 -22 c-20 -23 -9 -31 12 -10
7 7 12 8 12 4 0 -5 -8 -15 -17 -22 -16 -12 -16 -13 -2 -14 18 0 33 25 30 51
-1 8 8 24 19 34 11 10 20 14 20 10 0 -5 6 0 14 11 14 18 15 18 25 -8 12 -33
18 -34 51 -8 45 36 70 19 28 -19 -20 -19 -20 -21 -3 -28 12 -4 20 -2 23 6 2 7
14 22 27 33 14 12 21 27 18 42 -7 33 23 59 56 51 14 -4 33 -8 41 -9 22 -2 27
-23 19 -85 -9 -61 -2 -76 37 -85 20 -5 31 -1 48 19 12 14 32 25 46 25 23 -1
24 -2 8 -14 -28 -21 -21 -34 25 -47 23 -6 50 -15 60 -20 13 -7 17 -5 17 10 0
26 10 51 21 51 5 0 9 -8 9 -17 0 -23 75 -66 99 -58 16 5 20 -1 23 -32 3 -26 0
-41 -10 -49 -8 -6 -12 -16 -8 -22 13 -22 -29 -13 -64 13 -19 14 -36 21 -38 15
-6 -17 -22 -11 -22 8 0 12 -9 18 -30 19 -33 2 -48 -13 -30 -30 10 -9 12 -8 6
6 -5 15 1 13 26 -8 22 -19 38 -25 55 -20 16 4 23 1 23 -9 0 -7 9 -16 20 -19
20 -5 28 -27 10 -27 -20 0 -9 -19 19 -36 26 -15 28 -19 14 -29 -8 -6 -13 -20
-10 -31 5 -18 5 -17 12 3 6 17 13 21 29 17 15 -3 28 2 41 16 23 26 45 87 38
106 -3 8 0 14 6 14 6 0 11 7 11 16 0 28 25 9 28 -22 2 -23 0 -26 -8 -14 -9 12
-10 10 -8 -9 3 -23 48 -52 48 -31 0 6 -8 10 -17 10 -17 1 -17 1 -1 10 14 8 16
26 16 103 0 84 -2 94 -25 119 l-25 26 26 17 26 17 0 189 c-1 108 -4 187 -9
184 -13 -7 -41 5 -41 19 0 6 -11 12 -25 12 -19 2 -25 -3 -25 -18 0 -14 -5 -18
-15 -14 -8 3 -22 9 -30 12 -8 3 -15 1 -15 -5 0 -6 5 -11 10 -11 6 0 10 -5 10
-11 0 -8 -5 -8 -15 1 -8 7 -15 9 -15 4 -1 -11 -29 37 -30 50 0 5 8 2 17 -5 15
-12 16 -12 10 3 -4 12 -2 18 8 18 8 0 15 -4 15 -10 0 -5 5 -10 10 -10 20 0 10
17 -17 29 -20 9 -28 10 -31 1 -3 -8 -8 -8 -18 1 -12 9 -13 9 -9 -3 5 -12 -1
-15 -23 -14 -17 1 -28 4 -26 8 2 4 0 9 -5 12 -5 3 -11 -3 -14 -14 -3 -11 -1
-18 4 -14 5 3 9 -2 9 -10 0 -9 5 -16 11 -16 5 0 7 5 3 11 -4 7 -1 10 7 7 19
-6 22 -57 4 -54 -8 1 -18 6 -22 11 -4 4 -2 5 6 0 9 -5 12 -4 7 3 -9 15 -34 4
-41 -17 -4 -13 -15 -18 -39 -17 -19 1 -32 4 -29 8 2 5 -7 8 -21 8 -14 0 -26
-4 -26 -9 0 -5 -11 -4 -24 2 -17 8 -22 15 -15 23 7 8 6 15 -2 20 -7 4 -9 3 -5
-4 3 -6 -2 -16 -13 -21 -23 -13 -31 -4 -55 62 -10 26 -21 47 -25 47 -4 0 -6
-24 -3 -54 4 -47 2 -56 -16 -65 -13 -7 -23 -7 -27 -1 -3 6 -15 6 -30 0 -18 -7
-27 -5 -37 7 -11 15 -11 16 7 10 20 -7 20 -7 1 8 -11 8 -20 25 -22 37 -1 13
-3 26 -3 31 -2 17 -18 5 -32 -24 -13 -27 -20 -32 -59 -34 -25 -1 -49 0 -55 4
-10 6 -16 7 -47 9 -10 1 -18 10 -18 20 0 27 -57 25 -64 -2 -5 -20 -7 -20 -31
8 -14 16 -30 26 -39 23 -20 -8 -56 26 -56 52 0 12 -6 21 -15 21 -9 0 -15 -6
-13 -12 2 -15 -40 -100 -55 -110 -16 -10 -31 0 -45 32 -15 34 -28 37 -53 14
-18 -16 -39 -12 -39 7 0 6 5 7 11 3 10 -6 89 62 89 77 0 4 -11 6 -24 5 -13 0
-22 -5 -19 -9 2 -4 -7 -5 -22 -1 -18 4 -30 2 -35 -6 -6 -10 -15 -9 -40 4 -40
20 -37 20 -43 -3 -3 -12 1 -22 11 -26 12 -4 13 -8 4 -17 -16 -16 -15 -36 3
-54 35 -35 7 -55 -68 -49 -42 3 -58 12 -40 23 15 10 8 20 -50 66 l-48 39 -19
-20 c-10 -12 -16 -23 -13 -26 2 -3 -3 -4 -14 -2 -10 2 -21 4 -25 4 -3 1 -20
12 -36 26 -25 21 -31 22 -36 9 -3 -9 -2 -12 5 -9 13 8 51 -24 43 -36 -3 -5
-10 -6 -16 -3 -8 5 -9 1 -5 -10 5 -11 3 -15 -5 -10 -8 5 -9 2 -4 -11 5 -14 3
-15 -6 -8 -7 6 -54 9 -108 8 -61 -2 -98 2 -102 9 -5 7 -16 2 -32 -13 -14 -14
-28 -22 -31 -19 -3 2 4 13 15 23 11 10 20 23 20 29 0 5 -16 -6 -36 -25 -32
-29 -35 -31 -24 -9 13 25 13 25 -8 7 -13 -12 -22 -15 -27 -8 -3 6 -15 11 -26
11 -12 0 -19 7 -19 19 0 10 -7 24 -15 31 -9 7 -14 19 -11 26 3 7 0 14 -5 16
-5 2 -11 13 -12 25 -1 17 -4 19 -14 11 -7 -6 -13 -16 -13 -22 0 -6 5 -4 11 4
13 19 9 8 -20 -53 -12 -26 -27 -45 -32 -41 -6 3 -24 -6 -40 -22 -16 -15 -29
-24 -29 -18 0 5 -5 2 -10 -6 -8 -12 -10 -12 -10 -1 0 11 -3 11 -15 1 -12 -10
-15 -10 -15 4 0 19 -5 20 -30 6 -13 -7 -21 -7 -25 0 -3 5 -15 10 -26 10 -25 0
-25 15 1 17 11 1 20 -2 20 -6 0 -5 11 -6 25 -3 14 2 25 8 25 12 0 5 8 6 18 4
10 -3 34 11 60 36 24 22 46 39 50 36 13 -8 30 21 21 35 -7 11 -9 10 -9 -5 0
-20 0 -20 -16 0 -8 10 -12 13 -8 5 5 -11 3 -13 -10 -8 -10 4 -27 7 -37 7 -11
0 -17 5 -14 10 3 6 2 10 -3 10 -5 0 -12 -10 -15 -22 -5 -18 -8 -19 -21 -8 -10
8 -16 9 -16 2 0 -6 -7 -9 -16 -5 -9 3 -20 0 -24 -8 -7 -11 -10 -10 -16 4 -10
27 -23 20 -22 -13 1 -16 5 -27 9 -24 5 3 17 0 26 -5 14 -8 11 -10 -17 -8 -29
3 -35 7 -33 25 3 27 -8 28 -24 3 -10 -17 -8 -21 18 -31 34 -14 37 -25 9 -27
-11 -1 -18 2 -15 7 3 4 -2 11 -11 14 -13 5 -15 1 -12 -23 2 -17 1 -28 -4 -25
-4 3 -8 19 -8 35 0 18 -6 32 -16 36 -8 3 -13 12 -9 20 3 11 1 13 -10 10 -8 -4
-19 1 -24 11 -10 16 -10 16 -11 0 0 -9 -3 -18 -7 -21 -5 -2 -3 -2 4 -1 6 2 14
-4 17 -13 4 -10 2 -13 -8 -10 -9 4 -16 -2 -19 -15 -6 -19 -8 -20 -29 -6 -13 8
-36 18 -53 22 -21 4 -26 4 -15 -3 24 -17 -71 -18 -108 -1 -25 11 -35 11 -40 3
-4 -7 -24 -14 -45 -16 -32 -4 -37 -2 -37 17 0 15 -3 17 -9 8 -10 -17 -59 -11
-72 9 -13 20 -12 -7 1 -31 9 -18 8 -18 -17 -5 -19 10 -29 11 -34 3 -4 -6 -9
-2 -14 11 -7 22 -25 29 -25 10 0 -6 -8 -1 -19 12 -16 20 -21 21 -35 10 -12
-10 -16 -11 -16 -1 0 9 -3 10 -13 1 -8 -6 -17 -8 -21 -4 -4 4 -9 -2 -12 -14
-4 -12 -16 -23 -31 -26 -26 -5 -26 -3 -8 48 6 18 6 18 -5 2 -7 -12 -18 -16
-31 -12 -13 4 -19 2 -19 -8 0 -11 -7 -13 -22 -9 -16 4 -19 2 -13 -8 6 -10 4
-12 -8 -7 -9 3 -23 -1 -32 -9 -8 -8 -20 -12 -27 -8 -8 5 -9 2 -5 -9 5 -13 1
-17 -16 -17 -18 0 -19 2 -7 10 17 11 18 11 -35 13 -49 2 -80 -19 -62 -42 11
-14 10 -14 -5 -2 -10 7 -25 11 -33 7 -8 -3 -15 -1 -15 4 0 6 -10 10 -22 9 -13
0 -17 -3 -10 -6 6 -2 12 -9 12 -15 0 -7 -4 -7 -13 1 -9 7 -24 8 -48 1 -44 -13
-44 -13 -29 5 7 9 21 13 31 10 9 -3 20 -2 23 4 9 14 -4 42 -16 35 -6 -4 -5
-10 3 -16 10 -7 5 -8 -14 -3 -20 4 -27 2 -22 -6 5 -7 1 -9 -11 -7 -11 2 -18
11 -16 19 1 9 -2 8 -12 -4 -10 -14 -15 -15 -19 -5 -4 10 -8 10 -17 -2 -9 -12
-10 -11 -5 7 4 15 2 21 -9 19 -9 -1 -19 -6 -23 -11 -4 -4 -2 -5 5 -1 8 5 11 0
9 -16 -2 -13 -8 -21 -13 -20 -5 2 -8 8 -7 12 1 4 -7 16 -19 26 -18 16 -20 16
-16 3 5 -13 0 -15 -22 -13 -16 2 -32 -2 -36 -8 -4 -6 -3 -8 3 -5 6 4 14 0 17
-9 10 -25 1 -27 -18 -5 -17 19 -17 21 10 60 16 23 36 43 46 46 21 7 32 35 13
35 -7 0 -16 -4 -20 -10 -3 -5 -12 -7 -20 -4 -8 4 -12 10 -9 15 3 5 -6 9 -20 9
-14 0 -28 5 -31 10 -4 6 -12 7 -18 3 -7 -4 0 -12 18 -19 17 -7 24 -13 17 -14
-8 0 -10 -5 -6 -12 6 -10 5 -10 -7 -1 -8 6 -30 10 -49 8 -19 -1 -45 4 -57 12
-15 10 -23 11 -23 4 0 -6 5 -11 10 -11 6 0 1 -9 -11 -21 -17 -17 -23 -18 -35
-8 -9 7 -13 20 -11 30 3 12 -3 18 -19 22 -20 3 -22 1 -13 -14 6 -13 6 -19 -1
-19 -5 0 -10 6 -11 13 0 6 -5 1 -10 -12 -8 -19 -12 -21 -24 -11 -8 7 -15 9
-15 5 0 -4 -6 -2 -14 4 -11 9 -17 8 -28 -3 -13 -12 -16 -11 -27 6 -16 26 2 41
37 33 28 -7 21 10 -7 18 -22 5 -64 -19 -56 -33 3 -5 1 -11 -4 -15 -5 -3 -14 2
-19 11 -7 12 -11 13 -17 5 -5 -9 -11 -7 -21 6 -9 12 -13 14 -14 4 0 -8 -8 -4
-19 10 -19 24 -20 24 -38 5 -17 -19 -17 -19 1 -6 18 14 18 13 11 -10 -4 -14
-12 -29 -17 -35 -6 -6 -7 -3 -2 10 7 19 7 19 -13 2 -14 -12 -30 -16 -52 -12
-21 4 -31 1 -31 -7 0 -9 -3 -9 -9 2 -6 8 -8 17 -6 21 3 3 -5 24 -16 45 -14 28
-19 32 -15 14 4 -21 1 -25 -19 -26 -16 -1 -25 3 -25 13 0 11 -4 13 -12 6 -15
-10 -109 -10 -127 1 -6 4 -17 3 -24 -2 -7 -5 -27 -12 -46 -16 -30 -5 -32 -4
-20 10 10 13 10 17 -2 25 -21 13 -30 11 -27 -8 2 -13 -4 -18 -18 -18 -12 -1
-29 -7 -38 -14 -10 -9 -16 -10 -16 -2 0 6 -5 11 -10 11 -6 0 -9 -10 -7 -22 2
-13 2 -17 0 -10 -3 6 -8 12 -13 12 -5 0 -7 8 -4 18 4 13 3 13 -7 -2 -9 -15 -9
-21 -1 -24 7 -2 12 -8 12 -14 0 -6 -6 -6 -15 2 -12 10 -18 10 -29 1 -12 -10
-16 -8 -21 10 -7 20 -8 20 -17 6 -5 -10 -16 -17 -23 -17 -8 0 -15 -4 -15 -8 0
-5 -13 -9 -30 -9 -16 0 -30 4 -30 9 0 5 -4 7 -10 3 -5 -3 -7 -12 -3 -20 6 -18
-18 -20 -35 -3 -9 9 -12 9 -12 -1 0 -7 -4 -9 -10 -6 -6 3 -7 -1 -4 -9 3 -9 2
-16 -4 -16 -5 0 -12 7 -16 15 -9 24 -25 17 -19 -7 l6 -23 -21 22 c-23 23 -65
21 -55 -3 7 -19 23 -18 23 3 0 21 9 12 15 -16 5 -26 -6 -27 -36 -2 -22 17 -25
18 -49 3 -14 -9 -29 -22 -33 -29 -10 -15 -53 1 -79 30 -10 10 -18 15 -18 9 0
-6 7 -18 16 -27 19 -19 11 -33 -10 -16 -18 15 -54 22 -61 11 -7 -11 -46 -1
-68 18 -9 8 -20 13 -23 9 -3 -3 4 -10 15 -17 29 -15 26 -28 -4 -22 -18 3 -31
-2 -41 -14 -9 -11 -12 -13 -8 -5 5 11 1 12 -20 7 -18 -4 -25 -3 -21 4 3 5 1
10 -4 10 -6 0 -11 -7 -11 -15 0 -8 -3 -15 -7 -16 -5 0 -17 -2 -29 -3 -17 -2
-20 2 -16 17 5 20 5 20 20 1 13 -18 14 -18 7 5 -5 15 -2 27 6 33 10 7 8 8 -6
2 -25 -9 -45 -9 -70 0 -13 5 -11 2 5 -8 23 -14 23 -15 5 -17 -11 -1 -24 0 -30
1 -5 1 -7 -2 -2 -6 11 -11 -23 -44 -45 -44 -11 0 -27 -4 -36 -9 -26 -14 -55
12 -47 41 4 16 3 19 -3 9 -5 -7 -14 -11 -20 -7 -13 8 -2 -37 11 -46 6 -3 -7
-6 -29 -6 -42 0 -94 16 -94 28 0 11 60 31 71 24 5 -3 8 0 7 8 -2 8 6 12 22 11
14 -1 19 1 12 4 -10 4 -10 8 -1 19 9 12 15 12 27 2 13 -11 14 -10 8 9 -4 14
-2 24 7 30 8 4 18 19 22 32 5 17 4 21 -4 16 -7 -4 -17 -2 -24 3 -7 6 -26 9
-42 7 -87 -11 -174 -15 -415 -21 -318 -7 -301 -6 -297 -19 2 -5 17 -9 33 -7
91 9 184 7 184 -4 0 -9 20 -11 75 -7 48 4 84 2 103 -6 29 -12 30 -15 30 -84 1
-93 -5 -105 -48 -83 -53 26 -146 15 -144 -17 2 -22 -1 -21 -45 5 -46 28 -52
38 -46 66 7 30 -9 28 -32 -4 -17 -23 -24 -25 -57 -19 -23 5 -43 16 -53 31 -8
13 -24 24 -35 24 -12 0 -24 12 -32 31 l-13 31 -20 -28 c-11 -16 -38 -61 -61
-100 -55 -95 -61 -99 -119 -85 -26 7 -49 8 -52 3 -3 -5 -13 -11 -22 -14 -12
-5 -15 -1 -12 15 4 20 -4 24 -74 44 -43 13 -98 28 -122 34 -25 6 -40 14 -34
17 6 4 -11 7 -38 7 -27 0 -49 -3 -49 -6 0 -4 -43 -7 -96 -8 -72 -2 -94 1 -88
10 5 9 -3 10 -32 5 -67 -11 -14 19 59 34 l62 13 -71 22 c-40 13 -85 30 -100
38 -16 9 -74 37 -128 62 -55 25 -97 48 -93 51 3 3 16 -1 29 -10 12 -8 48 -24
78 -36 30 -12 82 -34 116 -51 68 -33 110 -38 100 -14 -3 9 1 18 11 22 14 6 14
8 -3 20 -10 7 -13 13 -7 13 12 0 12 38 -1 58 -12 19 -39 15 -32 -5 4 -10 -7
-3 -23 15 -32 35 -61 44 -114 33 -21 -5 -36 -3 -42 5 -9 11 -155 26 -155 16z
m3030 -423 c0 -26 1 -27 32 -18 74 21 115 -1 125 -66 6 -36 5 -39 -10 -26 -10
7 -17 9 -17 3 0 -5 7 -15 15 -22 12 -10 18 -10 30 0 9 7 14 18 12 24 -20 52
-19 53 23 53 24 0 48 7 59 18 32 28 56 16 59 -32 3 -34 0 -42 -11 -37 -24 9
-26 -6 -15 -94 8 -64 14 -82 27 -82 13 -1 12 -3 -4 -15 -11 -8 -29 -22 -40
-32 -11 -10 -17 -14 -12 -8 18 23 4 25 -22 2 -30 -25 -51 -25 -128 -2 -17 6
-23 3 -23 -9 0 -10 -6 -13 -15 -10 -19 8 -19 -15 -1 -39 11 -14 11 -24 3 -47
-6 -17 -14 -30 -17 -30 -3 0 -23 16 -44 35 -45 41 -49 42 -41 13 16 -56 28
-79 41 -74 8 3 14 0 14 -6 0 -6 8 -20 18 -31 9 -11 11 -17 5 -13 -13 7 -17 -7
-14 -49 1 -11 -10 3 -24 32 -26 53 -55 86 -55 64 0 -7 -4 -10 -9 -6 -5 3 -22
-6 -37 -20 -15 -14 -38 -28 -51 -31 -31 -8 -78 12 -98 42 -19 30 -30 101 -21
147 l7 35 69 -5 c65 -5 70 -4 70 15 0 23 21 30 73 24 23 -2 37 -9 37 -18 0
-27 18 -14 24 17 8 40 -8 63 -35 48 -11 -5 -19 -6 -19 -1 0 17 29 80 40 87 20
12 9 34 -21 40 -19 4 -33 15 -36 26 -7 24 -8 24 -44 -2 -32 -22 -38 -16 -12
13 9 10 24 18 35 18 10 0 18 4 18 9 0 5 8 17 17 27 16 16 16 16 -4 10 -20 -6
-20 -5 -10 40 10 41 12 44 24 28 7 -10 13 -30 13 -45z m3267 32 c3 -11 15 -22
26 -26 21 -7 21 -7 -3 -14 -23 -7 -25 -12 -25 -67 0 -32 -6 -76 -13 -97 -12
-31 -16 -36 -28 -26 -8 7 -12 19 -9 28 13 33 16 120 6 138 -9 14 -10 10 -5
-19 5 -31 3 -38 -10 -38 -14 0 -23 38 -17 73 2 9 -57 -1 -74 -12 -5 -4 -26 -4
-45 -1 l-35 6 35 9 c37 9 48 11 94 13 23 2 26 5 17 16 -9 11 -9 15 1 18 7 3
18 -2 24 -11 10 -13 13 -12 25 7 17 27 29 28 36 3z m-5352 -46 c30 -20 55 -42
55 -49 0 -8 7 -16 15 -20 19 -7 19 -32 0 -40 -13 -4 -13 -9 -3 -25 17 -27 -3
-48 -53 -56 -21 -4 -39 -11 -39 -17 0 -5 -9 -6 -22 -2 -13 4 -31 7 -41 6 -23
-1 -32 23 -19 52 7 15 7 38 2 62 -8 33 -5 44 18 81 15 24 28 43 29 43 2 0 27
-16 58 -35z m6716 -275 c77 -46 104 -50 114 -17 7 21 7 21 12 2 8 -31 63 -76
84 -70 17 6 17 3 8 -24 -6 -17 -23 -37 -37 -44 -15 -7 -28 -18 -28 -25 -1 -6
-2 -16 -3 -21 0 -5 -10 -7 -21 -4 -16 4 -18 8 -9 19 9 11 8 14 -5 14 -20 0
-20 9 -1 30 23 25 8 54 -38 73 -23 9 -47 17 -53 17 -7 0 -17 7 -24 15 -7 8
-16 13 -20 10 -5 -3 -10 0 -12 6 -2 7 -11 7 -30 -1 -16 -8 -24 -18 -21 -26 4
-10 -3 -14 -21 -14 -22 0 -26 4 -26 30 0 17 -4 30 -10 30 -5 0 -10 4 -10 9 0
5 19 7 43 3 38 -5 41 -4 28 11 -24 29 7 20 80 -23z m-5411 -204 c1 -20 39
-110 40 -92 0 5 3 7 6 4 3 -4 1 -16 -6 -27 -9 -17 -15 -19 -30 -11 -12 7 -21
7 -25 0 -13 -21 -24 -8 -30 35 -6 39 -9 42 -22 30 -8 -8 -19 -15 -24 -15 -5 0
-18 -9 -29 -20 -30 -30 -36 -25 -32 25 3 38 1 45 -14 46 -20 0 -17 2 71 40 74
32 95 29 95 -15z"/>
<path d="M6884 1188 c-16 -13 -34 -27 -40 -33 -43 -39 -67 -56 -72 -51 -3 4 4
13 17 22 28 20 62 56 57 62 -6 5 -66 -27 -88 -47 -18 -17 -17 -20 21 -87 21
-38 56 -103 78 -144 l38 -75 85 -17 c47 -9 112 -19 145 -22 l60 -6 -45 14
c-48 15 -47 17 15 19 29 2 41 7 43 20 2 10 -3 17 -11 17 -8 0 -18 8 -21 17 -8
20 12 36 40 32 8 -1 24 23 24 36 0 7 -3 7 -8 0 -14 -19 -29 -14 -29 11 0 13
-8 33 -17 43 -9 9 -16 23 -16 29 0 7 -5 12 -11 12 -5 0 -7 5 -4 10 3 6 -1 13
-10 16 -9 4 -14 13 -11 20 4 11 0 11 -20 2 -19 -9 -30 -9 -45 0 -11 7 -19 8
-19 2 0 -17 -20 -11 -28 8 -17 42 -68 111 -83 112 -9 0 -29 -10 -45 -22z"/>
<path d="M7650 1150 c0 -11 -6 -20 -12 -21 -7 0 -21 -2 -30 -4 -10 -2 -20 1
-23 5 -3 5 -13 6 -21 3 -26 -10 5 -23 53 -23 28 0 45 -5 51 -16 5 -8 24 -19
43 -23 19 -4 45 -11 59 -16 l25 -8 -20 24 c-18 22 -17 22 10 -2 31 -27 195
-85 270 -96 37 -5 44 -3 49 15 4 11 3 29 -2 39 -5 10 -15 32 -23 48 -12 23
-21 29 -38 27 -20 -3 -23 0 -18 17 6 25 -10 38 -26 22 -6 -6 -16 -11 -21 -11
-6 0 -4 5 4 10 13 8 13 10 -1 10 -9 0 -20 -7 -23 -16 -4 -10 -13 -13 -28 -9
-16 4 -19 4 -9 -3 7 -6 10 -15 6 -22 -4 -7 -1 -16 6 -22 10 -6 6 -7 -11 -3
-14 4 -32 14 -40 23 -10 11 -33 18 -65 19 l-50 2 33 -15 c17 -8 32 -20 32 -27
0 -9 -2 -9 -9 1 -4 7 -12 12 -17 10 -12 -3 -74 30 -74 40 0 9 -54 42 -69 42
-6 0 -11 -9 -11 -20z"/>
<path d="M13950 625 c0 -8 -4 -15 -10 -15 -5 0 -7 -6 -4 -13 2 -7 -4 -22 -16
-32 -18 -16 -18 -19 -3 -30 21 -16 53 -8 53 13 0 12 3 13 11 5 8 -8 6 -19 -4
-40 -18 -34 -17 -77 2 -115 16 -31 9 -58 -18 -65 -13 -3 -21 -17 -26 -41 -3
-21 -8 -45 -11 -54 -4 -12 0 -18 10 -18 15 0 18 4 20 33 2 20 29 38 38 24 5
-9 10 -9 20 1 9 9 9 12 -1 12 -7 0 -9 5 -4 12 4 7 6 21 5 31 -2 9 4 25 13 34
14 13 21 14 35 5 27 -17 44 7 25 35 -14 20 -13 21 25 19 36 -2 39 0 33 18 -4
12 -6 34 -6 49 1 25 0 26 -12 10 -13 -17 -14 -17 -20 0 -10 23 -35 22 -35 -3
0 -11 5 -20 10 -20 6 0 10 -7 10 -16 0 -10 -6 -14 -14 -11 -8 3 -26 -3 -39
-14 -35 -27 -57 -25 -57 5 0 14 5 28 11 31 6 4 8 13 5 21 -3 8 -1 14 5 14 6 0
21 8 34 18 23 18 23 19 5 35 -10 8 -21 13 -24 10 -3 -3 -12 0 -21 7 -10 9 -12
17 -5 30 7 13 6 20 -6 24 -25 10 -34 7 -34 -9z"/>
<path d="M14399 519 c-28 -26 -38 -30 -59 -22 -40 14 -80 -5 -80 -39 0 -15 5
-28 10 -28 6 0 10 7 10 15 0 9 9 15 25 15 14 0 25 -4 25 -9 0 -13 -26 -32 -33
-24 -7 7 -10 -10 -8 -39 1 -11 -8 -18 -29 -23 -41 -9 -31 -21 16 -19 21 1 47
-2 59 -6 26 -10 35 -4 54 32 8 15 22 30 33 34 10 3 18 10 18 15 0 14 20 11 37
-6 13 -14 18 -13 44 2 18 11 29 26 29 40 0 30 -20 40 -27 13 -5 -19 -8 -21
-17 -8 -6 8 -23 22 -38 32 -15 10 -25 23 -22 31 11 27 -15 24 -47 -6z"/>
<path d="M11904 500 c-6 -6 -20 -12 -32 -15 -30 -5 -43 -15 -37 -26 4 -5 2 -9
-4 -9 -5 0 -11 6 -14 13 -3 8 -10 5 -22 -10 -23 -32 -41 -29 -20 3 9 14 15 27
13 30 -2 2 -27 -4 -56 -13 -36 -12 -51 -22 -50 -32 2 -10 -3 -15 -14 -13 -9 1
-19 -2 -23 -8 -3 -5 -16 -10 -28 -10 -20 0 -20 -1 -4 -17 16 -16 18 -16 33 5
15 22 17 22 29 5 7 -10 16 -15 20 -11 4 3 21 0 39 -7 36 -15 59 -5 49 21 -3 8
0 14 7 14 6 0 8 -4 5 -10 -3 -5 1 -10 9 -10 9 0 16 9 16 20 0 11 5 20 10 20 6
0 10 -4 10 -10 0 -14 37 -12 43 3 4 10 6 10 6 0 2 -24 19 -13 41 24 17 29 18
38 8 44 -17 11 -22 11 -34 -1z"/>
<path d="M13534 475 c6 -17 -9 -21 -19 -5 -10 16 -21 11 -33 -15 -10 -22 -9
-25 9 -25 20 0 21 -1 5 -25 -16 -25 -16 -27 6 -45 13 -11 29 -19 36 -20 7 0
12 -8 10 -17 -2 -12 3 -17 15 -15 9 2 17 -2 17 -8 0 -16 40 -12 46 5 10 25 24
17 24 -15 0 -23 -6 -33 -25 -42 -29 -13 -24 -28 10 -28 27 0 35 17 35 70 0 47
28 69 65 52 29 -14 35 -7 35 38 0 49 -11 58 -24 18 -12 -34 -36 -50 -36 -24 0
18 -15 21 -25 6 -10 -16 -35 -12 -29 5 4 8 13 15 22 15 22 0 5 15 -43 40 -45
23 -53 20 -36 -16 13 -29 4 -56 -11 -30 -5 9 -7 20 -3 25 3 5 0 13 -5 16 -6 4
-15 18 -20 31 -5 13 -15 24 -21 24 -6 0 -9 -7 -5 -15z"/>
<path d="M12786 438 c12 -35 10 -71 -3 -75 -8 -3 -13 4 -13 16 0 25 -28 28
-37 5 -3 -9 2 -41 12 -70 17 -50 14 -85 -4 -55 -7 10 -10 9 -14 -3 -4 -9 -11
-16 -16 -16 -6 0 -8 6 -5 14 4 11 0 13 -15 9 -11 -3 -18 -10 -15 -16 3 -8 -11
-13 -38 -14 -41 -1 -42 -1 -18 12 24 13 24 13 -10 10 -43 -3 -48 -17 -18 -60
26 -39 53 -45 61 -15 3 13 10 18 21 14 9 -3 16 -1 16 5 0 6 4 11 10 11 11 0
10 -50 -1 -65 -4 -5 -9 -14 -11 -20 -3 -11 -32 -11 -130 0 -37 4 -65 11 -63
16 11 16 -21 15 -44 -2 -50 -40 -171 -10 -236 57 -43 44 -55 46 -55 11 0 -14
-5 -17 -16 -13 -17 6 -17 -3 2 -49 7 -17 6 -18 -8 -7 -13 10 -18 9 -29 -4 -11
-14 -10 -19 9 -34 27 -22 28 -30 5 -30 -17 -1 -17 -1 0 -14 20 -16 22 -26 4
-26 -16 0 -37 56 -37 99 0 40 -23 38 -28 -2 -3 -25 -22 -39 -22 -17 0 6 -5 9
-11 8 -7 -2 -16 12 -21 30 -7 27 -13 32 -28 27 -17 -6 -20 -2 -20 30 0 51 -31
90 -87 109 -26 9 -55 16 -65 16 -35 0 -17 -15 40 -33 96 -32 116 -51 93 -95
-5 -9 -12 -25 -15 -35 -3 -10 -10 -15 -16 -12 -6 3 -20 3 -32 -1 -20 -6 -19
-8 15 -26 24 -12 37 -26 37 -38 0 -12 7 -20 17 -20 9 0 28 -11 42 -24 42 -38
84 -46 253 -46 150 0 160 1 196 24 40 26 102 43 102 29 0 -5 -19 -18 -42 -28
-24 -10 -37 -20 -30 -23 7 -2 20 2 29 10 12 9 15 9 9 0 -5 -9 14 -12 84 -12
78 0 91 2 86 15 -3 8 -9 22 -12 30 -7 17 11 21 21 5 12 -19 24 -10 27 22 3 28
11 37 52 59 50 27 49 43 -3 41 -24 0 -27 3 -27 34 0 38 11 45 21 13 4 -11 25
-28 48 -38 48 -21 75 -18 56 6 -19 23 -19 73 0 74 9 1 21 2 26 4 6 1 14 3 19
3 5 1 1 11 -8 21 -10 11 -25 34 -34 52 -20 39 -38 36 -35 -6 2 -26 1 -27 -8
-12 -6 11 -9 32 -5 47 3 17 -1 41 -10 59 -18 36 -29 41 -18 9z"/>
<path d="M8763 399 c-5 -26 -10 -30 -29 -26 -13 2 -24 0 -24 -4 0 -5 -8 -9
-17 -10 -15 0 -14 -3 5 -16 31 -22 28 -41 -9 -45 -19 -2 -37 -11 -43 -22 -6
-11 -28 -37 -48 -58 -28 -29 -44 -38 -70 -38 l-33 0 35 -22 c45 -28 54 -42 33
-49 -23 -8 -1 -19 24 -13 16 4 22 17 27 53 9 67 61 116 133 126 29 4 55 10 57
14 3 4 2 26 -1 49 -4 32 -9 42 -20 38 -12 -5 -13 0 -8 24 4 17 4 30 1 30 -4 0
-9 -14 -13 -31z"/>
<path d="M11282 418 c-7 -7 -12 -20 -12 -29 0 -34 -11 -50 -26 -38 -11 9 -14
7 -14 -9 0 -12 -4 -24 -10 -27 -5 -3 -10 -12 -10 -18 0 -9 2 -9 8 -1 4 6 16 8
26 4 18 -6 18 -7 3 -13 -16 -6 -25 -22 -41 -74 -11 -34 15 -29 58 10 33 31 46
57 29 57 -5 0 -9 10 -9 23 -1 20 3 23 32 23 38 0 45 -11 13 -19 -12 -3 -18
-10 -14 -16 3 -6 11 -8 17 -5 6 4 8 2 4 -4 -11 -19 14 -24 38 -8 14 9 26 28
29 48 5 38 3 43 -15 32 -30 -19 -46 -14 -53 16 -4 20 -13 30 -25 30 -13 0 -17
5 -14 15 7 18 2 19 -14 3z"/>
<path d="M14206 413 c-4 -4 -18 -8 -29 -8 -17 0 -22 -6 -23 -25 -1 -42 -4 -50
-15 -50 -6 0 -8 9 -4 20 10 31 -24 39 -47 10 -10 -12 -29 -22 -43 -22 -14 0
-22 -4 -19 -9 2 -5 19 -6 37 -3 l32 5 -22 -19 c-13 -11 -23 -25 -23 -31 0 -7
-7 -14 -15 -17 -8 -4 -15 -10 -15 -16 0 -5 4 -7 9 -4 5 4 11 1 13 -4 2 -7 18
-6 46 4 42 15 58 6 25 -13 -17 -10 -17 -10 -1 -11 9 0 19 4 23 10 9 15 38 -1
80 -46 30 -33 44 -41 55 -34 8 5 23 10 33 10 17 0 17 -1 0 -25 -10 -13 -25
-25 -33 -26 -16 -1 34 -16 63 -18 14 -1 16 4 11 25 -7 27 7 44 35 44 10 0 11
-3 2 -13 -15 -19 -3 -28 25 -21 17 4 24 2 24 -8 0 -8 11 -25 25 -38 20 -19 28
-21 38 -11 9 9 9 14 0 19 -8 5 -10 21 -7 42 3 19 6 43 6 53 -1 18 9 22 22 9 4
-4 12 -8 17 -8 5 -1 12 -2 15 -3 4 0 1 -8 -6 -16 -10 -12 -10 -15 2 -15 8 0
18 4 24 9 5 5 18 11 29 13 17 4 16 7 -10 17 -16 7 -39 20 -49 29 -13 11 -20
13 -23 6 -5 -15 -63 12 -63 28 0 6 -8 4 -18 -5 -10 -10 -23 -17 -29 -17 -6 0
-14 -7 -17 -16 -4 -9 -9 -14 -13 -11 -3 4 0 13 7 22 17 21 7 29 -18 16 -26
-14 -89 -14 -97 -1 -3 6 2 10 12 10 16 0 16 1 0 18 -14 13 -19 14 -26 4 -7
-12 -40 -7 -42 7 -5 42 -5 61 3 89 10 36 7 58 -6 45z"/>
<path d="M13467 278 c-24 -8 -26 -12 -15 -25 12 -14 8 -15 -36 -9 -42 7 -51 5
-72 -15 -20 -19 -26 -20 -40 -8 -13 11 -18 11 -21 2 -3 -7 -14 -13 -26 -13
-12 0 -30 -7 -40 -15 -18 -13 -17 -14 12 -29 16 -9 40 -16 51 -16 12 0 36 -11
55 -25 18 -14 49 -29 69 -32 20 -3 36 -11 36 -19 0 -17 37 -37 56 -30 8 3 17
0 20 -7 6 -18 64 -9 64 9 0 8 -6 14 -14 14 -25 0 -37 25 -22 46 14 18 15 18
35 -6 11 -14 20 -31 21 -38 0 -8 8 -10 26 -6 25 6 26 5 19 -25 -8 -35 9 -43
31 -14 15 20 19 57 5 49 -5 -4 -23 2 -39 11 -28 16 -29 18 -16 49 12 28 11 33
-3 38 -8 4 -31 3 -50 0 -33 -6 -35 -5 -28 17 4 13 4 21 0 17 -5 -4 -14 -3 -22
3 -15 13 -18 53 -3 44 14 -9 12 19 -2 33 -14 14 -14 14 -51 0z"/>
<path d="M11288 196 c-24 -21 -25 -26 -12 -37 13 -10 21 -9 46 5 34 20 47 14
50 -26 1 -16 7 -24 15 -21 7 3 13 1 13 -5 0 -6 -6 -12 -12 -15 -7 -2 1 -11 19
-20 17 -9 34 -22 36 -29 4 -8 8 -4 12 10 12 37 48 23 57 -22 2 -14 -4 -22 -22
-26 -14 -4 22 -7 80 -7 58 -1 96 1 86 4 -11 3 -37 16 -58 29 -21 13 -39 22
-39 19 -1 -3 -3 -9 -4 -15 -1 -5 -3 -13 -4 -16 -1 -9 -31 16 -31 27 0 4 9 10
20 14 13 4 19 14 18 33 -1 15 0 34 3 42 2 10 -1 14 -11 11 -8 -2 -33 -5 -55
-7 -22 -1 -52 -5 -66 -9 -16 -4 -30 -2 -33 4 -4 6 1 12 11 12 10 1 25 3 33 4
8 1 32 3 53 4 45 1 47 10 8 39 -27 20 -31 20 -60 6 -17 -9 -31 -19 -31 -24 0
-12 -56 8 -71 26 -15 18 -19 18 -51 -10z"/>
</g>
</svg>
